<?xml version="1.0" standalone="no"?>
<!DOCTYPE svg PUBLIC "-//W3C//DTD SVG 1.1//EN" "http://www.w3.org/Graphics/SVG/1.1/DTD/svg11.dtd" >
<svg xmlns="http://www.w3.org/2000/svg" xmlns:xlink="http://www.w3.org/1999/xlink" version="1.1">
<metadata>
Created by FontForge 20170731 at Mon Jun 28 11:06:59 2021
 By Aleksey,,,
2014 (c) Zeune Ink Foundry
</metadata>
<defs>
<font id="Wallington-SC" horiz-adv-x="1269" >
  <font-face 
    font-family="Wallington SC"
    font-weight="400"
    font-stretch="normal"
    units-per-em="2048"
    panose-1="0 0 5 0 0 0 0 0 0 0"
    ascent="1638"
    descent="-410"
    x-height="1688"
    cap-height="2054"
    bbox="-1598.22 -1530.03 3526.51 3661.71"
    underline-thickness="102"
    underline-position="-307"
    unicode-range="U+0020-25CA"
  />
<missing-glyph horiz-adv-x="1024" 
d="M0 0v1434h1024v-1434h-1024zM512 809l348 522h-696zM573 717l349 -522v1044zM164 102h696l-348 523zM102 1239v-1044l349 522z" />
    <glyph glyph-name="uni00540052.liga" unicode="TR" horiz-adv-x="2369" 
d="M-66 2048h1516q106 48 221 55q129 10 242 -30.5t192.5 -122.5t114.5 -211t10 -285q-5 -32 -25 -76.5t-61 -101.5t-94.5 -106.5t-135.5 -88.5t-175 -51q33 -27 68.5 -37.5t103.5 -21.5q0 -48 20 -135.5t54 -193t84 -214.5t105 -198t122 -146t131 -57q8 0 12.5 -6.5
t1.5 -13.5t-14 -7h-383q-11 0 -14 7t1.5 13.5t12.5 6.5q40 -2 58 8.5t17.5 28t-14.5 42.5q-119 155 -201.5 311.5t-114.5 248t-86 273.5q-7 24 -11 36q-8 28 -43 49q-90 0 -209 29v-871q0 -22 5 -43.5t19 -49t48 -44.5t83 -18q9 0 13.5 -6.5t1 -13.5t-14.5 -7h-473
q-12 0 -15.5 7t1.5 13.5t14 6.5q40 1 70 13t45.5 29t24.5 40t11.5 39.5t2.5 33.5v1690q0 32 -8 57q-59 66 -191 66h-153q-44 -4 -74 -22.5t-42 -44.5t-16.5 -47.5t-3.5 -41.5v-1679q0 -47 38 -89.5t116 -43.5q9 0 14 -6.5t1.5 -13.5t-15.5 -7h-473q-11 0 -14.5 7t1 13.5
t13.5 6.5q49 1 83.5 18t50 44t21 49t5.5 44v1657q-13 144 -142 156h-137q-163 0 -209 -99q-22 -50 -23 -75t16 -121q6 -31 9 -49q11 -61 11 -109q-1 -48 -35 -69t-72 -9.5t-49 45.5q-6 31 0 44t19 26t14 18q17 83 -6 204t-88 212q-5 5 -9 7l-6 3q-15 25 12 25zM1440 1837
v-723q285 -68 451 79q122 108 146 296q23 175 -49 325q-71 149 -203 196q-30 11 -63 15q-63 7 -96 5q-46 -1 -80.5 -16t-54 -36t-32 -48.5t-16 -49.5t-3.5 -43z" />
    <glyph glyph-name="uni00540054.liga" unicode="TT" horiz-adv-x="2150" 
d="M-86 2048h2292q27 0 12 -25l-6 -3t-8 -7q-67 -92 -90.5 -213t-4.5 -203q1 -5 14 -18t19 -26t0 -44q-11 -34 -48 -45.5t-70.5 9.5t-34.5 69q0 54 10 109q4 23 9 52.5t7 42t4.5 31.5t3 25.5t0.5 19.5t-1 17.5t-4.5 16t-7 19t-9.5 21.5q-48 99 -211 99h-154
q-44 -4 -73.5 -22.5t-42 -44.5t-16.5 -47.5t-3 -41.5v-1677q0 -47 38 -89.5t116 -43.5q9 0 14 -6.5t1.5 -13.5t-15.5 -7h-473q-11 0 -14.5 7t1 13.5t13.5 6.5q40 1 70.5 13t46.5 29t26 40t13 39.5t3 33.5v1655q-13 144 -141 156h-278q-129 -12 -142 -156v-1655
q0 -22 5.5 -44t21 -49t50 -44t83.5 -18q9 0 13.5 -6.5t1 -13.5t-14.5 -7h-473q-12 0 -15.5 7t1.5 13.5t14 6.5q78 1 116 43.5t38 89.5v1677q1 20 -3.5 41.5t-16.5 47.5t-42 44.5t-74 22.5h-153q-163 0 -211 -99q-6 -14 -9.5 -21.5t-7 -19t-4.5 -16t-1 -17.5t0.5 -19.5
t3 -25.5t4.5 -31.5t7 -42t9 -52.5q10 -55 10 -109q-1 -48 -35 -69t-72 -9.5t-49 45.5q-6 31 0 44t19 26t14 18q19 82 -4 203.5t-90 212.5q-4 5 -8 7l-6 3q-15 25 12 25z" />
    <glyph glyph-name="uni00540059.liga" unicode="TY" horiz-adv-x="2457" 
d="M2062 2048h371q11 0 14 -7t-1.5 -13.5t-12.5 -6.5q-39 0 -70 -9.5t-48 -23t-28 -27t-15 -23.5l-3 -9l-405 -973v-774q0 -22 5 -43.5t19 -49t48 -44.5t83 -18q9 0 13.5 -6.5t1 -13.5t-14.5 -7h-477q-11 0 -14.5 7t1 13.5t13.5 6.5q49 1 83 18t48.5 44.5t19.5 49t5 43.5
v774l-410 908l-18 41q-2 3 -6 8.5t-6.5 10.5l-4.5 9q-24 36 -55 49t-82 13h-170q-44 -4 -73.5 -22.5t-42 -44.5t-16.5 -47.5t-3 -41.5v-1679q0 -47 38 -89.5t116 -43.5q9 0 14 -6.5t1.5 -13.5t-15.5 -7h-473q-11 0 -14.5 7t1 13.5t13.5 6.5q40 1 70.5 13t46.5 29t26 40
t13 39.5t3 33.5v1657q-13 144 -141 156h-137q-163 0 -209 -99q-22 -50 -23 -75t16 -121q6 -31 9 -49q10 -55 10 -109q-1 -48 -35 -69t-72 -9.5t-49 45.5q-6 31 0 44t19 26t14 18q17 83 -6 204t-88 212q-5 5 -9 7t-5 3q-8 7 -6.5 16t18.5 9h1593q11 0 14 -7t-1.5 -13.5
t-12.5 -6.5q-129 0 -84 -129l344 -811l344 824l5 12.5t4 27.5t-5.5 35.5t-30.5 28t-65 12.5q-9 0 -13.5 6.5t-1 13.5t14.5 7z" />
    <glyph glyph-name=".notdef" horiz-adv-x="1024" 
d="M0 0v1434h1024v-1434h-1024zM512 809l348 522h-696zM573 717l349 -522v1044zM164 102h696l-348 523zM102 1239v-1044l349 522z" />
    <glyph glyph-name=".null" horiz-adv-x="0" 
 />
    <glyph glyph-name="nonmarkingreturn" horiz-adv-x="682" 
 />
    <glyph glyph-name="space" unicode=" " horiz-adv-x="368" 
 />
    <glyph glyph-name="exclam" unicode="!" horiz-adv-x="772" 
d="M334 369l90 1347q1 16 2.5 42.5t2.5 45.5t1 29q0 115 -22 165t-82 50t-83.5 -49.5t-23.5 -147.5q0 -13 3.5 -61.5t4.5 -73.5l52 -1347h55zM309 256q-51 0 -87 -37t-36 -88q0 -52 36 -88.5t87 -36.5t87 36.5t36 88.5t-35.5 88.5t-87.5 36.5z" />
    <glyph glyph-name="quotedbl" unicode="&#x22;" horiz-adv-x="849" 
d="M131 1440q26 -34 56 -22q23 10 17 35q-2 7 -7 15q-69 89 -78 175.5t22.5 131.5t71.5 35q44 -11 75.5 14t43.5 68q11 47 -14.5 91t-77.5 61q-78 27 -142.5 -19t-87.5 -147q-27 -108 13 -228.5t108 -209.5zM561 1440q26 -34 56 -22q23 10 17 35q-2 7 -7 15
q-69 89 -78 175.5t22.5 131.5t71.5 35q44 -11 75.5 14t43.5 68q11 47 -14.5 91t-77.5 61q-78 27 -142.5 -19t-87.5 -147q-27 -108 13 -228.5t108 -209.5z" />
    <glyph glyph-name="numbersign" unicode="#" horiz-adv-x="1443" 
d="M332 113l104 508q3 12 14 21t23 9h363q12 0 19.5 -9t4.5 -21l-100 -508q-3 -12 4.5 -21.5t19.5 -9.5h39q12 0 23 9.5t14 21.5l105 508q3 12 13.5 21t22.5 9h279q12 0 21.5 9.5t9.5 21.5v41q0 12 -9.5 21.5t-21.5 9.5h-258q-12 0 -20 9t-5 21l76 367q3 12 14 21.5t23 9.5
h170q12 0 21.5 9t9.5 21v39q0 12 -9.5 21.5t-21.5 9.5h-152q-12 0 -19.5 9.5t-4.5 21.5l106 506q3 12 -4.5 21t-19.5 9h-43q-12 0 -23 -9t-14 -21l-109 -506q-3 -12 -13.5 -21.5t-22.5 -9.5h-359q-12 0 -19.5 9.5t-4.5 21.5l100 506q3 12 -5 21t-20 9h-41q-12 0 -23 -9
t-14 -21l-102 -506q-3 -12 -14 -21.5t-23 -9.5h-282q-12 0 -21.5 -9.5t-9.5 -21.5v-39q0 -12 9.5 -21t21.5 -9h258q12 0 19.5 -9.5t4.5 -21.5l-74 -367q-3 -12 -13.5 -21t-22.5 -9h-172q-12 0 -21.5 -9.5t-9.5 -21.5v-41q0 -12 9.5 -21.5t21.5 -9.5h153q12 0 20 -9t5 -21
l-105 -508q-3 -12 5 -21.5t20 -9.5h43q12 0 23 9.5t14 21.5zM580 1182h364q12 0 20 -9.5t5 -21.5l-78 -367q-3 -12 -14 -21t-23 -9h-360q-12 0 -20 9t-5 21l74 367q3 12 14 21.5t23 9.5z" />
    <glyph glyph-name="dollar" unicode="$" horiz-adv-x="1142" 
d="M565 1976v-770q218 -218 365 -385q79 -91 114 -188.5t27 -184t-48.5 -166t-108 -139t-158 -98.5t-191.5 -49v-209h-112v207q-55 3 -99 14q-70 15 -127 48t-91 74t-58.5 83t-35 81.5t-15 61.5t-4.5 31q-7 103 24 188.5t84.5 134.5t120.5 68.5t131 1.5q44 -14 70 -37v269
q-169 166 -223 226q-173 193 -201 355q-6 36 -6 72q-1 162 84 260.5t198 118.5q54 11 148 14v205h112v-205q177 -6 260 -26q-9 -23 -17.5 -52t-20 -86t-13 -115t3.5 -139q0 -51 -69 -18l-17 8q3 10 6 27t5 64t-5.5 88t-35.5 87t-76 72q-5 1 -12 4t-9 4zM453 1321v680
q-88 3 -164 -33.5t-99 -95.5q-15 -45 -15.5 -87t10 -81t39.5 -87.5t62.5 -93t88.5 -110.5q24 -30 78 -92zM565 901v-848q73 13 127 46t82 70.5t44.5 84t20.5 78t3 59.5q-4 132 -76 252.5t-201 257.5zM453 47v655q-35 43 -97 43q-102 0 -165 -107t-53 -249q11 -161 112 -256
q81 -74 203 -86z" />
    <glyph glyph-name="percent" unicode="%" horiz-adv-x="1472" 
d="M1176 2048l-928 -2048h119l929 2048h-120zM422 1948q131 0 201.5 -102t70.5 -263q0 -158 -75.5 -262t-196.5 -104q-124 0 -201.5 102t-77.5 264q0 155 74 260t205 105zM422 1247q43 0 71.5 24t44 71.5t21.5 105t6 137.5q0 52 -1.5 90t-6.5 79t-15 68.5t-25.5 50.5
t-39 34.5t-55.5 11.5q-47 0 -77.5 -24.5t-45 -73.5t-20 -103t-5.5 -133q0 -163 33 -250.5t115 -87.5zM1128 834q132 0 202.5 -102t70.5 -263q0 -158 -76 -262.5t-197 -104.5q-124 0 -201 102.5t-77 264.5q0 156 73.5 260.5t204.5 104.5zM1128 133q43 0 72 24t44.5 71.5
t21.5 105t6 137.5q0 63 -2.5 107t-11 90t-24 74t-42 45.5t-64.5 17.5t-65 -17.5t-42.5 -45.5t-24.5 -73t-12 -90t-3 -108q0 -164 32.5 -251t114.5 -87z" />
    <glyph glyph-name="ampersand" unicode="&#x26;" horiz-adv-x="1796" 
d="M836 2048q102 5 180 -19t121.5 -65t69 -93t28.5 -104t-6.5 -96.5t-30.5 -71.5q-35 -48 -93 -69t-109.5 -6t-69.5 63q-21 58 16.5 105.5t104.5 33.5q34 -8 63 6.5t42.5 41.5t4.5 65.5t-45 71.5q-23 21 -61.5 35.5t-86.5 18.5t-99.5 -2.5t-99.5 -33t-86.5 -68.5t-61.5 -113
t-23 -161q0 -59 16.5 -112.5t43.5 -91.5t59 -71t64.5 -53.5t59.5 -35t43 -21.5l17 -6q-8 0 -22.5 -1.5t-59 -12t-88 -29.5t-102.5 -59t-111 -95q-53 -55 -82 -137.5t-32 -170.5t24 -177t79 -159t141 -114t202 -44q70 0 131.5 19.5t107 52.5t82 76.5t58.5 92t34 98t11 95.5
t-13 84q-23 72 -85 129.5t-150 64.5q-48 4 -97.5 -2t-99.5 -24.5t-83 -59.5t-37 -100q-3 -46 13 -72.5t39.5 -19.5t41.5 47q15 35 53 54.5t84 15t80 -36.5q42 -39 43.5 -99.5t-33.5 -105.5q-37 -50 -99 -64t-122.5 5.5t-112 72.5t-67.5 127q-29 129 36 223t217.5 130
t393.5 -13q103 -17 173 -5t105 40q40 34 32 84q-6 33 -25 37q-11 2 -21 -8q-2 -2 -7 -5t-20 -10.5t-31 -11t-39.5 -3t-47.5 8.5q-31 11 -48.5 45t-16 71.5t29.5 70t78 38.5q64 10 114.5 -26.5t74 -96t19.5 -122.5q-3 -37 -13.5 -66.5t-24.5 -50.5t-36 -37t-42.5 -26
t-50.5 -15.5t-53 -8t-56 -2.5t-54 1t-53.5 3t-48.5 3q61 -27 107 -84t66.5 -125.5t25.5 -144.5t-14 -140q-87 -331 -451 -391q-74 -10 -148.5 -10t-147.5 21t-138.5 52.5t-121.5 85.5t-96.5 120.5t-63.5 156t-23 193.5q0 79 15.5 150.5t42 124.5t60.5 99.5t71.5 78.5t75 58
t71.5 42t60.5 26.5t42.5 14.5l15 4q-6 2 -15.5 5.5t-36.5 18.5t-51.5 34t-53.5 53t-48.5 74t-31 99.5t-6.5 126.5q7 89 41.5 161t81 116t104 75t105 43.5t88.5 14.5z" />
    <glyph glyph-name="quotesingle" unicode="'" horiz-adv-x="370" 
d="M106 1434q36 16 87.5 79.5t94 154.5t42.5 165q0 102 -52.5 161.5t-134.5 53.5q-54 -4 -88.5 -40.5t-34.5 -84.5q0 -44 25 -76t70 -32q39 0 58 -48q29 -70 -15 -159q-35 -71 -107 -129q-25 -23 -10 -45q16 -23 46 -11z" />
    <glyph glyph-name="parenleft" unicode="(" horiz-adv-x="718" 
d="M647 -92v43q-234 160 -336 425.5t-102 651.5q0 126 25 268t74.5 287.5t137.5 268.5t201 186v49q-190 -85 -337 -249.5t-228.5 -383.5t-81.5 -457q0 -250 92 -479q86 -221 226 -368t329 -242z" />
    <glyph glyph-name="parenright" unicode=")" horiz-adv-x="718" 
d="M0 -49v-43q189 95 329 242t226 368q92 229 92 479q0 238 -81.5 457t-228.5 383.5t-337 249.5v-49q113 -63 201 -186t137.5 -268.5t74.5 -287.5t25 -268q0 -386 -102 -651.5t-336 -425.5z" />
    <glyph glyph-name="asterisk" unicode="*" horiz-adv-x="1052" 
d="M668 1556q88 -19 88 -88q0 -33 -27 -53q-27 -18 -51 -18q-42 0 -113 86q-46 54 -91.5 93t-63.5 30q-14 -7 -11.5 -47.5t12 -83.5t19.5 -72q29 -85 29 -96q0 -34 -23 -60t-57 -26q-35 0 -53 24q-19 25 -19 60q0 16 35 125q11 36 16.5 57.5t11 47.5t4 41.5t-8.5 22.5
q-14 12 -66.5 -28t-97.5 -88q-74 -86 -121 -86q-34 0 -53 22q-17 20 -17 45q0 71 101 95q237 47 237 75q0 31 -237 78q-101 21 -101 94q0 25 17 45q18 21 53 21q46 0 121 -84q46 -50 98 -90.5t66 -26.5q7 6 8 22t-4 41.5t-11 48.5t-16 58q-35 109 -35 125q0 32 19 57t53 25
q35 0 57 -25q23 -30 23 -59q0 -14 -29 -96q-10 -31 -19.5 -73t-12.5 -83.5t12 -48.5q33 -14 155 123q71 86 113 86q20 0 51 -17q27 -20 27 -55q0 -67 -88 -86q-51 -11 -79.5 -17.5t-71.5 -18t-62.5 -22.5t-18.5 -22q-3 -21 64.5 -40t167.5 -38z" />
    <glyph glyph-name="plus" unicode="+" horiz-adv-x="1486" 
d="M557 936v-619h129v619h621v129h-619v618h-131v-618h-577v-129h577z" />
    <glyph glyph-name="comma" unicode="," horiz-adv-x="503" 
d="M141 63q115 -88 2 -194q-12 -18 -12 -21q0 -6 4.5 -10t7.5 -2q55 18 115.5 90.5t60.5 151.5q0 32 -14 65t-43 47q-48 23 -91 0t-49.5 -61t19.5 -66z" />
    <glyph glyph-name="hyphen" unicode="-" horiz-adv-x="798" 
d="M0 838v-107h727v107h-727z" />
    <glyph glyph-name="period" unicode="." horiz-adv-x="634" 
d="M238 225q-44 0 -76.5 -33.5t-32.5 -80.5q0 -44 32.5 -75.5t76.5 -31.5q47 0 77.5 31t30.5 76q0 48 -30.5 81t-77.5 33z" />
    <glyph glyph-name="slash" unicode="/" 
d="M1036 2200l-995 -2200h119l997 2200h-121z" />
    <glyph glyph-name="zero" unicode="0" horiz-adv-x="1445" 
d="M702 2048q141 0 254.5 -54.5t189.5 -148t127.5 -225t74 -279.5t22.5 -317q0 -208 -43.5 -391.5t-125.5 -326t-211 -225.5t-288 -83q-160 0 -290.5 80.5t-215.5 220t-130.5 325.5t-45.5 400q0 162 24 309t77.5 278.5t131.5 227.5t193 152.5t256 56.5zM702 78q113 0 199 74
t137.5 206t77 300.5t25.5 371.5q0 157 -12.5 290t-44 256t-80 208.5t-125.5 136.5t-177 51t-177.5 -50t-127.5 -135.5t-82 -208t-45.5 -256.5t-13.5 -292q0 -202 26.5 -371.5t79.5 -301t140 -205.5t200 -74z" />
    <glyph glyph-name="one" unicode="1" horiz-adv-x="643" 
d="M426 2030v-1854q0 -55 46 -91.5t108 -27.5q25 4 32 -19t-14 -34q-8 -4 -18 -4h-154h-354q-29 0 -31 24q-2 22 15 31q8 4 16 2q63 -17 118.5 23t55.5 98l-2 1477q0 38 -28.5 53t-69 10.5t-85.5 -6.5t-79 2q-49 11 -70.5 48t-10.5 72.5t44 43.5q24 5 39.5 -5t31.5 -25
t37 -17q31 -4 61 5.5t53.5 28t44.5 41t37 46.5t27 43.5t18 32.5l7 14q4 3 35 4.5t61 -2.5t29 -14z" />
    <glyph glyph-name="two" unicode="2" horiz-adv-x="1372" 
d="M1296 6h-1278q-19 1 -19 42.5t15 51.5q41 59 246 335t396 532l192 256q74 115 104.5 230t18 206.5t-53.5 163t-109 110t-149 37.5q-162 -3 -241 -133q-59 -96 -49 -211q9 -96 59 -128q33 -21 74 -3q57 24 107.5 -15t41.5 -94q-6 -42 -49 -74t-104.5 -34.5t-132.5 41.5
q-65 44 -102.5 114.5t-44 148.5t18.5 159t76 147t138 112t196 54q87 7 168.5 -13t147 -64t114.5 -106.5t70.5 -146.5t16 -178.5t-50 -207.5t-126.5 -228l-719 -999h621q93 0 127 15t43 60q4 19 -4 76.5t-12.5 113t8.5 132.5q23 102 88 131q49 21 84 -11q16 -15 22 -36
q8 -29 -2.5 -51.5t-28 -35t-36 -34.5t-23.5 -49q-44 -208 139 -363q18 -13 21 -16q9 -9 6.5 -23t-25.5 -14z" />
    <glyph glyph-name="three" unicode="3" horiz-adv-x="1529" 
d="M1124 1970l-596 -680q33 20 81.5 31.5t107.5 13t124 -10t130 -35t127 -65.5t113.5 -97t91 -134.5t57.5 -173.5q17 -100 12.5 -194.5t-37.5 -180.5t-82.5 -159.5t-121.5 -132.5t-155.5 -98.5t-184 -57.5t-207.5 -10q-108 8 -201 42.5t-159 85.5t-114.5 116.5t-73.5 135
t-31 140.5t9 133t51 113.5t89 81.5q59 33 127 34t116.5 -30t55.5 -82q10 -77 -44 -121.5t-153 -11.5q-62 21 -92 -41q-34 -69 -6 -175q38 -140 159 -228q103 -74 250 -89q170 -17 314.5 42.5t232.5 187t92 296.5q3 138 -40.5 248t-116.5 176t-168.5 101t-193.5 31
t-194 -43.5t-167 -112.5q-22 -23 -50.5 -5t-37.5 50t4 55l667 766h-506q-93 0 -127 -15t-43 -61q-4 -21 8 -83.5t1 -112.5q-11 -47 -32.5 -78.5t-46 -42.5t-48.5 -10.5t-42.5 13.5t-25.5 34q-9 28 2 54.5t30 45t37 48.5t21 63q5 63 -9.5 107t-39.5 65t-51 32.5t-48 18
t-26 12.5q-7 11 1 25t32 14h1120q11 0 16.5 -4t4.5 -10.5t-4 -12.5t-6 -10z" />
    <glyph glyph-name="four" unicode="4" horiz-adv-x="1296" 
d="M817 805v864q22 13 54 15t55 -9q11 -18 17.5 -29t16.5 -26t17 -23.5t17 -19t18.5 -16t20 -11.5t23.5 -7.5t26 -1.5t30 3q20 5 36.5 20t32 24t40.5 3q19 -5 31.5 -18t14 -30t-5.5 -35t-27 -35t-50 -27q-35 -8 -71.5 -6t-65.5 8.5t-47.5 -6.5t-18.5 -51v-189v-397h111
l-48 -115h-63v-514q0 -55 46 -91.5t108 -27.5q25 4 32 -19t-14 -34q-8 -4 -18 -4h-490q-29 0 -31 24q-2 22 15 31q8 4 16 2q63 -17 118.5 23t55.5 98v512h-819v101q56 56 93 94t112 124t127 157t105 165.5t79 177.5q39 131 24.5 205t-57 98t-96.5 0q-37 -16 -67.5 4.5
t-43 59.5t-2.5 76q15 50 77 76t143 10.5t139 -76.5q82 -86 82 -228.5t-69 -301t-189 -324t-271 -303.5h631z" />
    <glyph glyph-name="five" unicode="5" horiz-adv-x="1355" 
d="M266 1913v-629q104 76 228 110.5t245 26.5t235 -59.5t200.5 -136t139 -214.5t52.5 -286q0 -146 -50 -278t-138.5 -231.5t-221 -158.5t-288.5 -59q-110 0 -204 26.5t-160.5 72.5t-118 106t-78.5 129t-39.5 140.5t-3 141t33 129t66 107t98.5 72.5q106 49 197 17.5
t102 -118.5q7 -49 -23.5 -87t-79.5 -47t-106 13q-60 28 -103 -38q-46 -73 -37 -193q12 -158 117 -263q117 -117 318 -126q164 -7 290 77t190 232t59 332q-3 108 -34.5 198.5t-82 153.5t-117 108t-139 66.5t-149 23.5t-146 -15.5t-130 -55.5t-101.5 -92q-18 -23 -52 -30
t-61 4.5t-27 35.5v926h983q23 0 25.5 -14t-6.5 -23q-4 -4 -21 -16q-89 -79 -122.5 -137t-16.5 -121q6 -27 25 -49t36 -34.5t27 -35t2 -51.5q-7 -25 -23.5 -41.5t-38.5 -19.5t-45.5 6.5t-47 40t-39.5 77.5q-13 48 -8.5 79.5t12.5 71.5t4 60q-9 46 -43 61t-127 15h-457z" />
    <glyph glyph-name="six" unicode="6" horiz-adv-x="1333" 
d="M1274 676q0 -270 -122.5 -437t-324.5 -221q-65 -18 -163 -18q-144 2 -259.5 62.5t-191 160.5t-125.5 235.5t-70.5 283.5t-17.5 309q3 176 32.5 324.5t76 252.5t109 185t128.5 129.5t139 78t136 39t122 4.5q107 -8 193 -56t136 -118.5t72.5 -153.5t12.5 -165
q-10 -79 -56 -123.5t-108 -36.5q-45 6 -74 35t-34.5 62.5t14.5 64t64 39.5q38 8 49 68q16 80 -29 159q-68 117 -229 130l-29 1q-97 1 -177.5 -33.5t-134.5 -93t-95.5 -133.5t-64 -156t-36 -159.5t-15 -143.5t1.5 -109.5t11 -56.5q33 42 78 82t108 79.5t145.5 62t170.5 18.5
q114 -5 208.5 -43.5t158 -101t107 -145t63.5 -173.5t20 -188zM674 78q98 -1 178.5 46t131.5 128t78.5 182.5t29.5 212.5q2 171 -42 304t-134.5 212.5t-215.5 81.5q-90 1 -171.5 -38.5t-144 -112t-100 -179.5t-38.5 -233q-3 -168 47.5 -304t150 -217t230.5 -83z" />
    <glyph glyph-name="seven" unicode="7" horiz-adv-x="1361" 
d="M1352 2046v-123q-1 -1 -10 -9q-266 -252 -452 -609q-280 -538 -280 -1160q0 -92 15 -139h-162q-29 0 -29 53q-7 150 12 309.5t57 302.5t89 284.5t109 262t116.5 230t112 193.5t95 145.5t66.5 93.5l25 33q-740 2 -760 0q-46 -6 -66 -35t-28 -92q-2 -18 6 -76.5t11.5 -113
t-9.5 -132.5q-23 -102 -88 -131q-49 -21 -84 11q-16 14 -22 36q-8 29 2.5 51.5t28 35t36 34.5t23.5 49q24 112 -16 242t-123 201q-17 13 -21 16q-9 9 -6.5 23t25.5 14h1327z" />
    <glyph glyph-name="eight" unicode="8" horiz-adv-x="1337" 
d="M1266 543q0 195 -107 344.5t-330 234.5q86 30 153 87.5t107.5 129t57 154t8.5 163t-44 155t-95 131t-151.5 90.5t-205.5 34t-206.5 -32.5t-156.5 -88t-103 -129.5t-52.5 -155t1 -167.5t51.5 -165.5t105.5 -149.5t156.5 -117.5q-103 -45 -177 -92.5t-135 -112.5t-92 -151
t-31 -193q0 -117 51.5 -217.5t137.5 -167.5t196 -105t228 -38q125 0 239.5 40t202 111.5t139.5 177.5t52 230zM748 1155q-22 11 -65 31t-67 31.5t-58 31t-64 39.5q-65 45 -106.5 116t-53.5 148t1.5 156t50 141.5t101 102.5t146.5 41q83 1 149.5 -27t109 -76t67.5 -112
t30 -134t-8.5 -143t-43.5 -138t-78.5 -120t-110.5 -88zM543 1001q77 -39 100 -51q60 -32 93 -50t85 -50t80.5 -56t64 -60.5t53.5 -72t31 -81.5t13 -97q0 -189 -114 -307.5t-298 -118.5q-196 0 -318 131t-122 342q0 178 89.5 296t242.5 175z" />
    <glyph glyph-name="nine" unicode="9" horiz-adv-x="1261" 
d="M20 1393q0 101 25 192t67 159.5t98 125.5t116.5 94t124.5 59q95 31 163 31q94 0 175 -24t144 -66.5t114.5 -103t88.5 -131.5t64 -154t43 -169t23.5 -178.5t7 -179.5t-7.5 -174q-16 -193 -56.5 -343.5t-98.5 -250.5t-136 -165t-165 -93t-189 -28q-107 0 -202.5 42
t-158.5 108t-97 148.5t-28 162.5q7 99 59.5 154.5t127.5 49.5q38 -3 64.5 -24.5t33.5 -51.5t2.5 -60.5t-28 -55t-58.5 -31.5q-37 -8 -40 -69q-2 -80 55 -158q88 -121 253 -130q14 -1 29 -1q89 0 160.5 36t117 94.5t78.5 133.5t48 155.5t22.5 158.5t4.5 142.5t-8.5 108.5
t-13.5 56q-33 -42 -74.5 -79t-100.5 -72.5t-138.5 -55t-167.5 -15.5q-113 5 -206.5 49t-154 111t-102.5 153t-60 171t-18 168zM623 1968q-125 -2 -217 -79t-136.5 -198t-46.5 -270q-2 -170 40 -302t128.5 -210t206.5 -80q179 -3 305 142.5t129 394.5q3 168 -45.5 305.5
t-143.5 218t-220 78.5z" />
    <glyph glyph-name="colon" unicode=":" horiz-adv-x="733" 
d="M358 1329q-49 0 -83.5 -34.5t-34.5 -84.5q0 -48 34.5 -82t83.5 -34q47 0 82 34.5t35 81.5q0 49 -34.5 84t-82.5 35zM356 745q-50 0 -84 -34.5t-34 -83.5q0 -48 34.5 -82.5t83.5 -34.5q47 0 82 35t35 82q0 50 -34 84t-83 34z" />
    <glyph glyph-name="semicolon" unicode=";" horiz-adv-x="837" 
d="M330 1008q-60 0 -103 -43t-43 -103t43 -102.5t103 -42.5t102.5 42.5t42.5 102.5t-42.5 103t-102.5 43zM215 -168q44 -25 89.5 -18.5t82.5 31.5t60.5 71t23.5 100q0 88 -48.5 147.5t-121.5 53.5q-47 -5 -81 -39t-34 -78q0 -41 23 -70.5t65 -29.5q20 0 35 6q16 7 30 8
t26 -9.5t12 -35.5q0 -64 -50.5 -94t-111.5 0q-17 -6 -14 -21t14 -22z" />
    <glyph glyph-name="less" unicode="&#x3c;" horiz-adv-x="1230" 
d="M0 868l1153 -501v94l-993 430l993 436v98l-1153 -505v-52z" />
    <glyph glyph-name="equal" unicode="=" horiz-adv-x="1316" 
d="M143 1327v-125h1102v125h-1102zM143 932v-125h1102v125h-1102z" />
    <glyph glyph-name="greater" unicode="&#x3e;" horiz-adv-x="1224" 
d="M0 1425v-98l993 -436l-993 -430v-94l1153 501v52z" />
    <glyph glyph-name="question" unicode="?" horiz-adv-x="1116" 
d="M547 426q-11 52 -12.5 99.5t3 85.5t19 76.5t28.5 65.5t38.5 60t42.5 53.5t47 51.5q44 48 105.5 109.5t99 98.5t81 89.5t67.5 98t40 107t16 131.5q0 90 -38 178t-105.5 159t-171.5 115t-225 44q-112 0 -214 -43t-173.5 -115t-107.5 -174.5t-21 -214.5q7 -51 28.5 -89
t48.5 -58t57.5 -30t57 -9.5t45.5 8.5q46 17 66.5 49t16 64t-23.5 61t-47 43q-52 26 -71.5 77t-3 108.5t55 111t108 90.5t151.5 41q114 7 204.5 -49t137.5 -152t47 -211q0 -83 -25.5 -155t-71 -133t-93.5 -112.5t-109 -120t-102 -128.5q-47 -69 -75.5 -146t-29.5 -168.5
t39 -168.5zM524 303q-60 0 -102.5 -43.5t-42.5 -103.5t42.5 -103t102.5 -43t103 43t43 103t-42.5 103.5t-103.5 43.5z" />
    <glyph glyph-name="at" unicode="@" horiz-adv-x="1814" 
d="M1274 -152l59 -43q-181 -196 -510 -196q-168 0 -319.5 62.5t-262.5 171t-176 263t-65 330.5q0 161 50.5 312.5t140 272t206.5 210.5t257 135.5t284 38.5q135 -6 251.5 -42.5t202 -95t153.5 -136t109 -164.5t64.5 -180.5t24 -185.5t-16.5 -178.5t-53 -158.5
q-15 -31 -37 -63.5t-62.5 -74t-87.5 -72.5t-114.5 -52.5t-142.5 -21.5q-63 0 -113.5 16t-79 38.5t-47 51t-25 50t-6.5 38.5q-19 -51 -103.5 -109t-192.5 -65q-164 -10 -250 104q-58 77 -73 181t8.5 208t80.5 204.5t134.5 175t178.5 115t205 28.5q122 -14 184 -94l15 43h180
h105q12 0 15.5 -7.5t-1.5 -14.5t-14 -7q-66 0 -119 -131l-23 -74q-37 -116 -80 -264q-55 -198 -55 -250q0 -23 18 -61q33 -53 99 -56q41 -2 83.5 8t88.5 35.5t86.5 78t64.5 126.5q24 72 33 157.5t-1 180t-38 186t-84 175t-132.5 147t-190 101.5t-250.5 40q-144 2 -271 -46.5
t-218.5 -130t-160.5 -188t-105.5 -221.5t-43.5 -229q-8 -125 17 -246t84.5 -227.5t146 -188t211.5 -128.5t272 -47q111 0 222.5 44.5t189.5 120.5zM948 358q96 268 96 383q0 72 -38 113t-107 41q-132 0 -246 -211q-114 -203 -114 -395q0 -90 43 -139q45 -54 116 -54
q158 0 250 262z" />
    <glyph glyph-name="A" unicode="A" horiz-adv-x="1540" 
d="M868 2048l541 -1866q16 -80 75.5 -117.5t131.5 -37.5q9 0 14 -6.5t1.5 -13.5t-15.5 -7h-469q-11 0 -14.5 7t1 13.5t13.5 6.5q70 1 94.5 29t20.5 73l-175 600q-3 7 -8.5 20t-29.5 49t-54 67.5t-84 67.5t-118 58q-62 21 -113.5 32t-79.5 11.5t-47.5 -2t-26.5 -6.5l-6 -4
l-252 -875q-27 -118 111 -120q9 0 13.5 -6.5t1 -13.5t-14.5 -7h-404q-12 0 -15.5 7t1.5 13.5t14 6.5q153 0 207 155l490 1688l4.5 39t-2.5 38t-15.5 38t-37.5 24t-66 12q-9 0 -13.5 6.5t-1 13.5t14.5 7h313zM762 1851l-209 -716q97 7 238 -39q79 -25 133.5 -47.5t69.5 -32.5
l14 -10z" />
    <glyph glyph-name="B" unicode="B" 
d="M315 2056h4q87 38 228 49q102 7 196.5 -17.5t168.5 -77t125 -131.5t67 -179.5t-6 -220.5q-8 -39 -27.5 -83.5t-54.5 -93.5t-79 -91t-106 -75t-131 -46q108 -25 201.5 -80.5t165 -136t104 -193.5t11.5 -240q-4 -27 -12.5 -58t-28 -75.5t-47 -84.5t-72.5 -82t-100.5 -72
t-135.5 -49t-174 -19h-12h-2h-602q-11 0 -14.5 7t1 14.5t13.5 7.5q40 1 70 13t46 28.5t25.5 39.5t12 40t2.5 34v1688q0 23 -5 45t-19.5 49t-48.5 44t-83 18q-9 0 -13.5 7t-1 14t14.5 7h317l2 -2v2zM315 1817v-664q287 -67 454 78q121 105 143 287q21 169 -52 313
q-74 146 -210 187q-26 8 -54 12q-71 8 -137 2q-139 -26 -144 -172v-50v7zM313 1028v-823q0 -116 140 -135q7 0 20.5 -1t20.5 -1q117 -4 210 31.5t150 97.5t89 143.5t34.5 169t-21.5 174.5t-71 158.5t-122 123t-167 66.5q-179 31 -283 -4z" />
    <glyph glyph-name="C" unicode="C" horiz-adv-x="1298" 
d="M1284 1976q17 12 19.5 28.5t-9 22.5t-32.5 -2q-40 -19 -72.5 -21.5t-55.5 7t-53.5 24.5t-61.5 31t-85 27.5t-119 11.5q-68 0 -140.5 -16.5t-150.5 -54.5t-149.5 -95t-136 -143t-112 -191t-75.5 -247t-28 -305q0 -177 31 -328t81.5 -257t119.5 -190t141 -135t150 -84.5
t142 -46t121 -12.5q82 1 149.5 25t108.5 58t70 76t41 73.5t16 56.5q14 89 -12.5 154.5t-77.5 97.5q-22 16 -55 16q-36 0 -63.5 -21.5t-33.5 -64.5q-4 -29 23.5 -58.5t58.5 -29.5q14 0 23 6q12 4 18 4q10 0 20 -12t15.5 -34.5t4.5 -50.5t-16.5 -64.5t-43.5 -71.5
q-72 -92 -228 -101q-56 -4 -111.5 8.5t-114 45t-111 83.5t-99.5 131t-81.5 181t-55.5 239t-23 300q-2 161 16.5 298.5t50 233.5t77 174t90.5 126t98 83t92 51.5t79 25.5t53.5 10t21.5 1q5 0 14 0.5t34.5 -1t49 -6t53 -16.5t51.5 -29.5t38.5 -47.5t19.5 -68
q-14 -135 -37 -166q-12 -18 6 -36q23 -22 51 2q9 7 17 20q10 16 47.5 100.5t46.5 98.5q12 18 23.5 30t18 17t20 13.5t22.5 14.5z" />
    <glyph glyph-name="D" unicode="D" horiz-adv-x="1396" 
d="M152 2050h423q200 0 374 -100q305 -177 375 -602q19 -120 19 -256q0 -201 -31.5 -367t-81.5 -276.5t-120 -194.5t-138.5 -130.5t-146.5 -75.5t-133.5 -38t-109.5 -10h-586v2q-11 0 -14.5 7t1 13.5t13.5 6.5q49 1 83 18t48.5 44.5t19.5 49t5 43.5v1684q0 22 -5 43.5
t-19.5 49t-48.5 44.5t-83 18q-9 0 -13.5 6.5t-1 13.5t14.5 7h156zM315 1851v-1652q0 -16 2 -32t11 -38t23 -38.5t41.5 -28t64.5 -11.5h106q57 0 107.5 9.5t108.5 37.5t105 74.5t92.5 127t76 186.5t49 261t18.5 345q0 193 -29.5 347t-77 246.5t-105 159.5t-115 95t-105 43.5
t-76.5 15.5h-30h-125q-43 0 -73.5 -16.5t-44 -42t-19 -47.5t-5.5 -42z" />
    <glyph glyph-name="E" unicode="E" 
d="M334 899v-700q1 -21 6.5 -41t18.5 -44.5t41.5 -40.5t68.5 -20h291q166 0 211 99q25 55 24 175t-26 253q-3 17 -7.5 39.5t-7 38t-2.5 32.5q0 42 36 63.5t76 12t50 -44.5q6 -30 0 -42.5t-19 -26t-14 -19.5q-19 -92 6.5 -301.5t90.5 -296.5q4 -7 8 -9q3 -2 4 -3
q17 -23 -12 -23l-1162 -2q-12 0 -15.5 7t1.5 13.5t14 6.5q40 1 70 13t45.5 29t24.5 40t11.5 39.5t2.5 33.5v1690q0 17 -2.5 33.5t-11.5 39.5t-24.5 40t-45.5 29t-70 13q-9 0 -14 6.5t-1.5 13.5t15.5 7h1162q26 0 12 -24q-8 -4 -12 -11q-69 -94 -95 -205.5t-8 -189.5
q1 -7 12 -17.5t18 -24.5t3 -34q-8 -29 -44 -37.5t-69.5 8.5t-33.5 50q0 21 9.5 56.5t12.5 57.5q11 58 10.5 114.5t-22.5 105.5q-44 98 -211 98h-291q-40 -4 -68.5 -20t-41.5 -40.5t-18.5 -44.5t-6.5 -41v-636q6 -46 37 -82t98 -43q68 0 160 2q17 0 28.5 1t34 10.5t37 27
t26 54t11.5 87.5q9 12 24.5 17t27 2.5t11.5 -9.5q-14 -89 -14 -227q0 -140 14 -226q0 -7 -11.5 -9.5t-27 2.5t-24.5 18q0 36 -7.5 65.5t-19.5 48t-26.5 32t-29.5 20t-27 10t-20 4.5h-7h-160q-67 -5 -98 -41.5t-37 -81.5z" />
    <glyph glyph-name="F" unicode="F" 
d="M16 2048h1184q27 0 12 -25l-6 -3t-8 -7q-68 -92 -93 -203.5t-9 -191.5q1 -7 12 -17.5t18 -24.5t2 -34q-7 -29 -42.5 -38t-69 8t-33.5 51q0 21 10 56.5t13 57.5q10 57 9 111.5t-24 103.5q-43 95 -211 99h-309q-129 -13 -135 -148v-631q6 -47 36 -82.5t97 -39.5h162
q3 0 9 0.5t22 4.5t31 10.5t33 20t31 31.5t22 47.5t9 65.5q9 12 24.5 16.5t26.5 2t11 -8.5q-12 -91 -12 -227q0 -137 12 -228q0 -6 -11 -8t-26.5 2.5t-24.5 16.5q0 36 -8.5 65.5t-22.5 47.5t-30.5 31.5t-33.5 20.5t-31 10.5t-22 4.5l-9 2h-162q-119 -10 -133 -125v-717
q0 -154 153 -156q9 0 14 -6.5t1.5 -13t-15.5 -6.5h-473q-11 0 -14.5 6.5t1 13t13.5 6.5q40 1 70 13t46 29.5t25.5 40.5t12 39.5t2.5 33.5v1690q0 22 -5 43.5t-19.5 49t-48.5 44.5t-83 18q-9 0 -13.5 6.5t-1 13.5t14.5 7z" />
    <glyph glyph-name="G" unicode="G" horiz-adv-x="1462" 
d="M1280 840v-774q0 -45 -4 -55.5t-21 -10.5h-8q-23 0 -41 17.5t-26 33.5q-58 102 -150 31q-57 -45 -128 -63t-134.5 -11t-106.5 17.5t-71 23.5q-68 27 -130 64t-129 95t-121 139t-98 183.5t-68 242t-24 302.5q0 563 337 814q188 140 443 162q40 4 81 3q77 0 138 -16
t95 -34.5t65.5 -34.5t67.5 -15.5t84 22.5q20 7 31.5 1t9 -22.5t-19.5 -29.5q-7 -5 -21.5 -14.5t-20 -14t-16.5 -17t-24 -30.5q-11 -15 -49 -100t-47 -100q-29 -43 -60 -27q-20 11 -18 31l4 10q10 15 19.5 57t13.5 76l4 35q-7 53 -36.5 90t-66 52t-72.5 23t-60 8l-25 -1
q-218 0 -380 -147q-261 -236 -268 -783q-2 -163 16.5 -302.5t51.5 -239.5t79 -180t96 -131t107 -85t107 -49t100 -18q79 0 141.5 27t99 67.5t60.5 91.5t32.5 93.5t8.5 80.5l2 418q0 62 -39 79.5t-77.5 -1.5t-38.5 -45q0 -5 8 -17q10 -10 10 -20q7 -34 -12 -64.5t-59 -36.5
q-48 -5 -80 33t-19 105q27 133 250 133h209h92h23q51 4 55 -25q4 -21 -15 -30q-6 -3 -12 -3q-41 0 -70.5 -8.5t-43.5 -19t-21.5 -28.5t-8.5 -29t-1 -29z" />
    <glyph glyph-name="H" unicode="H" horiz-adv-x="1361" 
d="M1180 182v1690q0 20 8 43.5t26 50t55 44t87 18.5q9 0 13.5 6.5t1 13t-14.5 6.5h-504q-11 0 -14 -6.5t1.5 -13t12.5 -6.5q50 -1 85.5 -18.5t51 -44.5t21.5 -49.5t6 -43.5v-658q0 -32 -7.5 -56t-18.5 -35.5t-25 -18t-24.5 -7.5t-20.5 -1h-11h-503h-4q-5 -1 -9.5 -1t-12 1
t-14 2.5t-15 5.5t-15.5 9.5t-13.5 14t-11.5 19.5v725q0 23 5 44t19 49t48 45t84 18q9 0 13.5 6.5t1 13t-14.5 6.5h-494q-11 0 -14 -6.5t1.5 -13t12.5 -6.5q50 -1 87.5 -18.5t55.5 -44t26 -50t8 -43.5v-1690q0 -20 -8 -43.5t-26 -49.5t-55.5 -43.5t-87.5 -18.5
q-8 0 -12.5 -6.5t-1.5 -13.5t14 -7h494q11 0 14.5 7t-1 13.5t-13.5 6.5q-50 1 -84 18t-48 44.5t-19 48.5t-5 44v795q8 18 21.5 28.5t24.5 12.5t25 2.5t17 1.5h516q3 -1 18.5 -1.5t27.5 -4.5t25.5 -14t21.5 -34.5t8 -62.5v-723q0 -23 -5 -44t-19 -48.5t-48 -44.5t-84 -18
q-8 0 -12.5 -6.5t-1.5 -13.5t14 -7h496q11 0 14.5 7t-1 13.5t-13.5 6.5q-50 1 -87 18.5t-55 43.5t-26 49.5t-8 43.5z" />
    <glyph glyph-name="I" unicode="I" horiz-adv-x="518" 
d="M334 1872v-1690q0 -17 2.5 -33.5t12 -39t25 -39.5t45.5 -29.5t70 -13.5q9 0 13.5 -6.5t1 -13.5t-14.5 -7h-473q-11 0 -14.5 7t1 13.5t13.5 6.5q49 1 83 18.5t48.5 44.5t19.5 48.5t5 43.5v1690q0 17 -2.5 33.5t-12 39.5t-25.5 40.5t-46 29.5t-70 13q-9 0 -13.5 6.5t-1 13
t14.5 6.5h473q11 0 14.5 -6.5t-1 -13t-13.5 -6.5q-40 -1 -70 -13t-45.5 -29t-25 -40.5t-12 -40t-2.5 -33.5z" />
    <glyph glyph-name="J" unicode="J" horiz-adv-x="1026" 
d="M377 1995h227q44 -4 73.5 -21.5t42 -44t17 -47.5t4.5 -43v-1337q0 -109 -26.5 -197t-70 -140t-93.5 -79t-102 -27q-38 0 -56 2q-152 9 -227 99q-28 36 -43.5 73t-17 65t4 50.5t15.5 34.5t20 12q7 0 19 -6q9 -6 22 -6q31 0 58 30.5t24 59.5q-6 42 -33.5 63t-62.5 21
q-30 0 -55 -14q-51 -33 -78 -98t-14 -154q4 -25 16.5 -55t42 -70.5t70.5 -74t108.5 -59t149.5 -30.5q10 -2 37 -2q62 0 124.5 16.5t122 54t105.5 91t74 133.5t28 176v1395q0 20 8 43.5t26 49.5t55 43.5t87 18.5q8 0 12.5 6.5t1.5 13.5t-14 7h-940q-11 0 -14.5 -7t1 -13.5
t13.5 -6.5q25 0 38.5 -32.5t14.5 -65.5l1 -33q0 -68 -5 -104q-12 -28 18 -36q32 -8 57 13q15 13 16 33q0 31 2.5 57.5t7.5 45t10 33.5t13.5 24.5t14 16.5t15 11t13.5 5.5t13 3.5z" />
    <glyph glyph-name="K" unicode="K" horiz-adv-x="1337" 
d="M1010 1933l-482 -694q105 -197 253.5 -472t244.5 -451l96 -177q24 -43 81.5 -77.5t115.5 -34.5q9 0 13.5 -6.5t1 -13.5t-14.5 -7h-463q-11 0 -14.5 7t1 13.5t13.5 6.5q36 0 55 9.5t22 29t-1.5 38.5t-16.5 48l-501 919l-140 -201v-688q0 -17 2.5 -33.5t11.5 -39.5
t24.5 -40t45.5 -29t70 -13q9 0 14 -6.5t1.5 -13.5t-15.5 -7h-473q-12 0 -15.5 7t1 13.5t14.5 6.5q49 1 83 18t48.5 44.5t19.5 49t5 43.5v1690q0 17 -2.5 33.5t-12 39.5t-25.5 40.5t-46 29.5t-70 13q-10 0 -14.5 6.5t-1 13t15.5 6.5h473q12 0 15.5 -6.5t-1.5 -13t-14 -6.5
q-40 -1 -70 -13.5t-45.5 -29t-24.5 -40t-11.5 -40t-2.5 -33.5v-830l594 881q26 34 3 66t-83 32q-9 0 -13.5 6.5t-1 13.5t14.5 7h379q11 0 14.5 -7t-1 -13.5t-13.5 -6.5q-56 0 -88 -18t-69 -70z" />
    <glyph glyph-name="L" unicode="L" horiz-adv-x="1232" 
d="M334 1864v-1657q0 -21 4.5 -41.5t16.5 -46.5t41.5 -44t72.5 -22h291q166 0 211 99q24 57 23 175t-25 253q-11 91 -11 110q1 47 35 68t72 9.5t49 -46.5q6 -30 0 -42.5t-19 -26t-14 -19.5q-19 -92 6.5 -301.5t90.5 -296.5q4 -7 8 -9q3 -2 4 -3q17 -23 -12 -23h-1162
q-11 0 -14.5 7t1 13.5t13.5 6.5q40 1 70 13t46 28.5t25.5 39.5t12 40t2.5 34v1682q0 22 -5 43.5t-19.5 49t-48.5 44.5t-83 18q-9 0 -13.5 6.5t-1 13.5t14.5 7h156h162h155q11 0 14 -7t-1.5 -13.5t-12.5 -6.5q-49 -1 -83 -18t-48 -44.5t-19 -49t-5 -43.5z" />
    <glyph glyph-name="M" unicode="M" horiz-adv-x="1560" 
d="M1376 184v1688q0 17 2.5 33.5t12 39.5t25.5 40.5t46 29.5t70 13q9 0 14 6.5t1.5 13t-15.5 6.5h-315l-414 -1276l-397 1276h-371q-9 0 -12 -6.5t0.5 -13t11.5 -6.5q46 0 79 -14t47.5 -34t22.5 -40t8 -34l1 -14v-1710q0 -22 -5 -43.5t-19.5 -49t-48.5 -44.5t-83 -18
q-13 0 -14 -13.5t14 -13.5h426q11 0 14.5 7t-1 13.5t-13.5 6.5q-50 1 -84 18t-48 44.5t-19 49.5t-5 45v1553l453 -1368l454 1347v-1532q0 -18 -2.5 -34.5t-12 -40t-25 -40.5t-45.5 -29t-70 -13q-9 0 -14 -6.5t-1.5 -13.5t15.5 -7h473q12 0 15.5 7t-1.5 13.5t-14 6.5
q-49 1 -83 18t-48.5 44.5t-19.5 49.5t-5 45z" />
    <glyph glyph-name="N" unicode="N" horiz-adv-x="1372" 
d="M1112 455l-782 1589h-316q-14 0 -13 -13.5t13 -13.5q47 0 80.5 -18t48 -43.5t22 -51t7.5 -43.5v-18v-1661q0 -23 -5 -44t-19 -48.5t-48 -44.5t-84 -18q-12 0 -13 -13.5t13 -13.5h426q11 0 14.5 7t-1 13.5t-13.5 6.5q-49 1 -83 18t-48 44.5t-19 49t-5 43.5v1508l860 -1688
v-2h82v1866q7 153 157 155q9 0 13.5 7.5t1 14.5t-14.5 7h-430q-11 0 -14.5 -7t1 -14.5t13.5 -7.5q41 -1 71 -13t46 -28.5t25 -39.5t11.5 -39.5t2.5 -34.5v-1411z" />
    <glyph glyph-name="O" unicode="O" horiz-adv-x="1607" 
d="M1532 1057v-15q0 -32 -1 -64t-8 -108.5t-19 -144.5t-38 -159.5t-61 -166t-92 -151.5t-127 -129.5t-170 -85.5t-217 -33h-25q-412 0 -600 391q-120 248 -132 599q-1 31 -1 67q0 169 26.5 311t70.5 242t105.5 178.5t126.5 126.5t139 79t138 42.5t127 11.5h25
q63 0 126 -11.5t134.5 -42.5t135.5 -79t124 -126.5t104.5 -178.5t74 -242t34.5 -311zM799 59q53 1 101.5 13.5t101 43.5t96.5 79.5t84 126.5t67 179t42.5 243t13.5 313q-2 163 -19 297t-44 228.5t-67 166.5t-82.5 116.5t-94 72.5t-99 39t-100.5 12h-25q-53 -1 -100.5 -12
t-99 -39t-94 -72.5t-82.5 -116.5t-67 -166.5t-44 -228.5t-19 -297q2 -171 19 -313t44.5 -243t66.5 -179t82 -126.5t94.5 -79.5t99 -43.5t100.5 -13.5h8h17z" />
    <glyph glyph-name="P" unicode="P" horiz-adv-x="1187" 
d="M342 2046h-328q-14 0 -13 -13.5t13 -13.5q49 -1 83 -18t48.5 -44.5t19.5 -49t5 -43.5v-1682q0 -22 -5 -43.5t-19.5 -49t-48.5 -44.5t-83 -18q-12 0 -13 -13.5t13 -13.5h473q11 0 14 7t-1.5 13.5t-12.5 6.5q-49 1 -83 18t-48 44.5t-19 49t-5 43.5v1651q0 35 5.5 61.5
t20.5 54t47.5 46t81.5 24.5h5q60 6 120 -2q102 -13 182 -79.5t120 -162t55 -207t-15 -218t-87.5 -190.5t-165 -129t-244.5 -30q-39 5 -51 -22q-10 -22 7 -32q3 -2 7 -3q110 -14 141 -14q132 0 239 37t175.5 96.5t115 137.5t66 156t19.5 156q0 151 -47.5 268.5t-131 188
t-194 102.5t-240.5 23q-130 -8 -221 -49z" />
    <glyph glyph-name="Q" unicode="Q" horiz-adv-x="1517" 
d="M1470 1161v-14q1 -12 1.5 -32.5t-3 -84t-12 -125t-30.5 -145t-54 -155t-87.5 -145t-126 -125t-173.5 -84t-227 -32.5h-25h-22v-22q2 -63 40.5 -93t80 -23t55.5 36q5 13 5 28.5t-2 24.5l-3 10q5 0 13.5 -2t29 -11.5t35 -24.5t23.5 -46.5t3 -72.5q-12 -83 -98.5 -107.5
t-183.5 27.5q-95 52 -127 184q-9 52 0 104q-99 18 -182 60.5t-140 100t-102.5 126.5t-72 141t-45.5 142.5t-26.5 132.5t-11 110t-2.5 76v27v14q0 159 26.5 291t70.5 224t105.5 163t126.5 113.5t139.5 69.5t137.5 36.5t127 9.5h25q63 0 125 -9.5t134.5 -36.5t135 -69.5
t122.5 -113.5t102 -163t67.5 -224t25.5 -291zM227 1161q1 -145 16 -267t41.5 -211.5t60 -159t76 -115.5t86 -74.5t93.5 -42.5q19 42 47.5 77.5t74 71t105.5 55.5t142 30.5t182 -3.5q107 223 113 639q-2 153 -19 277.5t-44 211.5t-67 153t-82 105t-94.5 63.5t-99 33.5
t-100.5 10h-25q-54 -1 -101 -10t-99.5 -33.5t-95 -63.5t-82 -105t-66.5 -153t-44 -211.5t-18 -277.5zM741 272h17q222 4 346 172q-119 10 -231 -35t-148 -137h8h8z" />
    <glyph glyph-name="R" unicode="R" horiz-adv-x="1290" 
d="M344 2054h-328q-12 0 -15.5 -6.5t1.5 -13t14 -6.5q49 -1 83 -18t47.5 -44.5t18.5 -49t5 -44.5v-1690q0 -17 -2.5 -33.5t-11.5 -39.5t-24.5 -40t-45.5 -29t-70 -13q-9 0 -14 -6.5t-1.5 -13.5t15.5 -7h473q11 0 14.5 7t-1 13.5t-13.5 6.5q-49 1 -83 18t-48 44.5t-19 49
t-5 43.5v871q119 -29 209 -29q35 -21 43 -49q77 -258 119 -364q101 -254 294 -505q14 -25 14.5 -42.5t-17.5 -28t-58 -8.5q-8 0 -12.5 -6.5t-1.5 -13.5t14 -7h383q11 0 14 7t-1.5 13.5t-12.5 6.5q-64 0 -131 57t-122 146t-105 198t-84 214.5t-54 193t-20 135.5q-46 7 -69 12
t-51.5 16.5t-51.5 30.5q93 12 175 51t135.5 88.5t94.5 106.5t61 101.5t25 76.5q25 156 -10 285t-114.5 211t-192.5 122.5t-242 30.5q-130 -8 -221 -49zM334 1114v723q0 21 3.5 43t16 49.5t32 48.5t54 36t80.5 16q33 2 96 -5q152 -20 242 -166q84 -137 78 -316
q-7 -189 -114 -313q-137 -159 -385 -134q-50 5 -103 18z" />
    <glyph glyph-name="S" unicode="S" horiz-adv-x="1093" 
d="M887 821q55 -64 90.5 -131.5t48.5 -131t9.5 -126t-25 -117t-55.5 -105t-82.5 -89t-105.5 -68.5t-124 -44t-139 -16.5t-150 15.5q-70 15 -127 48t-91 74t-58.5 83t-35 81.5t-15 61.5t-4.5 31q-7 103 24 188.5t84.5 134.5t120.5 68.5t131 1.5q80 -25 104 -82q3 -8 -9 -9
q-10 1 -19 7q-36 49 -103 49q-102 0 -165 -107q-62 -106 -51 -246q13 -160 116 -254q81 -74 205 -85q74 -1 134.5 13t99 37t68 55.5t44 63t23.5 66t11 58.5t1 45q-2 80 -31 159.5t-77 149t-109.5 139t-129 135t-135 130.5t-128 132.5t-107.5 134.5t-74.5 143t-27.5 151
q-1 102 31 179.5t86.5 121t120 64t138.5 18.5q27 -1 114.5 -1t133.5 -1q128 10 146 25q7 5 13.5 4.5t10.5 -3.5l4 -4q-2 -4 -5 -10.5t-12 -30t-15.5 -48t-16 -64.5t-13 -79.5t-6 -92t4.5 -103.5q0 -52 -70 -18l-16 8q3 9 6 25.5t6 61.5t-2.5 84.5t-29.5 84t-66 70.5
q-49 27 -111.5 33t-118.5 -7t-102 -44t-64 -74q-20 -55 -19.5 -118t41.5 -150.5t120 -182.5q70 -85 239.5 -254t315.5 -338z" />
    <glyph glyph-name="T" unicode="T" horiz-adv-x="1628" 
d="M1556 2048h-1560q-27 0 -12 -25l6 -3t8 -7q65 -91 88 -212t6 -204q-1 -5 -14 -18t-19 -26t0 -44q11 -34 49 -45.5t72 9.5t35 69q0 54 -10 109q-25 145 -25 167q0 27 23 78q46 99 209 99h137q128 -12 141 -156v-1657q0 -22 -5.5 -44t-21 -49t-50 -44t-83.5 -18
q-9 0 -13.5 -6.5t-1 -13.5t14.5 -7h474q12 0 15.5 7t-1.5 13.5t-14 6.5q-78 1 -116 43.5t-38 89.5v1679q-1 20 3 41.5t16.5 47.5t42 44.5t73.5 22.5h154q163 0 211 -99q6 -14 9.5 -21.5t7 -19t4.5 -16t1 -17.5t-0.5 -19.5t-3 -25.5t-4.5 -31.5t-7 -42t-9 -52.5
q-11 -60 -11 -109q1 -48 35 -69t72 -9.5t49 45.5q6 31 0 44t-19 26t-14 18q-19 82 4 203.5t90 212.5q4 5 9 7t6 3q15 25 -13 25z" />
    <glyph glyph-name="U" unicode="U" horiz-adv-x="1331" 
d="M1303 2048h-455q-9 0 -12.5 -6t0.5 -12.5t12 -6.5q48 -1 80.5 -18t46 -43t18 -46t4.5 -42v-1368q0 -18 -1 -38t-8.5 -68.5t-21 -90t-42 -92t-67.5 -85.5t-102 -59t-141 -24q-81 0 -143 23t-97.5 61t-59.5 83t-33 94t-12 88t-3.5 71t-1.5 37v1386q2 22 9 41.5t22 41
t45.5 34.5t71.5 14q9 0 13.5 6.5t1 12.5t-14.5 6h-459q-9 0 -12.5 -6t0.5 -12.5t12 -6.5q47 -1 79.5 -18t46 -43t18.5 -46.5t5 -41.5v-1299q0 -119 3 -154q41 -421 526 -421q102 0 184 22.5t136 57t93.5 87.5t60 102.5t32.5 114.5t15 111.5t3 104.5v1274q0 21 4.5 41.5
t18 46.5t46 43t79.5 18q9 0 13.5 6.5t1 12.5t-14.5 6z" />
    <glyph glyph-name="V" unicode="V" horiz-adv-x="1746" 
d="M893 375l467 1505q18 49 -6.5 95t-96.5 46q-9 0 -14 6.5t-1.5 13.5t15.5 7h433q21 0 19.5 -16.5t-19.5 -16.5q-47 0 -86 -16t-60.5 -39.5t-37 -46.5t-20.5 -39l-5 -16l-586 -1835q-3 -11 -10.5 -18t-17 -3.5t-15.5 21.5l-633 1828q-3 7 -8 18t-25 40t-43 50.5t-62 39
t-83 16.5q-10 0 -15 8.5t-1.5 16.5t16.5 8h487q11 0 14.5 -7t-1 -13.5t-13.5 -6.5q-130 0 -94 -157z" />
    <glyph glyph-name="W" unicode="W" horiz-adv-x="2125" 
d="M2179 2048h-424q-13 0 -12 -14.5t12 -14.5q63 0 79 -31t11 -102l-368 -1519l-359 1497q-4 40 -5.5 74.5t20 57.5t69.5 23q12 0 12.5 14.5t-12.5 14.5h-393q-17 0 -15.5 -18.5t15.5 -18.5q32 1 56 -5t37.5 -14.5t25 -27.5t16.5 -33t13 -42t14 -44l106 -491l-315 -987
l-412 1497q-5 40 -7 74.5t18.5 57.5t66.5 23q12 0 13 14.5t-13 14.5h-426q-18 0 -17 -18.5t17 -18.5q36 2 68.5 -14.5t53.5 -41.5t36.5 -50t22.5 -43l7 -17l504 -1845h74l362 1139l281 -1139h76l477 1855l5.5 16.5t20 37.5t38.5 47.5t62 37.5t89 17q14 0 15.5 18.5
t-15.5 18.5z" />
    <glyph glyph-name="X" unicode="X" horiz-adv-x="1327" 
d="M1141 182l8 -14q43 -75 88 -108t102 -33q9 0 13.5 -6.5t1 -13.5t-14.5 -7h-432q-11 0 -14.5 7t1 13.5t13.5 6.5q50 0 73.5 19t21 48t-12.5 64l-297 686l-305 -703q-27 -44 -1.5 -79t91.5 -35q9 0 13.5 -6.5t1 -13.5t-14.5 -7h-461q-12 0 -15.5 7t1.5 13.5t14 6.5
q55 1 93 16t59 37t43 61l393 883l-385 883q-32 60 -72.5 86.5t-121.5 27.5q-9 0 -14 6.5t-1.5 13.5t15.5 7h473q11 0 14.5 -7t-1 -13.5t-13.5 -6.5q-134 0 -82 -131l276 -686l297 686q52 131 -82 131q-9 0 -13.5 6.5t-1 13.5t14.5 7h447q11 0 14.5 -7t-1 -13.5t-13.5 -6.5
q-112 0 -191 -141l-8 -14l-381 -842z" />
    <glyph glyph-name="Y" unicode="Y" horiz-adv-x="1294" 
d="M1311 2048h-371q-11 0 -14.5 -7t1 -13.5t13.5 -6.5q41 0 65 -12t30 -29t6 -34t-5 -29l-4 -12l-344 -824l-344 811q-45 129 84 129q8 0 12.5 6.5t1.5 13.5t-14 7h-434q-14 0 -13 -13.5t13 -13.5q33 -1 56 -6.5t37.5 -19t22 -24t19 -33t18.5 -33.5l428 -949v-774
q0 -22 -5 -43.5t-19 -49t-48 -44.5t-83 -18q-9 0 -13.5 -6.5t-1 -13.5t14.5 -7h477q11 0 14.5 7t-1 13.5t-13.5 6.5q-49 1 -83 18t-48.5 44.5t-19.5 49t-5 43.5v774l406 973q1 4 3.5 10t14.5 22t28 28t47.5 22t70.5 10q8 0 12.5 6.5t1.5 13.5t-14 7z" />
    <glyph glyph-name="Z" unicode="Z" horiz-adv-x="1396" 
d="M49 57l903 1784q22 54 -16.5 93.5t-130.5 39.5h-152h-178q-90 -7 -108 -57q-5 -9 -3 -30.5t5 -35t9.5 -42.5t10.5 -54q12 -66 12 -108q-1 -48 -35.5 -69.5t-72.5 -10t-49 46.5q-6 31 -0.5 43t19.5 25.5t16 19.5q15 76 -6 146.5t-91 164.5q-3 5 -4.5 6.5t-4.5 3l-5 2.5
q-12 25 12 25h1172q12 0 15.5 -7t-1.5 -14.5t-14 -7.5q-61 0 -112 -43.5t-110 -142.5l-813 -1612q-28 -57 2 -102t123 -45h377q7 0 37 -1.5t48.5 -1.5t50.5 5.5t52.5 16.5t44.5 35t37 58t19.5 87.5t1.5 121.5q-1 11 -5.5 49.5t-4.5 59.5q1 48 35 69.5t71.5 10t48.5 -46.5
q6 -30 0.5 -42.5t-18.5 -26t-14 -19.5q-19 -82 4 -203t90 -211q5 -6 9 -8.5t5 -3.5q4 -5 5 -10t-2.5 -10t-14.5 -5l-1233 2q-33 -1 -42 17.5t5 37.5z" />
    <glyph glyph-name="bracketleft" unicode="[" horiz-adv-x="677" 
d="M377 14v2011h188v84h-340v-2177h340v82h-188z" />
    <glyph glyph-name="backslash" unicode="\" horiz-adv-x="727" 
d="M526 0h119l-504 2048h-121z" />
    <glyph glyph-name="bracketright" unicode="]" horiz-adv-x="555" 
d="M0 -68h340v2177h-340v-84h188v-2011h-188v-82z" />
    <glyph glyph-name="asciicircum" unicode="^" horiz-adv-x="1155" 
d="M508 1618l-508 -907h125l410 747l430 -747h120l-526 907h-51z" />
    <glyph glyph-name="underscore" unicode="_" 
d="M123 70v-70h891v70h-891z" />
    <glyph glyph-name="grave" unicode="`" horiz-adv-x="354" 
d="M150 2437h-115q-26 0 -33 -14.5t10 -36.5l219 -256q20 -23 37 -23q15 0 2 47l-75 248q-8 35 -45 35z" />
    <glyph glyph-name="a" unicode="a" horiz-adv-x="1212" 
d="M684 1696l449 -1542q12 -66 62 -97.5t108 -31.5q8 0 11.5 -5t0.5 -10.5t-12 -5.5h-418q-13 0 -12 10.5t12 10.5q57 1 76.5 24t19.5 62l-145 495q-2 6 -7 17t-25.5 41t-45.5 56t-69.5 55.5t-96.5 47.5q-52 17 -94 26t-65 9.5t-39 -1.5t-22 -5l-5 -4l-207 -721
q-4 -24 -3 -46t24.5 -38.5t68.5 -17.5q11 0 12 -10.5t-12 -10.5h-346q-9 0 -12 5t1 10.5t11 5.5q128 0 172 129l403 1394q2 19 2.5 23.5t1 23t-2.5 25t-9.5 20t-17 19t-28.5 11t-42 5.5q-11 0 -12 10.5t12 10.5h301zM567 1534l-174 -592q78 7 199 -33q64 -21 108.5 -39
t57.5 -26l12 -8z" />
    <glyph glyph-name="b" unicode="b" horiz-adv-x="1128" 
d="M338 1700h4q76 30 188 41q105 7 202.5 -29.5t166.5 -104t100 -169.5t7 -215q-11 -55 -53.5 -120t-122.5 -125t-173 -77q89 -21 169 -66.5t143 -112t93 -159.5t13 -198q-4 -32 -18.5 -72t-51.5 -94t-88.5 -96.5t-138.5 -72.5t-194 -30h-9h-2h-528q-13 0 -12 11.5t12 11.5
q41 1 69.5 15t40.5 36.5t16.5 40.5t4.5 37v1394q0 19 -4.5 37t-16.5 40.5t-40.5 36.5t-69.5 15q-11 0 -12 12.5t12 12.5h291l2 -2v2zM338 1499v-547q246 -57 384 74q101 95 112 253q10 149 -63 264q-74 118 -200 134q-57 5 -114 2q-114 -23 -119 -143v-41v4zM336 850v-682
q0 -94 117 -111q6 0 16 -1t16 -1q97 -3 174 26.5t124 80.5t73.5 118.5t28.5 140t-18 144.5t-58.5 131.5t-100 102t-137.5 55.5q-149 23 -235 -4z" />
    <glyph glyph-name="c" unicode="c" horiz-adv-x="1126" 
d="M1087 1634q15 10 17 23t-8 18t-27 -2q-32 -15 -58.5 -17t-46 6t-44.5 20.5l-51 25.5t-70.5 23t-98.5 10q-57 0 -118.5 -14t-130 -46t-131.5 -79t-120.5 -118t-100.5 -158t-68 -204.5t-25 -251.5q0 -146 27.5 -271t73 -212.5t106.5 -157t124.5 -111.5t131.5 -70t123 -38
t102 -10q68 0 124.5 20t90 48.5t58 63.5t34.5 61.5t13 46.5q11 72 -11 125.5t-65 80.5q-19 15 -45 15q-29 0 -51.5 -18t-28.5 -54q-3 -25 20 -49.5t48 -24.5q11 0 18 7q12 4 16 4q15 0 26.5 -26t2.5 -74t-47 -95q-60 -75 -186 -82q-66 -4 -130.5 17t-130 79.5t-115.5 149
t-82.5 237.5t-35.5 332q-2 133 14 246.5t42 193t63.5 144t74.5 104t80.5 69t75.5 43t65 21t44.5 8.5t17.5 1q2 -2 21.5 0.5t51 -5t62 -18.5t54.5 -41.5t28 -73.5q-14 -112 -32 -139q-9 -15 6 -30q20 -19 45 7q5 5 10 13q9 14 40.5 84t37.5 80q10 15 19.5 25.5t14.5 14
t17 11.5z" />
    <glyph glyph-name="d" unicode="d" 
d="M166 1694h381q171 0 323 -83q279 -152 334 -527q13 -87 13 -185q0 -166 -28 -303t-72.5 -228t-107 -160.5t-122.5 -107.5t-128 -61.5t-116 -30.5t-94 -8h-514q-13 0 -12 11.5t12 11.5q41 1 69.5 15.5t40.5 37t16.5 40.5t4.5 36v1390q0 14 -2 28t-10.5 33t-22 33.5
t-38.5 25t-58 11.5q-11 0 -12 10.5t12 10.5h131zM330 1530v-1366q0 -18 4 -35.5t14.5 -39t36 -35t61.5 -13.5h89q48 0 89.5 7.5t90 31t87.5 61.5t76.5 104.5t62.5 154.5t40.5 216t15.5 285q0 125 -15.5 231t-41.5 179t-59.5 131.5t-70.5 93.5t-74 60t-70.5 35.5t-59.5 16
t-42 5.5h-15h-103q-29 0 -51 -9.5t-34 -23.5t-19.5 -32t-9.5 -31.5t-2 -26.5z" />
    <glyph glyph-name="e" unicode="e" horiz-adv-x="1228" 
d="M365 729v-565q1 -17 5.5 -33.5t15.5 -36.5t34.5 -33.5t56.5 -17.5h242q137 0 174 82q20 45 19 144t-21 210q-2 14 -6 32t-6 31t-2 29q0 35 30.5 52t63.5 8.5t41 -37.5q6 -19 0 -33t-17 -24t-12 -15q-15 -76 5.5 -249t74.5 -244q3 -4 10 -11q3 -3 4.5 -7t-2 -7.5
t-12.5 -3.5l-989 -2q-9 0 -12.5 5.5t0.5 11t12 5.5q40 0 67.5 14t39.5 36.5t16 40.5t4 36v1397q0 14 -2 28t-10 33t-20.5 33.5t-37 24.5t-57.5 10q-8 0 -12 5.5t-0.5 11.5t12.5 6h989q13 0 14.5 -7.5t-4.5 -13.5l-3 -1q-3 -2 -7 -7q-57 -77 -78 -169t-6 -159q0 -3 16.5 -21
t10.5 -40q-6 -24 -36 -31t-57.5 6.5t-27.5 40.5q0 18 8 49.5t10 47.5q9 47 8.5 93.5t-18.5 86.5q-37 82 -174 82h-242q-33 -4 -56.5 -17.5t-34.5 -33.5t-15.5 -36.5t-5.5 -33.5v-528q6 -38 31.5 -68t80.5 -35q55 0 131 2q15 0 24.5 1t28.5 9t31 22.5t21.5 44.5t9.5 73
q7 9 19.5 13.5t22 2.5t9.5 -8q-10 -76 -10 -201q0 -110 10 -186q0 -5 -9.5 -7t-22 2t-19.5 15q0 41 -12 71t-28.5 44t-33.5 22t-29 9l-12 1h-131q-97 -7 -112 -102z" />
    <glyph glyph-name="f" unicode="f" horiz-adv-x="1024" 
d="M-2 1698h1003q12 0 14.5 -7t-3.5 -12q-1 -2 -5 -4t-8 -6q-56 -82 -76 -176t-5 -160q0 -5 15.5 -23.5t8.5 -39.5q-5 -24 -34.5 -31t-57 6t-27.5 41q0 18 8.5 48.5t10.5 47.5q8 46 7 92t-20 85q-21 47 -65.5 63t-108.5 18h-256q-106 -9 -112 -120v-500q14 -97 110 -102h133
q5 0 14 1t32 9t40 22t31.5 44t14.5 71q7 9 19.5 13t22 2.5t9.5 -5.5q-11 -87 -11 -198q0 -105 11 -189q0 -5 -9.5 -7t-22 2t-19.5 13q0 41 -13.5 71t-33 44.5t-39 23t-32.5 9.5l-14 2h-133q-96 -5 -110 -103v-591q0 -15 1.5 -28t9 -32.5t20.5 -33.5t38.5 -24t59.5 -11
q11 0 12 -10.5t-12 -10.5h-418q-8 0 -11.5 5t0 10.5t11.5 5.5q40 1 68 15.5t40 37t16.5 40.5t4.5 36v1396q0 18 -4.5 36t-16.5 40.5t-40 37t-68 15.5q-8 0 -11.5 5.5t0 10.5t11.5 5z" />
    <glyph glyph-name="g" unicode="g" 
d="M1122 709v-641q0 -38 -2.5 -46t-15.5 -8h-8q-25 0 -56 41q-21 37 -49 46.5t-47.5 2.5t-38.5 -22q-47 -38 -105.5 -53t-111.5 -8.5t-87 15t-60 19.5q-58 23 -110.5 53.5t-112 78.5t-107.5 115t-88 151.5t-62 200t-22 249.5t25.5 247t65 191t97 141t113.5 101t122.5 65.5
t115 39.5t100.5 18t70 6h32q64 0 115 -13t79 -28.5t54.5 -28.5t56 -12.5t68.5 19.5q16 5 25.5 0t7.5 -18.5t-17 -24.5q-5 -4 -17 -12t-16.5 -12t-13 -14.5t-18.5 -25.5q-10 -13 -42 -83.5t-40 -82.5q-25 -36 -51 -20q-18 11 -12 29l2 4q9 12 17 46.5t12 63.5l3 29
q-6 44 -30 74.5t-55 43t-61 18.5t-51 6l-20 -1q-11 1 -30 0.5t-73 -12.5t-104 -36t-111 -80.5t-105 -135t-75.5 -209.5t-33.5 -295q-2 -135 13.5 -250t42.5 -198t65 -149t79.5 -108t88 -70.5t87.5 -41t82 -14.5q65 0 117 22.5t82 56t50 75.5t27 77t7 66l2 346
q0 52 -32.5 66.5t-64.5 -2t-32 -38.5q0 -4 8 -12q8 -12 8 -16q5 -29 -10.5 -54.5t-48.5 -29.5q-40 -3 -65.5 27.5t-14.5 84.5q20 111 205 111h184h76h19q44 3 48 -21q2 -17 -14 -24l-10 -2q-43 0 -69.5 -9t-36.5 -26t-12.5 -28.5t-2.5 -30.5z" />
    <glyph glyph-name="h" unicode="h" horiz-adv-x="1294" 
d="M1116 150v1396q0 17 6.5 36t21.5 41t45.5 36.5t72.5 15.5q11 0 12 11.5t-12 11.5h-445q-13 0 -11.5 -11.5t11.5 -11.5q42 -1 72 -15.5t42.5 -36.5t17.5 -40.5t5 -36.5v-542q0 -27 -6 -46.5t-15 -29t-20.5 -15.5t-20 -7t-17 -1h-9.5h-417q-59 0 -78 41v600q0 14 2 27.5
t10 33t21.5 33.5t38.5 24t59 11q11 0 12 11.5t-12 11.5h-436q-13 0 -11.5 -11.5t11.5 -11.5q42 -1 73 -15.5t46 -36.5t21.5 -41.5t6.5 -35.5v-1396q0 -13 -3.5 -28t-14 -33t-26 -33t-42.5 -25t-61 -11q-6 0 -9.5 -5t-1 -10t10.5 -5h436q13 0 12 10t-12 10q-42 1 -70.5 15.5
t-40.5 37.5t-16 41t-4 36v649q8 20 21.5 28t33 8.5t20.5 0.5h426q2 0 15 -0.5t22 -3.5t20.5 -11.5t18 -29.5t6.5 -52v-589q0 -19 -4 -36.5t-15.5 -40.5t-39.5 -37.5t-70 -15.5q-6 0 -9.5 -5t-1 -10t10.5 -5h437q13 0 12 10t-12 10q-42 1 -72.5 15.5t-45.5 36.5t-21.5 41.5
t-6.5 36.5z" />
    <glyph glyph-name="i" unicode="i" horiz-adv-x="446" 
d="M283 1546v-1396q0 -18 4.5 -36t16.5 -40.5t40.5 -37.5t69.5 -16q11 0 12 -10t-12 -10h-422q-8 0 -11.5 5t0 10t11.5 5q40 1 68 16t40 37.5t16.5 40.5t4.5 36v1396q0 18 -4.5 36t-16.5 40.5t-40 37t-68 15.5q-8 0 -11.5 5.5t0 11.5t11.5 6h422q13 0 12 -11.5t-12 -11.5
q-41 -1 -69.5 -15.5t-40.5 -37t-16.5 -40.5t-4.5 -36z" />
    <glyph glyph-name="j" unicode="j" horiz-adv-x="819" 
d="M254 1634h184q36 -4 61 -18.5t35.5 -36.5t14.5 -39t4 -35v-1091q0 -90 -22 -162t-58 -115t-78 -65.5t-84 -22.5q-31 0 -45 2q-125 7 -188 80q-38 48 -47 96.5t2.5 74.5t27.5 26q6 0 15 -6q11 -7 18 -7q26 0 48.5 25t19.5 49q-4 36 -26.5 54t-51.5 18q-23 0 -47 -12
q-42 -29 -64 -82.5t-12 -126.5q4 -20 14 -45t34.5 -58.5t58.5 -61t90 -49t123 -26.5h30q52 0 105.5 14t107 44.5t95 74.5t67 110.5t25.5 145.5v1139q0 17 6.5 38t21.5 45t45.5 40.5t71.5 17.5q8 0 11.5 5.5t0 11.5t-11.5 6h-801q-13 0 -12 -11.5t12 -11.5q22 0 33 -30.5
t12 -61.5v-31q0 -61 -4 -86q-10 -24 16 -29q29 -7 49 14q10 11 11 25q0 29 3 52.5t7 39t11 28t12 19.5t14.5 12.5t13 7t12.5 3.5z" />
    <glyph glyph-name="k" unicode="k" horiz-adv-x="1169" 
d="M901 1597l-397 -573q87 -164 209.5 -391.5t202.5 -372.5l79 -145q20 -36 68 -65.5t96 -29.5q11 0 12 -10t-12 -10h-416q-13 0 -12 10t12 10q30 0 46.5 8.5t18.5 25t-1 32t-12 39.5l-398 735l-102 -141v-569q0 -19 4 -36.5t15.5 -40.5t39 -37.5t68.5 -15.5q7 0 11 -5
t1 -10t-12 -5h-418q-9 0 -12.5 5t0 10t12.5 5q41 1 68.5 15.5t39 37.5t15.5 40.5t4 36.5v1396q0 19 -4 36.5t-15.5 40.5t-39 37t-68.5 15q-9 0 -12.5 5.5t0 11.5t12.5 6h418q9 0 12 -6t-1 -11.5t-11 -5.5q-41 -1 -68.5 -15t-39 -37t-15.5 -40.5t-4 -36.5v-674l481 717
q22 28 8 55t-65 27q-11 0 -12 10.5t12 10.5h313q8 0 11.5 -5t0 -10.5t-11.5 -5.5q-44 0 -72 -15.5t-59 -58.5z" />
    <glyph glyph-name="l" unicode="l" horiz-adv-x="1003" 
d="M295 1540v-1362q0 -17 4 -34t14.5 -38.5t35 -36t59.5 -18.5h241q137 0 174 82q20 48 18.5 144t-20.5 210q-8 54 -8 93q1 38 29.5 55t59.5 7t40 -40q6 -19 0 -33t-17 -24t-12 -15q-15 -76 5.5 -250t74.5 -251l11 -11q6 -4 4 -11t-15 -7h-983q-8 0 -11.5 5t0 10t11.5 5
q40 1 68 15t40 36.5t16.5 41t4.5 37.5v1390q0 18 -4.5 36t-16.5 40.5t-40 37t-68 15.5q-8 0 -11.5 5.5t0 11.5t11.5 6h129h156h131q13 0 11.5 -11.5t-11.5 -11.5q-41 -1 -69.5 -15.5t-40.5 -37t-16.5 -40.5t-4.5 -36z" />
    <glyph glyph-name="m" unicode="m" horiz-adv-x="1331" 
d="M1165 152v1394q0 18 4.5 36t16.5 40.5t40 37t68 15.5q7 0 11 5.5t1 11.5t-12 6h-282l-338 -1014l-326 1014h-332q-12 0 -11.5 -11.5t11.5 -11.5q38 0 65.5 -11.5t39.5 -28t18.5 -33t6.5 -28.5l1 -11v-1413q0 -18 -4 -36t-16 -41t-40 -37.5t-69 -15.5q-7 0 -10 -5
t-0.5 -10t10.5 -5h373q13 0 12 10t-12 10q-42 1 -70 15.5t-39.5 37.5t-15.5 41t-4 38v1282l375 -1129l375 1112v-1265q0 -19 -4 -37.5t-16 -41.5t-40 -37.5t-69 -15.5q-7 0 -11 -5t-1 -10t12 -5h411q9 0 12 5t-1 10t-11 5q-40 1 -68 15.5t-40 37.5t-16.5 41.5t-4.5 37.5z
" />
    <glyph glyph-name="n" unicode="n" horiz-adv-x="1167" 
d="M944 420l-620 1270h-308q-12 0 -11.5 -11.5t11.5 -11.5q28 0 50.5 -8t35.5 -20.5t23 -27.5t14 -30.5t6 -28t2 -20.5v-8v-1374q0 -18 -4 -36t-16 -41t-40 -37.5t-69 -15.5q-11 0 -12 -10t12 -10h373q13 0 12 10t-12 10q-41 1 -69 15.5t-40 37.5t-16 41t-4 36v1259
l725 -1409h74v1542q7 127 131 129q11 0 12 11.5t-12 11.5h-377q-13 0 -12 -11.5t12 -11.5q33 -1 58 -11t38 -24t21 -33.5t10 -33t2 -27.5v-1122z" />
    <glyph glyph-name="o" unicode="o" horiz-adv-x="1316" 
d="M1292 872v-12q0 -30 -3 -75t-17.5 -131.5t-38.5 -168t-72 -172.5t-111.5 -158t-164 -111t-223.5 -44h-21q-98 0 -182 28t-144 73t-109.5 108.5t-80.5 128.5t-54.5 139.5t-35.5 134.5t-19 120t-8.5 90t-1.5 50q0 140 23.5 257.5t62.5 200t93 147.5t110.5 104.5t120.5 65.5
t118 35.5t107 9.5h21q75 0 150.5 -19.5t162 -76t152.5 -144t112.5 -237.5t52.5 -343zM662 49q44 1 83.5 11t83 35.5t79.5 65.5t68.5 104t55 147.5t35 201t10.5 258.5q-1 134 -15 245t-36.5 189t-55 138t-67 96.5t-77 59.5t-81.5 32t-83 10h-21q-45 -1 -84 -10t-82 -32
t-78 -59.5t-68 -96t-55.5 -138t-36.5 -189t-16 -245.5q10 -814 420 -823h6h15z" />
    <glyph glyph-name="p" unicode="p" horiz-adv-x="1024" 
d="M303 1692h-299q-12 0 -11.5 -11.5t11.5 -11.5q33 -1 58 -11t38 -24t21 -33.5t10 -33t2 -27.5v-1390q0 -18 -4 -36t-16 -41t-40 -37.5t-69 -15.5q-7 0 -10 -5t-0.5 -10t10.5 -5h420q8 0 10.5 5t-1 10t-9.5 5q-41 1 -69 15.5t-40 37.5t-16 41t-4 36v1366q0 137 129 153h2
q50 7 100 -2q84 -11 150 -65.5t99 -133.5t45.5 -171.5t-13 -180t-72.5 -157.5t-136 -107t-202 -25q-31 5 -41 -18q-8 -21 8 -29q2 -1 5 -2q15 -1 51.5 -5.5t62.5 -4.5q109 0 200 30.5t150.5 79.5t101 113t59.5 129t18 129q0 125 -42.5 222.5t-115.5 155.5t-167 85t-202 19
q-101 -5 -182 -39z" />
    <glyph glyph-name="q" unicode="q" horiz-adv-x="1316" 
d="M1282 985v-14v-27t-4.5 -69t-13.5 -102.5t-29.5 -119.5t-49 -128t-76.5 -119.5t-107.5 -103t-145.5 -69t-188 -26.5h-21h-18v-19q2 -53 34 -78.5t66.5 -19.5t44.5 31q4 11 4 24t-2 20l-2 7q5 0 13 -1.5t28.5 -9t35 -20t24.5 -38.5t6 -60q-7 -54 -47 -88.5t-94 -35
t-113 37.5q-70 49 -107 172q-3 45 0 86q-82 15 -151 50t-117.5 82.5t-88 104.5t-63.5 116.5t-42 117.5t-26 109.5t-12.5 90.5t-5.5 62v23v14q0 131 23.5 240.5t62 185.5t92.5 135t110.5 93.5t120.5 57t117.5 30.5t106.5 8h21q53 0 105.5 -8t114.5 -30.5t116.5 -57
t106.5 -93.5t89 -135t59.5 -185.5t22.5 -240.5zM229 985q5 -631 310 -721q15 35 38 65t60.5 59t86.5 45.5t116.5 25t150.5 -3.5q88 181 94 530q-2 174 -28.5 304t-65.5 204.5t-96.5 120t-110 60.5t-116.5 16h-21q-45 -1 -84 -8.5t-82.5 -27.5t-78 -52.5t-67.5 -87
t-55.5 -126t-36 -174.5t-14.5 -229zM653 250h15q181 0 284 143q-98 7 -190 -30.5t-121 -112.5h6h6z" />
    <glyph glyph-name="r" unicode="r" horiz-adv-x="1085" 
d="M283 1698h-297q-9 0 -12.5 -6t0.5 -11.5t12 -5.5q40 -1 67.5 -15t39.5 -36.5t16 -40.5t4 -37v-1396q0 -18 -4 -36t-15.5 -41t-39.5 -37.5t-68 -15.5q-8 0 -12 -5t-0.5 -10t12.5 -5h417q13 0 12 10t-12 10q-41 1 -69.5 15.5t-40.5 37t-16.5 41t-4.5 36.5v720
q89 -24 174 -24q29 -18 35 -41q69 -227 108 -321q83 -198 234 -396q19 -29 9.5 -49t-58.5 -19q-11 0 -12 -10t12 -10h336q9 0 12 5t-1 10t-11 5q-77 0 -158.5 100t-138 233.5t-93 260t-36.5 187.5q-7 1 -36 6.5t-39 7.5t-30 7.5t-33.5 13t-25.5 16.5q99 12 177 49t126 87
t78.5 112t40.5 122t6 119q-15 194 -154.5 303t-328.5 95q-102 -8 -182 -41zM272 922v596q0 23 6 46.5t21.5 50t48.5 44t80 18.5q31 2 80 -4q130 -17 204 -146q70 -122 57 -276q-15 -164 -118 -260q-139 -127 -379 -69z" />
    <glyph glyph-name="s" unicode="s" horiz-adv-x="903" 
d="M793 686q51 -58 80 -121.5t34.5 -122.5t-5 -116.5t-40 -107t-69.5 -91.5t-94.5 -71.5t-114 -46t-129 -15.5t-138.5 20t-122 52t-82 66.5t-48 74t-25.5 67.5t-8.5 54q-8 83 19 154t74.5 112t105.5 57.5t110 1.5q67 -21 88 -69q1 -4 -4 -5q-10 -2 -21 3q-29 41 -86 41
q-87 0 -138 -95q-53 -95 -36 -217q18 -140 119 -210q61 -43 144 -50q75 -7 134.5 13.5t92.5 54.5t54 77.5t28 77t6 58.5q-2 84 -41 167.5t-99 154.5t-132 142t-143.5 140.5t-130 138.5t-95.5 148.5t-37 158.5q-1 85 25.5 149.5t71.5 101t99.5 53t116.5 14.5h205
q103 5 119 18q4 4 10.5 4t10.5 -2l4 -2q-8 -16 -20 -46t-27.5 -122.5t-6.5 -185.5q0 -39 -57 -16l-14 8q2 8 5 21t5.5 50t-2.5 70t-25 70t-55 59q-83 44 -189 19t-137 -97q-57 -140 137 -372q51 -62 122 -129.5t163.5 -158t188.5 -202.5z" />
    <glyph glyph-name="t" unicode="t" horiz-adv-x="1310" 
d="M1350 1698h-1319q-12 0 -14 -7t3 -12q1 -1 5.5 -3t7.5 -7q54 -73 73 -176t5 -174q-1 -4 -12.5 -14.5t-15.5 -21t1 -36.5q9 -29 40 -39t59.5 8t29.5 58q0 36 -8 90q-3 16 -7 39t-5.5 33t-4 25t-2.5 21t-1.5 15.5t0 14.5t2 11.5t3.5 13.5t5.5 13t7.5 17q37 82 172 82h114
q104 -10 117 -129v-1370q0 -18 -5 -36.5t-17.5 -41t-41 -37t-69.5 -15.5q-11 0 -12 -10t12 -10h420q9 0 12.5 5t-0.5 10t-12 5q-63 1 -95 36.5t-32 74.5v1389q0 118 113 129h127q135 0 172 -82q6 -13 9 -21t6.5 -15.5t3.5 -16.5t0.5 -15.5t-2 -22t-4.5 -26.5t-6.5 -38
t-8.5 -48q0 -1 -3.5 -35.5t-3.5 -54.5q1 -40 29 -58t59 -8t41 39q6 21 0 35.5t-16.5 23.5t-11.5 13q-15 69 4.5 172.5t73.5 177.5q4 4 7.5 6t4.5 4q5 5 3.5 12t-13.5 7z" />
    <glyph glyph-name="u" unicode="u" horiz-adv-x="1208" 
d="M1186 1692h-393q-8 0 -11.5 -5t0 -10.5t11.5 -5.5q40 -1 66.5 -15.5t37.5 -36.5t14.5 -38.5t3.5 -34.5v-1128q0 -223 -119 -318q-73 -59 -186 -59q-67 0 -119 19t-82.5 50.5t-51 68.5t-29.5 78t-12.5 72.5t-4.5 58t-2 30.5v1143q1 18 6.5 35t18 34.5t37.5 28.5t59 12
q11 0 12 10.5t-12 10.5h-399q-8 0 -10.5 -5t0.5 -10.5t10 -5.5q39 -1 66 -15.5t38.5 -36t16 -39t4.5 -34.5v-1071q0 -135 25 -214q83 -267 431 -267q84 0 153 18.5t115.5 48.5t81 73t54 86.5t31 96t15 93.5t3.5 86v1050q0 18 4 34.5t14.5 38.5t37 36.5t65.5 15.5
q8 0 11.5 5.5t0 10.5t-11.5 5z" />
    <glyph glyph-name="v" unicode="v" horiz-adv-x="1413" 
d="M727 313l393 1241q15 40 -5 78.5t-81 38.5q-11 0 -12 11.5t12 11.5h369q11 0 14.5 -7t-1 -14.5t-13.5 -7.5q-39 0 -71 -13.5t-50 -32.5t-30.5 -37.5t-16.5 -31.5l-4 -14q-492 -1502 -500 -1518q-26 -55 -49 0l-524 1512q-2 6 -6.5 15t-21.5 33t-36.5 42t-52 32t-68.5 13
q-13 0 -14 14.5t14 14.5h430q13 0 12 -11.5t-12 -11.5q-107 0 -77 -131z" />
    <glyph glyph-name="w" unicode="w" horiz-adv-x="1781" 
d="M1823 1692h-334q-10 0 -9 -11.5t9 -11.5q53 0 66 -26t8 -84l-322 -1256l-295 1237q-4 33 -6 61.5t16 48t58 19.5q11 0 11.5 11.5t-11.5 11.5h-346q-13 0 -12 -15.5t12 -15.5q23 1 41 -1.5t30 -10t20 -15.5t14.5 -22.5t10 -25.5t9.5 -30.5t10 -31.5l102 -455l-256 -766
l-338 1237q-5 33 -7 61.5t15.5 48t55.5 19.5q11 0 11.5 11.5t-11.5 11.5h-373q-14 0 -13 -15.5t13 -15.5q30 2 57 -11.5t44 -34t30 -41.5t19 -36l6 -14l415 -1524h82l295 893l217 -893h103l395 1534q2 5 5.5 13.5t17.5 30.5t30.5 39t44.5 30.5t60 13.5q11 0 12 15.5
t-12 15.5z" />
    <glyph glyph-name="x" unicode="x" horiz-adv-x="1097" 
d="M946 150l4 -11q37 -63 75 -91t85 -28q11 0 12 -10t-12 -10h-375q-13 0 -12 10t12 10q41 0 60.5 16t17.5 40.5t-10 52.5l-242 561l-237 -573q-22 -37 -1 -67t76 -30q11 0 12 -10t-12 -10h-387q-9 0 -12.5 5t0.5 10t12 5q65 1 99.5 25t60.5 72l295 712l-309 748
q-21 37 -32 52t-39 28t-73 14q-7 0 -11 5.5t-1 10.5t12 5h383q13 0 12 -10.5t-12 -10.5q-111 0 -67 -110l219 -566l244 566q44 110 -68 110q-11 0 -12 10.5t12 10.5h381q13 0 12 -10.5t-12 -10.5q-92 0 -156 -117l-8 -12l-301 -702z" />
    <glyph glyph-name="y" unicode="y" horiz-adv-x="1189" 
d="M1174 1696h-318q-8 0 -11.5 -6t0 -12.5t11.5 -6.5q33 0 53 -10t24.5 -24t4.5 -28t-4 -24l-4 -10l-283 -682l-285 670q-35 108 70 108q11 0 12 12.5t-12 12.5h-385q-13 0 -12 -12.5t12 -12.5q33 -1 55 -11t30 -19t22 -33t20 -33l354 -784v-641q0 -18 -4.5 -36.5t-16.5 -41
t-40 -37t-68 -15.5q-8 0 -11.5 -5t0 -10t11.5 -5h432q8 0 11.5 5t0 10t-11.5 5q-41 1 -69 15.5t-40 37.5t-16 41t-4 36v641l336 804q1 3 3 8t12 18.5t23.5 23.5t39.5 18t58 8q10 0 11.5 12.5t-11.5 12.5z" />
    <glyph glyph-name="z" unicode="z" horiz-adv-x="1146" 
d="M23 59l745 1448q18 44 -13.5 77.5t-107.5 33.5h-106h-146q-78 -7 -90 -49q-3 -23 -1 -33.5t9.5 -42.5t10.5 -57q10 -45 10 -90q0 -39 -29 -57t-61 -8.5t-41 38.5q-6 20 0 34.5t17 24.5t13 15q13 63 -4.5 122t-76.5 142q-5 8 -11 10q-5 5 -3.5 13t14.5 8h966q9 0 12.5 -6
t-0.5 -11.5t-12 -5.5q-49 0 -90 -36.5t-92 -119.5l-672 -1312q-24 -47 1.5 -85t103.5 -38h311q5 0 23 -0.5t28.5 -0.5t30 2t32.5 6.5t31 13.5t30 22t25.5 33.5t21.5 47t13 62.5t5 80q0 13 -5.5 44t-5.5 46q1 39 30 57t60.5 8.5t40.5 -38.5q6 -20 0 -34t-16.5 -24t-11.5 -16
q-15 -67 4.5 -166.5t75.5 -173.5q2 -5 3 -6.5t4 -2.5l3 -1q11 -33 -8 -33h-1043q-26 0 -33.5 22t5.5 37z" />
    <glyph glyph-name="braceleft" unicode="{" horiz-adv-x="950" 
d="M0 1014v39q123 17 196.5 89t73.5 163q0 53 -26 176q-29 119 -29 198q0 95 32.5 175.5t82.5 132t111 86.5t118 48t103 7q73 0 130 -38.5t80 -111.5q19 -67 -14 -100t-86 -20q-36 10 -49.5 42t16.5 64q9 9 13.5 14.5t11 15.5t5 19.5t-10.5 18.5q-66 69 -201 26
q-81 -40 -121.5 -102t-40.5 -135q0 -71 27 -185q27 -117 27 -196q0 -125 -90.5 -236t-256.5 -172q166 -60 256.5 -170t90.5 -235q0 -80 -27 -197q-27 -114 -27 -184q0 -73 40.5 -135.5t121.5 -102.5q133 -43 201 25q9 10 10.5 19.5t-5 20t-10.5 15t-14 14.5
q-30 30 -16.5 63.5t49.5 43.5q53 13 86 -21t14 -100q-16 -52 -51 -86.5t-80 -49t-95.5 -13t-98.5 17.5q-2 1 -6 2t-6 2l-15 6q-139 57 -222 172t-83 246q0 82 29 201q26 124 26 176q0 91 -73.5 163t-196.5 89z" />
    <glyph glyph-name="bar" unicode="|" horiz-adv-x="141" 
d="M70 -440v2488h-70v-2488h70z" />
    <glyph glyph-name="braceright" unicode="}" horiz-adv-x="950" 
d="M879 1053v-39q-124 -17 -197.5 -89t-73.5 -163q0 -48 27 -176q29 -119 29 -201q0 -131 -83.5 -246t-222.5 -172l-14 -6q-2 -1 -6 -2t-6 -2q-48 -16 -98.5 -17.5t-96 13t-80.5 49t-51 86.5q-19 66 14 100t86 21q36 -10 49.5 -43.5t-16.5 -63.5q-43 -43 -18 -69
q68 -68 201 -25q81 40 121 102.5t40 135.5q0 74 -26 184q-27 117 -27 197q0 125 90 235.5t256 169.5q-166 61 -256 172t-90 236q0 79 27 196q26 110 26 185q0 73 -40 135t-121 102q-135 43 -201 -26q-25 -25 18 -68q30 -32 16.5 -64t-49.5 -42q-53 -13 -86 20t-14 100
q22 73 80 111.5t131 38.5q46 6 103 -7t118 -48t111 -86.5t82.5 -132t32.5 -175.5q0 -79 -29 -198q-27 -128 -27 -176q0 -91 73.5 -163t197.5 -89z" />
    <glyph glyph-name="asciitilde" unicode="~" horiz-adv-x="1198" 
d="M1106 764q-23 10 -29 -27q-19 -73 -67.5 -113t-116.5 -40q-43 0 -70 8q-52 13 -159 59q-219 91 -297 113q-46 12 -91 12q-61 0 -114 -33q-106 -64 -121 -219q-3 -28 20 -37q21 -12 31 23q44 152 180 152q73 0 228 -66q239 -96 280 -107q56 -16 101 -16q99 0 166.5 69
t76.5 185q3 25 -18 37z" />
    <glyph glyph-name="exclamdown" unicode="&#xa1;" horiz-adv-x="731" 
d="M289 977q61 0 103 43t42 104q0 60 -42.5 103t-102.5 43t-103 -43t-43 -103t43 -103.5t103 -43.5zM313 850h-55l-96 -1282q-8 -102 -8 -135q0 -94 33.5 -147.5t99.5 -53.5q131 0 131 219q0 53 -6 117z" />
    <glyph glyph-name="cent" unicode="&#xa2;" horiz-adv-x="944" 
d="M647 999l-364 -813q20 -28 44.5 -51t47 -36.5t46 -23.5t42.5 -14t33.5 -6.5t23.5 -2.5l8 -1q47 -3 88.5 6.5t69.5 27t50.5 40t31.5 46t12.5 45t-6.5 36.5q-8 14 -31 14q-24 -3 -41.5 17.5t-15.5 44.5q0 34 21 50.5t51 18.5q64 3 92.5 -50.5t13.5 -115.5q-16 -63 -53 -110
t-77.5 -69.5t-89 -35.5t-76.5 -15t-50 -1q-157 3 -282 80l-125 -258q-5 -11 -18 -20t-25 -9h-21q-12 0 -17.5 9t-0.5 20l145 305q-74 67 -117.5 157.5t-52.5 186.5q-16 155 21 278.5t111.5 198.5t173.5 112t212 32q38 -2 82 -13l131 293q4 10 17.5 18.5t25.5 8.5h19
q13 0 18.5 -8.5t-0.5 -18.5l-141 -317q11 -5 36 -16.5t36 -16t29 -10t32 -4.5t29 6q15 6 23 0.5t5 -16.5t-16 -19q-6 -4 -19.5 -12t-21.5 -16t-19 -25q-8 -11 -37 -70t-36 -70q-24 -31 -45 -15q-14 14 -6 30q7 9 13.5 33t9.5 44l3 19q2 57 -43 102zM238 268l346 766
q-40 12 -66 8q-86 -5 -151 -49.5t-102.5 -118.5t-54.5 -166t-15 -200q3 -142 43 -240z" />
    <glyph glyph-name="sterling" unicode="&#xa3;" horiz-adv-x="1329" 
d="M567 926v-95q0 -227 -94 -505q262 -138 313 -146q72 -16 138 -16q92 0 169 63t83 146q5 34 -15.5 60.5t-60.5 12.5q-20 -10 -42 2t-28 33q-11 30 2 54t37 34q68 22 116.5 -27.5t57.5 -113.5q3 -26 5.5 -60.5t-7.5 -74.5t-24 -80t-43.5 -77.5t-66 -66.5t-92.5 -46
t-122 -17q-103 0 -223.5 56t-237.5 157q-109 -213 -252 -213q-71 0 -125.5 49t-54.5 125q0 82 36 140t89.5 81t116.5 18t116 -40q4 47 4 102q0 141 -28 445h-260v127h260q-17 188 -17 266q0 279 62.5 439t185.5 237q117 69 250 69q74 0 132.5 -22.5t92.5 -56t56 -76.5
t29.5 -81t4.5 -71q-6 -83 -44 -121.5t-95 -38.5q-26 0 -48 15t-33.5 41t-4 65.5t38.5 83.5q35 55 -17 123t-145 68q-58 0 -99.5 -23t-76 -81t-52 -167.5t-17.5 -271.5q0 -48 16 -252q4 -37 8 -84.5t6 -60.5h346v-127h-346zM186 84q48 0 89.5 44.5t66.5 139.5q-59 41 -115 41
q-62 0 -105.5 -34t-43.5 -85q0 -46 34.5 -76t73.5 -30z" />
    <glyph glyph-name="currency" unicode="&#xa4;" horiz-adv-x="1038" 
d="M899 1245l-108 -106q-17 -17 -39 -2q-57 43 -127.5 65.5t-137.5 22.5q-69 0 -142.5 -24t-129.5 -64q-20 -17 -39 2l-108 106q-23 20 -45 -2l-13 -12q-10 -9 -10 -22.5t10 -22.5l107 -105q19 -19 2 -39q-88 -122 -88 -268q0 -155 88 -268q15 -22 -2 -39l-107 -109
q-10 -9 -10 -22.5t10 -22.5l13 -12q23 -20 43 0l108 105q20 20 41 2q48 -37 126.5 -61.5t156.5 -24.5q129 0 254 88q20 17 39 -2l108 -107q20 -20 43 0l14 12q9 9 9 22.5t-9 22.5l-106 109q-19 19 -2 39q88 122 88 270q0 141 -88 266q-17 20 2 39l106 105q9 9 9 22.5
t-9 22.5l-14 14q-23 20 -43 0zM485 1100q81 0 160 -45q76 -40 121 -119.5t45 -163.5q0 -133 -97 -229.5t-231 -96.5t-229.5 95.5t-95.5 228.5q0 136 95.5 233t231.5 97z" />
    <glyph glyph-name="yen" unicode="&#xa5;" horiz-adv-x="1363" 
d="M684 1184l303 721q34 116 -92 116q-9 0 -13.5 6.5t-1 13.5t14.5 7h371q11 0 14 -7t-1.5 -13.5t-12.5 -6.5q-68 0 -101.5 -21t-62.5 -71l-375 -885v-40h303v-99h-303v-160h303v-98h-303v-465q0 -22 5 -43.5t19.5 -49t48.5 -44.5t83 -18q9 0 13.5 -6.5t1 -13.5t-14.5 -7
h-156h-188h-156q-11 0 -14.5 7t1 13.5t13.5 6.5q49 1 83 18t48.5 44.5t19.5 49t5 43.5v465h-289v98h289v160h-289v99h289v34l-369 867q-7 11 -18.5 33.5t-19 33t-22.5 24t-38 19t-56 6.5q-9 0 -13.5 6.5t-1 13.5t14.5 7h435q11 0 14 -7t-1.5 -13.5t-12.5 -6.5
q-139 0 -76 -147l-21 45z" />
    <glyph glyph-name="brokenbar" unicode="&#xa6;" horiz-adv-x="141" 
d="M70 1026v1022h-70v-1022h70zM70 -440v1022h-70v-1022h70z" />
    <glyph glyph-name="section" unicode="&#xa7;" horiz-adv-x="1212" 
d="M367 1196q-172 -103 -259.5 -242.5t-87.5 -289.5q0 -141 80 -271q109 -169 402 -387q193 -142 274 -266q49 -81 49 -174q0 -96 -86 -178t-190 -82q-88 0 -150 47q-39 27 -39 76q0 11 11 79q14 43 14 91q0 62 -34 100.5t-85 38.5q-48 0 -85.5 -41t-37.5 -98
q0 -141 115.5 -248t280.5 -107q188 0 317 130t129 321q0 101 -42.5 188.5t-151.5 210.5q174 103 261 244.5t87 290.5q0 143 -84 270q-113 179 -430 408q-172 127 -238 231q-41 65 -41 166q0 115 79 194.5t193 79.5q79 0 124.5 -41t45.5 -108q0 -32 -6 -66q-14 -72 -14 -84
q0 -48 35.5 -84t87.5 -36q54 0 89.5 40t35.5 101q0 138 -115 242t-283 104q-188 0 -316 -129t-128 -315q0 -98 45 -194.5t148 -211.5zM418 1147q74 -68 209 -172q220 -173 282 -277q70 -113 70 -215q0 -199 -240 -346q-91 84 -190 160q-224 164 -309 299q-60 97 -60 203
q0 206 238 348z" />
    <glyph glyph-name="dieresis" unicode="&#xa8;" horiz-adv-x="657" 
d="M119 2394q-50 0 -84.5 -34t-34.5 -83q0 -46 35 -80t84 -34q46 0 79 34t33 80q0 49 -33 83t-79 34zM469 2394q-49 0 -83 -34t-34 -83q0 -46 34 -80t83 -34q46 0 80.5 34t34.5 80q0 49 -34.5 83t-80.5 34z" />
    <glyph glyph-name="copyright" unicode="&#xa9;" horiz-adv-x="1781" 
d="M856 102q175 0 332 68q156 66 272 182q121 121 185 273q67 158 67 333q0 177 -67 332q-66 157 -185 273q-115 115 -272 184q-157 65 -332 65q-174 0 -334 -65q-156 -70 -270 -184q-117 -114 -184 -273q-68 -157 -68 -332q0 -173 68 -333q65 -154 184 -273
q116 -116 270 -182q160 -68 334 -68zM856 1712q154 0 293 -59q138 -57 240 -162q106 -106 161 -240q60 -135 60 -293q0 -156 -60 -294q-55 -134 -161 -240q-97 -100 -240 -162q-139 -59 -293 -59q-153 0 -295 59q-138 61 -239 162q-105 108 -162 240q-60 145 -60 294
q0 151 60 293q57 132 162 240q106 106 239 162q142 59 295 59zM1141 809q64 3 92.5 -50.5t13.5 -115.5q-16 -63 -53 -110t-77.5 -69.5t-89 -35.5t-76.5 -15t-50 -1q-97 2 -179.5 31t-140.5 75t-100.5 107t-65 125.5t-28.5 132.5q-16 155 21 278.5t111.5 198t173.5 111.5
t212 32q68 -3 131 -30t105.5 -44t77.5 -4q15 5 23 0.5t5 -15.5t-16 -19q-4 -3 -19 -12t-22.5 -17t-18.5 -25q-8 -11 -37 -69.5t-36 -69.5q-24 -31 -45 -15q-14 13 -6 29q7 9 13.5 33t9.5 44l3 20q2 57 -43 102q-52 49 -129 43q-86 -5 -151 -49.5t-102.5 -118.5t-54.5 -166
t-15 -200q2 -90 19.5 -163.5t43.5 -119.5t60 -80.5t64.5 -51.5t63 -27t49.5 -12t30 -3h3q47 -3 88.5 6.5t69.5 27t50.5 40t31.5 46t12.5 45t-6.5 36.5q-8 14 -31 14q-24 -3 -41.5 17t-15.5 44q0 34 21 51t51 19z" />
    <glyph glyph-name="guillemotleft" unicode="&#xab;" horiz-adv-x="925" 
d="M184 518l318 469q7 11 2 19t-17 8h-2q-26 0 -51 -25l-424 -473q-10 -9 -10 -24.5t10 -24.5l424 -455q24 -24 51 -24h2q12 0 17 8t-2 18l-318 451q-8 10 -8 26.5t8 26.5zM571 518l263 469q6 11 0.5 19t-17.5 8h-2q-12 0 -27 -7.5t-22 -17.5l-371 -473q-19 -27 0 -49
l387 -455q21 -24 52 -24h2q12 0 16 8t-2 18l-279 451q-6 11 -6 27t6 26z" />
    <glyph glyph-name="logicalnot" unicode="&#xac;" horiz-adv-x="1198" 
d="M0 961v-166h950v-195h176v361h-1126z" />
    <glyph glyph-name="registered" unicode="&#xae;" horiz-adv-x="1808" 
d="M877 123q176 0 331 67q156 66 273 183q120 120 184 272q68 168 68 334q0 168 -68 332q-66 157 -184 272q-114 114 -273 184q-160 66 -331 66t-334 -66q-154 -68 -273 -184q-116 -116 -182 -272q-68 -157 -68 -332q0 -174 68 -334q63 -150 182 -272q123 -120 273 -183
q158 -67 334 -67zM877 1733q150 0 292 -60q132 -54 240 -162t162 -239q59 -139 59 -293q0 -153 -59 -295q-54 -132 -162 -240q-101 -101 -240 -161q-142 -60 -292 -60t-295 60q-142 63 -240 161q-102 102 -162 240q-59 142 -59 295q0 154 59 293q59 136 162 239
q105 105 240 162q145 60 295 60zM731 1503h6q49 22 117 27t131.5 -16.5t111 -64.5t70 -111.5t9.5 -149.5q-4 -23 -18.5 -53t-43.5 -66.5t-82.5 -65.5t-120.5 -38l17 -7q38 -17 84 -24l1 -14q1 -15 2.5 -30.5t5.5 -41t10 -51t16.5 -57.5t24 -62t34 -63t45.5 -62l27 -27
q18 -18 39 -32q32 -22 55 -19q4 0 6.5 -3.5t1 -7t-7.5 -3.5h-219h-11q-6 0 -7.5 3.5t0.5 7t7 3.5q30 -1 37 11.5t-6 31.5q-26 33 -39 53q-23 34 -44 69t-33.5 57.5t-30 63.5t-23 54t-24.5 62.5t-23 58.5q-7 18 -22 27q-49 0 -103 14v-420q0 -12 2.5 -23.5t10 -25.5t25.5 -23
t44 -10q5 0 7 -3.5t0.5 -7t-7.5 -3.5h-272q-6 0 -7.5 3.5t0.5 7t7 3.5q26 1 44 10t25.5 23t10 25.5t2.5 23.5v850q0 12 -2.5 23.5t-10 26t-25.5 23.5t-44 9q-5 0 -7 3.5t-0.5 7t7.5 3.5h190zM731 1389v-379q170 -41 258 63q66 77 59 195q-7 112 -74 176q-41 38 -93 45
q-18 2 -52 2q-30 -1 -50.5 -12t-30 -28t-13.5 -32t-4 -30z" />
    <glyph glyph-name="macron" unicode="&#xaf;" horiz-adv-x="706" 
d="M635 2267v-78h-635v78h635z" />
    <glyph glyph-name="degree" unicode="&#xb0;" horiz-adv-x="729" 
d="M317 2048q-141 0 -239 -99.5t-98 -240.5q0 -139 99.5 -238.5t237.5 -99.5q141 0 240.5 99t99.5 239q0 141 -99 240.5t-241 99.5zM317 1956q102 0 174 -72t72 -174q0 -101 -72.5 -173.5t-173.5 -72.5t-172 72t-71 174t71 174t172 72z" />
    <glyph glyph-name="plusminus" unicode="&#xb1;" horiz-adv-x="1767" 
d="M913 350h783v-127h-1696v129h784v584h-784v129h784v780h129v-782h783v-127h-785v-8h2v-578z" />
    <glyph glyph-name="acute" unicode="&#xb4;" horiz-adv-x="348" 
d="M242 2437h-115q-37 0 -45 -35l-76 -248q-13 -47 2 -47q17 0 37 23l219 256q17 22 10.5 36.5t-32.5 14.5z" />
    <glyph glyph-name="paragraph" unicode="&#xb6;" horiz-adv-x="1286" 
d="M1208 2048h-635q-191 0 -323 -66q-122 -65 -186 -170.5t-64 -244.5q0 -142 61 -252q65 -119 187.5 -172.5t363.5 -63.5v-1079h90v1974h240v-1974h96v1974h170v74z" />
    <glyph glyph-name="periodcentered" unicode="&#xb7;" horiz-adv-x="364" 
d="M147 1122q-61 0 -104 -42.5t-43 -102.5q0 -62 43 -105t104 -43q60 0 103 43.5t43 104.5q0 60 -42.5 102.5t-103.5 42.5z" />
    <glyph glyph-name="cedilla" unicode="&#xb8;" horiz-adv-x="364" 
d="M152 14l-66 -106q-24 -39 -12 -39q2 2 10 2q32 0 54 -21t22 -49q0 -41 -33.5 -72.5t-81.5 -31.5h-10q-35 0 -35 -19t31 -22q23 -2 59 -2q87 0 144 49.5t57 120.5q0 88 -82 125q-30 15 -16 43l4 4q6 11 7.5 20t-1.5 14t-10 5h-3q-26 0 -38 -21z" />
    <glyph glyph-name="guillemotright" unicode="&#xbb;" horiz-adv-x="925" 
d="M20 987l263 -469q6 -10 6 -26t-6 -27l-279 -451q-6 -10 -2 -18t16 -8h2q31 0 52 24l387 455q19 22 0 49l-371 473q-7 10 -22 17.5t-27 7.5h-2q-12 0 -17.5 -8t0.5 -19zM352 987l318 -469q8 -10 8 -26t-8 -27l-318 -451q-7 -10 -2 -18t17 -8h2q27 0 51 24l424 455
q9 9 9 24.5t-9 24.5l-424 473q-25 25 -51 25h-2q-12 0 -17 -8t2 -19z" />
    <glyph glyph-name="questiondown" unicode="&#xbf;" horiz-adv-x="1542" 
d="M852 975q60 0 102.5 43.5t44.5 103.5q0 60 -42.5 103t-102.5 43q-60 1 -102.5 -41.5t-42.5 -102.5q-2 -60 40 -104t103 -45zM899 854l-70 -2q12 -60 13 -113t-11 -99t-26 -81t-43 -74t-48.5 -62t-54.5 -61q-48 -51 -125.5 -126.5t-117.5 -118.5t-85 -105.5t-64.5 -130.5
t-20.5 -151q-1 -90 36.5 -178t104 -159.5t170.5 -115.5t225 -45q112 -1 214.5 40.5t174.5 113.5t109 174.5t23 214.5q-7 51 -27.5 89.5t-47.5 57.5t-58 31t-57 9.5t-46 -7.5q-61 -23 -77.5 -69t4.5 -87.5t59 -60.5q37 -19 57 -51.5t21 -71t-10.5 -80t-40.5 -80.5t-67 -70.5
t-91.5 -52t-112.5 -22.5q-114 -6 -204 51t-136 153.5t-45 211.5q1 83 26.5 155t71.5 132.5t94 111.5t110 119t103 127q35 51 60.5 108t39 120.5t7 130t-36.5 124.5z" />
    <glyph glyph-name="Agrave" unicode="&#xc0;" horiz-adv-x="1540" 
d="M694 2437h-114q-26 0 -33 -14.5t10 -36.5l219 -256q20 -23 37 -23q15 0 2 47l-76 248q-8 35 -45 35zM868 2048l541 -1866q16 -80 75.5 -117.5t131.5 -37.5q9 0 14 -6.5t1.5 -13.5t-15.5 -7h-469q-11 0 -14.5 7t1 13.5t13.5 6.5q70 1 94.5 29t20.5 73l-175 600
q-3 7 -8.5 20t-29.5 49t-54 67.5t-84 67.5t-118 58q-62 21 -113.5 32t-79.5 11.5t-47.5 -2t-26.5 -6.5l-6 -4l-252 -875q-27 -118 111 -120q9 0 13.5 -6.5t1 -13.5t-14.5 -7h-404q-12 0 -15.5 7t1.5 13.5t14 6.5q153 0 207 155l490 1688l4.5 39t-2.5 38t-15.5 38t-37.5 24
t-66 12q-9 0 -13.5 6.5t-1 13.5t14.5 7h313zM762 1851l-209 -716q97 7 238 -39q79 -25 133.5 -47.5t69.5 -32.5l14 -10z" />
    <glyph glyph-name="Aacute" unicode="&#xc1;" horiz-adv-x="1540" 
d="M948 2437h-114q-38 0 -46 -35l-75 -248q-13 -47 2 -47q17 0 37 23l219 256q17 22 10 36.5t-33 14.5zM868 2048l541 -1866q16 -80 75.5 -117.5t131.5 -37.5q9 0 14 -6.5t1.5 -13.5t-15.5 -7h-469q-11 0 -14.5 7t1 13.5t13.5 6.5q70 1 94.5 29t20.5 73l-175 600
q-3 7 -8.5 20t-29.5 49t-54 67.5t-84 67.5t-118 58q-62 21 -113.5 32t-79.5 11.5t-47.5 -2t-26.5 -6.5l-6 -4l-252 -875q-27 -118 111 -120q9 0 13.5 -6.5t1 -13.5t-14.5 -7h-404q-12 0 -15.5 7t1.5 13.5t14 6.5q153 0 207 155l490 1688l4.5 39t-2.5 38t-15.5 38t-37.5 24
t-66 12q-9 0 -13.5 6.5t-1 13.5t14.5 7h313zM762 1851l-209 -716q97 7 238 -39q79 -25 133.5 -47.5t69.5 -32.5l14 -10z" />
    <glyph glyph-name="Acircumflex" unicode="&#xc2;" horiz-adv-x="1540" 
d="M965 2189l-144 254q-7 13 -20 13h-86q-14 0 -21 -11l-184 -256q-6 -7 -6 -13.5t6 -6.5q12 0 20 8l213 166q13 10 25 -2l176 -164q12 -8 21 -8q13 0 0 20zM868 2048l541 -1866q16 -80 75.5 -117.5t131.5 -37.5q9 0 14 -6.5t1.5 -13.5t-15.5 -7h-469q-11 0 -14.5 7t1 13.5
t13.5 6.5q70 1 94.5 29t20.5 73l-175 600q-3 7 -8.5 20t-29.5 49t-54 67.5t-84 67.5t-118 58q-62 21 -113.5 32t-79.5 11.5t-47.5 -2t-26.5 -6.5l-6 -4l-252 -875q-27 -118 111 -120q9 0 13.5 -6.5t1 -13.5t-14.5 -7h-404q-12 0 -15.5 7t1.5 13.5t14 6.5q153 0 207 155
l490 1688l4.5 39t-2.5 38t-15.5 38t-37.5 24t-66 12q-9 0 -13.5 6.5t-1 13.5t14.5 7h313zM762 1851l-209 -716q97 7 238 -39q79 -25 133.5 -47.5t69.5 -32.5l14 -10z" />
    <glyph glyph-name="Atilde" unicode="&#xc3;" horiz-adv-x="1540" 
d="M455 2195q15 0 18 19q15 68 31.5 89t54.5 21q15 0 39 -8q24 -10 80 -49q110 -76 184 -76q49 0 88 29q89 60 92 199q0 20 -14 20q-12 0 -18 -18q-13 -68 -33 -88q-25 -25 -53 -25q-41 0 -115 51q-83 55 -121 68q-34 12 -72 12q-73 0 -121 -55.5t-55 -169.5q0 -19 15 -19z
M868 2048l541 -1866q16 -80 75.5 -117.5t131.5 -37.5q9 0 14 -6.5t1.5 -13.5t-15.5 -7h-469q-11 0 -14.5 7t1 13.5t13.5 6.5q70 1 94.5 29t20.5 73l-175 600q-3 7 -8.5 20t-29.5 49t-54 67.5t-84 67.5t-118 58q-62 21 -113.5 32t-79.5 11.5t-47.5 -2t-26.5 -6.5l-6 -4
l-252 -875q-27 -118 111 -120q9 0 13.5 -6.5t1 -13.5t-14.5 -7h-404q-12 0 -15.5 7t1.5 13.5t14 6.5q153 0 207 155l490 1688l4.5 39t-2.5 38t-15.5 38t-37.5 24t-66 12q-9 0 -13.5 6.5t-1 13.5t14.5 7h313zM762 1851l-209 -716q97 7 238 -39q79 -25 133.5 -47.5t69.5 -32.5
l14 -10z" />
    <glyph glyph-name="Adieresis" unicode="&#xc4;" horiz-adv-x="1540" 
d="M575 2394q-50 0 -84 -34t-34 -83q0 -46 34.5 -80t83.5 -34q46 0 79.5 34t33.5 80q0 49 -33.5 83t-79.5 34zM926 2394q-50 0 -83.5 -34t-33.5 -83q0 -46 34 -80t83 -34q46 0 80 34t34 80q0 49 -34 83t-80 34zM868 2048l541 -1866q16 -80 75.5 -117.5t131.5 -37.5
q9 0 14 -6.5t1.5 -13.5t-15.5 -7h-469q-11 0 -14.5 7t1 13.5t13.5 6.5q70 1 94.5 29t20.5 73l-175 600q-3 7 -8.5 20t-29.5 49t-54 67.5t-84 67.5t-118 58q-62 21 -113.5 32t-79.5 11.5t-47.5 -2t-26.5 -6.5l-6 -4l-252 -875q-27 -118 111 -120q9 0 13.5 -6.5t1 -13.5
t-14.5 -7h-404q-12 0 -15.5 7t1.5 13.5t14 6.5q153 0 207 155l490 1688l4.5 39t-2.5 38t-15.5 38t-37.5 24t-66 12q-9 0 -13.5 6.5t-1 13.5t14.5 7h313zM762 1851l-209 -716q97 7 238 -39q79 -25 133.5 -47.5t69.5 -32.5l14 -10z" />
    <glyph glyph-name="Aring" unicode="&#xc5;" horiz-adv-x="1540" 
d="M770 2529q-78 0 -132 -55t-54 -133t54.5 -133.5t131.5 -55.5q78 0 133 55.5t55 133.5t-55 133t-133 55zM770 2462q51 0 85 -35t34 -86q0 -50 -34 -84.5t-85 -34.5t-85 34.5t-34 84.5q0 51 34 86t85 35zM868 2048l541 -1866q16 -80 75.5 -117.5t131.5 -37.5q9 0 14 -6.5
t1.5 -13.5t-15.5 -7h-469q-11 0 -14.5 7t1 13.5t13.5 6.5q70 1 94.5 29t20.5 73l-175 600q-3 7 -8.5 20t-29.5 49t-54 67.5t-84 67.5t-118 58q-62 21 -113.5 32t-79.5 11.5t-47.5 -2t-26.5 -6.5l-6 -4l-252 -875q-27 -118 111 -120q9 0 13.5 -6.5t1 -13.5t-14.5 -7h-404
q-12 0 -15.5 7t1.5 13.5t14 6.5q153 0 207 155l490 1688l4.5 39t-2.5 38t-15.5 38t-37.5 24t-66 12q-9 0 -13.5 6.5t-1 13.5t14.5 7h313zM762 1851l-209 -716q97 7 238 -39q79 -25 133.5 -47.5t69.5 -32.5l14 -10z" />
    <glyph glyph-name="AE" unicode="&#xc6;" horiz-adv-x="2080" 
d="M1343 49h291q167 0 211 98q25 55 24 175t-26 253q-2 15 -7 39t-7 39t-2 33q0 42 36 63.5t76 12t50 -44.5q6 -30 0 -42.5t-19 -26t-14 -19.5q-19 -92 6 -301.5t90 -296.5q1 -2 12 -13q16 -22 -12 -24h-1161q-12 0 -15.5 6.5t1.5 13t14 6.5q49 1 82.5 18t47.5 45t18.5 49
t4.5 44v856q-74 39 -170 33.5t-147 -39.5l-309 -590q-82 -150 -142 -301q-7 -49 15.5 -80t97.5 -32q9 0 13.5 -6.5t1 -13.5t-14.5 -7h-475q-12 0 -15.5 7t1.5 13.5t14 6.5q25 0 47 4.5t37.5 9.5t32.5 17t26 19t22.5 24.5t18 24.5t17.5 27t16 25q35 59 437.5 815t414.5 791
l25 86l4.5 39t-2.5 38t-15.5 38t-37.5 24t-66 12q-6 0 -10 4t-4 9q-4 6 -0.5 12t14.5 6h1161q27 0 12 -25q-9 -4 -12 -10q-68 -93 -94 -204.5t-8 -190.5q1 -7 11.5 -17.5t17.5 -24.5t3 -34q-8 -29 -44 -37.5t-69.5 8.5t-33.5 50q0 21 10 56.5t13 57.5q11 58 10 114t-23 105
q-45 99 -211 99h-291q-40 -4 -68.5 -20t-41.5 -40.5t-18.5 -44.5t-6.5 -41v-637q6 -46 37 -82t98 -43l160 3q17 0 28.5 1t34 10.5t37 27t26 54t11.5 87.5q9 12 25 17t27.5 2.5t11.5 -9.5q-14 -89 -14 -227q0 -140 14 -226q0 -7 -11.5 -9.5t-27.5 2.5t-25 18q0 36 -7.5 65.5
t-19.5 48t-26.5 32t-29.5 20t-27 10t-20 4.5h-7h-160q-67 -5 -98 -41.5t-37 -81.5v-700q1 -21 6.5 -41t18.5 -44.5t41.5 -40.5t68.5 -20zM1044 1630l-270 -514q107 54 270 21v493z" />
    <glyph glyph-name="Ccedilla" unicode="&#xc7;" horiz-adv-x="1298" 
d="M639 -92l63 102q-61 11 -122 33.5t-129.5 64t-128.5 97.5t-116 139t-95.5 183t-63.5 235.5t-24 290.5q0 163 28 305t75.5 247t112 191t136 143t149.5 95t150.5 54.5t140.5 16.5q65 0 119 -11.5t85 -27.5t61.5 -31t53.5 -24.5t55.5 -7t72.5 21.5q21 8 32.5 2t9 -22.5
t-19.5 -28.5q-9 -6 -22.5 -14.5t-20 -13.5t-18 -17t-23.5 -30q-9 -14 -46.5 -98.5t-47.5 -100.5q-29 -45 -60 -28q-21 11 -18 33l4 9q10 14 19.5 55.5t13.5 76.5l4 34q-4 53 -32.5 89.5t-66 51t-74.5 22t-62 6.5l-25 -1q-8 0 -21.5 -1t-53.5 -10t-79 -25.5t-92 -51.5
t-98 -83t-90.5 -126t-77 -174t-50 -233.5t-16.5 -298.5q2 -162 23 -300t55.5 -239t81.5 -181t99.5 -131t111 -83.5t114 -45t111.5 -8.5q156 9 228 101q28 35 43.5 71.5t16.5 64.5t-4.5 50.5t-15.5 34.5t-20 12q-6 0 -18 -4q-9 -6 -23 -6q-31 0 -58.5 29.5t-23.5 58.5
q6 43 33.5 64.5t63.5 21.5q33 0 55 -16q51 -32 77.5 -97.5t12.5 -154.5q-4 -25 -16 -56.5t-41 -73.5t-70 -76t-108.5 -58t-149.5 -25q-37 0 -55 2l-4 -6l-5 -4q-14 -28 17 -43q82 -37 82 -125q0 -71 -57 -120.5t-144 -49.5q-36 0 -59 2q-31 3 -31 22t35 19h10
q48 0 81.5 31.5t33.5 72.5q0 28 -22 49t-54 21q-8 0 -10 -2q-12 0 12 39z" />
    <glyph glyph-name="Egrave" unicode="&#xc8;" 
d="M678 2130l-219 256q-17 22 -10.5 36.5t32.5 14.5h115q37 0 45 -35l76 -248q13 -47 -2 -47q-17 0 -37 23zM334 899v-700q1 -21 6.5 -41t18.5 -44.5t41.5 -40.5t68.5 -20h291q166 0 211 99q25 55 24 175t-26 253q-3 17 -7.5 39.5t-7 38t-2.5 32.5q0 42 36 63.5t76 12
t50 -44.5q6 -30 0 -42.5t-19 -26t-14 -19.5q-19 -92 6.5 -301.5t90.5 -296.5q4 -7 8 -9q3 -2 4 -3q17 -23 -12 -23l-1162 -2q-12 0 -15.5 7t1.5 13.5t14 6.5q40 1 70 13t45.5 29t24.5 40t11.5 39.5t2.5 33.5v1690q0 17 -2.5 33.5t-11.5 39.5t-24.5 40t-45.5 29t-70 13
q-9 0 -14 6.5t-1.5 13.5t15.5 7h1162q26 0 12 -24q-8 -4 -12 -11q-69 -94 -95 -205.5t-8 -189.5q1 -7 12 -17.5t18 -24.5t3 -34q-8 -29 -44 -37.5t-69.5 8.5t-33.5 50q0 21 9.5 56.5t12.5 57.5q11 58 10.5 114.5t-22.5 105.5q-44 98 -211 98h-291q-40 -4 -68.5 -20
t-41.5 -40.5t-18.5 -44.5t-6.5 -41v-636q6 -46 37 -82t98 -43q68 0 160 2q17 0 28.5 1t34 10.5t37 27t26 54t11.5 87.5q9 12 24.5 17t27 2.5t11.5 -9.5q-14 -89 -14 -227q0 -140 14 -226q0 -7 -11.5 -9.5t-27 2.5t-24.5 18q0 36 -7.5 65.5t-19.5 48t-26.5 32t-29.5 20
t-27 10t-20 4.5h-7h-160q-67 -5 -98 -41.5t-37 -81.5z" />
    <glyph glyph-name="Eacute" unicode="&#xc9;" 
d="M813 2386l-219 -256q-20 -23 -37 -23q-15 0 -2 47l76 248q8 35 45 35h115q26 0 32.5 -14.5t-10.5 -36.5zM334 899v-700q1 -21 6.5 -41t18.5 -44.5t41.5 -40.5t68.5 -20h291q166 0 211 99q25 55 24 175t-26 253q-3 17 -7.5 39.5t-7 38t-2.5 32.5q0 42 36 63.5t76 12
t50 -44.5q6 -30 0 -42.5t-19 -26t-14 -19.5q-19 -92 6.5 -301.5t90.5 -296.5q4 -7 8 -9q3 -2 4 -3q17 -23 -12 -23l-1162 -2q-12 0 -15.5 7t1.5 13.5t14 6.5q40 1 70 13t45.5 29t24.5 40t11.5 39.5t2.5 33.5v1690q0 17 -2.5 33.5t-11.5 39.5t-24.5 40t-45.5 29t-70 13
q-9 0 -14 6.5t-1.5 13.5t15.5 7h1162q26 0 12 -24q-8 -4 -12 -11q-69 -94 -95 -205.5t-8 -189.5q1 -7 12 -17.5t18 -24.5t3 -34q-8 -29 -44 -37.5t-69.5 8.5t-33.5 50q0 21 9.5 56.5t12.5 57.5q11 58 10.5 114.5t-22.5 105.5q-44 98 -211 98h-291q-40 -4 -68.5 -20
t-41.5 -40.5t-18.5 -44.5t-6.5 -41v-636q6 -46 37 -82t98 -43q68 0 160 2q17 0 28.5 1t34 10.5t37 27t26 54t11.5 87.5q9 12 24.5 17t27 2.5t11.5 -9.5q-14 -89 -14 -227q0 -140 14 -226q0 -7 -11.5 -9.5t-27 2.5t-24.5 18q0 36 -7.5 65.5t-19.5 48t-26.5 32t-29.5 20
t-27 10t-20 4.5h-7h-160q-67 -5 -98 -41.5t-37 -81.5z" />
    <glyph glyph-name="Ecircumflex" unicode="&#xca;" 
d="M635 2343l-213 -166q-8 -8 -21 -8q-6 0 -6 6.5t6 13.5l185 256q7 11 20 11h86q14 0 21 -13l143 -254q13 -20 0 -20q-8 0 -20 8l-177 164q-11 11 -24 2zM334 899v-700q1 -21 6.5 -41t18.5 -44.5t41.5 -40.5t68.5 -20h291q166 0 211 99q25 55 24 175t-26 253
q-3 17 -7.5 39.5t-7 38t-2.5 32.5q0 42 36 63.5t76 12t50 -44.5q6 -30 0 -42.5t-19 -26t-14 -19.5q-19 -92 6.5 -301.5t90.5 -296.5q4 -7 8 -9q3 -2 4 -3q17 -23 -12 -23l-1162 -2q-12 0 -15.5 7t1.5 13.5t14 6.5q40 1 70 13t45.5 29t24.5 40t11.5 39.5t2.5 33.5v1690
q0 17 -2.5 33.5t-11.5 39.5t-24.5 40t-45.5 29t-70 13q-9 0 -14 6.5t-1.5 13.5t15.5 7h1162q26 0 12 -24q-8 -4 -12 -11q-69 -94 -95 -205.5t-8 -189.5q1 -7 12 -17.5t18 -24.5t3 -34q-8 -29 -44 -37.5t-69.5 8.5t-33.5 50q0 21 9.5 56.5t12.5 57.5q11 58 10.5 114.5
t-22.5 105.5q-44 98 -211 98h-291q-40 -4 -68.5 -20t-41.5 -40.5t-18.5 -44.5t-6.5 -41v-636q6 -46 37 -82t98 -43q68 0 160 2q17 0 28.5 1t34 10.5t37 27t26 54t11.5 87.5q9 12 24.5 17t27 2.5t11.5 -9.5q-14 -89 -14 -227q0 -140 14 -226q0 -7 -11.5 -9.5t-27 2.5
t-24.5 18q0 36 -7.5 65.5t-19.5 48t-26.5 32t-29.5 20t-27 10t-20 4.5h-7h-160q-67 -5 -98 -41.5t-37 -81.5z" />
    <glyph glyph-name="Edieresis" unicode="&#xcb;" 
d="M451 2163q-49 0 -84 34t-35 80q0 49 34.5 83t84.5 34q46 0 79 -34t33 -83q0 -46 -33 -80t-79 -34zM801 2163q-49 0 -83 34t-34 80q0 49 34 83t83 34q46 0 80 -34t34 -83q0 -46 -34 -80t-80 -34zM334 899v-700q1 -21 6.5 -41t18.5 -44.5t41.5 -40.5t68.5 -20h291
q166 0 211 99q25 55 24 175t-26 253q-3 17 -7.5 39.5t-7 38t-2.5 32.5q0 42 36 63.5t76 12t50 -44.5q6 -30 0 -42.5t-19 -26t-14 -19.5q-19 -92 6.5 -301.5t90.5 -296.5q4 -7 8 -9q3 -2 4 -3q17 -23 -12 -23l-1162 -2q-12 0 -15.5 7t1.5 13.5t14 6.5q40 1 70 13t45.5 29
t24.5 40t11.5 39.5t2.5 33.5v1690q0 17 -2.5 33.5t-11.5 39.5t-24.5 40t-45.5 29t-70 13q-9 0 -14 6.5t-1.5 13.5t15.5 7h1162q26 0 12 -24q-8 -4 -12 -11q-69 -94 -95 -205.5t-8 -189.5q1 -7 12 -17.5t18 -24.5t3 -34q-8 -29 -44 -37.5t-69.5 8.5t-33.5 50q0 21 9.5 56.5
t12.5 57.5q11 58 10.5 114.5t-22.5 105.5q-44 98 -211 98h-291q-40 -4 -68.5 -20t-41.5 -40.5t-18.5 -44.5t-6.5 -41v-636q6 -46 37 -82t98 -43q68 0 160 2q17 0 28.5 1t34 10.5t37 27t26 54t11.5 87.5q9 12 24.5 17t27 2.5t11.5 -9.5q-14 -89 -14 -227q0 -140 14 -226
q0 -7 -11.5 -9.5t-27 2.5t-24.5 18q0 36 -7.5 65.5t-19.5 48t-26.5 32t-29.5 20t-27 10t-20 4.5h-7h-160q-67 -5 -98 -41.5t-37 -81.5z" />
    <glyph glyph-name="Igrave" unicode="&#xcc;" horiz-adv-x="518" 
d="M197 2437h-115q-26 0 -33 -14.5t10 -36.5l220 -256q20 -23 36 -23q15 0 2 47l-75 248q-8 35 -45 35zM334 1872v-1690q0 -17 2.5 -33.5t12 -39t25 -39.5t45.5 -29.5t70 -13.5q9 0 13.5 -6.5t1 -13.5t-14.5 -7h-473q-11 0 -14.5 7t1 13.5t13.5 6.5q49 1 83 18.5t48.5 44.5
t19.5 48.5t5 43.5v1690q0 17 -2.5 33.5t-12 39.5t-25.5 40.5t-46 29.5t-70 13q-9 0 -13.5 6.5t-1 13t14.5 6.5h473q11 0 14.5 -6.5t-1 -13t-13.5 -6.5q-40 -1 -70 -13t-45.5 -29t-25 -40.5t-12 -40t-2.5 -33.5z" />
    <glyph glyph-name="Iacute" unicode="&#xcd;" horiz-adv-x="518" 
d="M389 2437h-115q-37 0 -45 -35l-75 -248q-13 -47 2 -47q17 0 37 23l219 256q17 22 10 36.5t-33 14.5zM334 1872v-1690q0 -17 2.5 -33.5t12 -39t25 -39.5t45.5 -29.5t70 -13.5q9 0 13.5 -6.5t1 -13.5t-14.5 -7h-473q-11 0 -14.5 7t1 13.5t13.5 6.5q49 1 83 18.5t48.5 44.5
t19.5 48.5t5 43.5v1690q0 17 -2.5 33.5t-12 39.5t-25.5 40.5t-46 29.5t-70 13q-9 0 -13.5 6.5t-1 13t14.5 6.5h473q11 0 14.5 -6.5t-1 -13t-13.5 -6.5q-40 -1 -70 -13t-45.5 -29t-25 -40.5t-12 -40t-2.5 -33.5z" />
    <glyph glyph-name="Icircumflex" unicode="&#xce;" horiz-adv-x="518" 
d="M461 2189l-144 254q-7 13 -20 13h-86q-14 0 -21 -11l-184 -256q-6 -7 -6 -13.5t6 -6.5q13 0 21 8l213 166q13 9 24 -2l176 -164q12 -8 21 -8q13 0 0 20zM334 1872v-1690q0 -17 2.5 -33.5t12 -39t25 -39.5t45.5 -29.5t70 -13.5q9 0 13.5 -6.5t1 -13.5t-14.5 -7h-473
q-11 0 -14.5 7t1 13.5t13.5 6.5q49 1 83 18.5t48.5 44.5t19.5 48.5t5 43.5v1690q0 17 -2.5 33.5t-12 39.5t-25.5 40.5t-46 29.5t-70 13q-9 0 -13.5 6.5t-1 13t14.5 6.5h473q11 0 14.5 -6.5t-1 -13t-13.5 -6.5q-40 -1 -70 -13t-45.5 -29t-25 -40.5t-12 -40t-2.5 -33.5z" />
    <glyph glyph-name="Idieresis" unicode="&#xcf;" horiz-adv-x="518" 
d="M78 2394q-50 0 -84.5 -34t-34.5 -83q0 -46 35 -80t84 -34q46 0 79 34t33 80q0 49 -33 83t-79 34zM428 2394q-50 0 -83.5 -34t-33.5 -83q0 -46 34 -80t83 -34q46 0 80.5 34t34.5 80q0 49 -34.5 83t-80.5 34zM334 1872v-1690q0 -17 2.5 -33.5t12 -39t25 -39.5t45.5 -29.5
t70 -13.5q9 0 13.5 -6.5t1 -13.5t-14.5 -7h-473q-11 0 -14.5 7t1 13.5t13.5 6.5q49 1 83 18.5t48.5 44.5t19.5 48.5t5 43.5v1690q0 17 -2.5 33.5t-12 39.5t-25.5 40.5t-46 29.5t-70 13q-9 0 -13.5 6.5t-1 13t14.5 6.5h473q11 0 14.5 -6.5t-1 -13t-13.5 -6.5q-40 -1 -70 -13
t-45.5 -29t-25 -40.5t-12 -40t-2.5 -33.5z" />
    <glyph glyph-name="Eth" unicode="&#xd0;" horiz-adv-x="1400" 
d="M172 2048h424q200 0 374 -100q305 -177 375 -602q19 -120 19 -256q0 -158 -19.5 -294.5t-52 -237t-79 -184.5t-97 -140.5t-109.5 -100t-112.5 -68t-111 -40.5t-99 -21t-82.5 -6h-586v2q-11 0 -14.5 7t1 13.5t13.5 6.5q49 1 83 18t48.5 44.5t19.5 49t5 43.5v793h-172v96
h172v795q0 22 -5 43.5t-19.5 49t-48.5 44.5t-83 18q-9 0 -13.5 6.5t-1 13.5t14.5 7h156zM336 975v-778q0 -16 2 -32t10.5 -38.5t23 -38.5t41.5 -27.5t64 -11.5h107q57 0 107.5 9.5t108.5 37.5t105 74.5t92.5 127t76 186.5t49 261t18.5 345q0 152 -18.5 279.5t-49.5 216
t-71.5 159t-85 112.5t-89.5 72.5t-85.5 42.5t-71.5 19t-50 7l-18 -1h-125q-35 0 -61.5 -11.5t-41 -28t-24 -38t-12 -38t-2.5 -32.5v-778h391v-96h-391z" />
    <glyph glyph-name="Ntilde" unicode="&#xd1;" horiz-adv-x="1372" 
d="M356 2195q16 0 19 19q15 68 31.5 89t54.5 21q15 0 39 -8q24 -10 80 -49q110 -76 184 -76q49 0 88 29q89 60 92 199q0 20 -14 20q-13 0 -19 -18q-13 -69 -32 -88q-25 -25 -54 -25q-40 0 -114 51q-83 55 -121 68q-34 12 -72 12q-73 0 -121 -55.5t-55 -169.5q0 -19 14 -19z
M1112 455l-782 1589h-316q-14 0 -13 -13.5t13 -13.5q47 0 80.5 -18t48 -43.5t22 -51t7.5 -43.5v-18v-1661q0 -23 -5 -44t-19 -48.5t-48 -44.5t-84 -18q-12 0 -13 -13.5t13 -13.5h426q11 0 14.5 7t-1 13.5t-13.5 6.5q-49 1 -83 18t-48 44.5t-19 49t-5 43.5v1508l860 -1688v-2
h82v1866q7 153 157 155q9 0 13.5 7.5t1 14.5t-14.5 7h-430q-11 0 -14.5 -7t1 -14.5t13.5 -7.5q41 -1 71 -13t46 -28.5t25 -39.5t11.5 -39.5t2.5 -34.5v-1411z" />
    <glyph glyph-name="Ograve" unicode="&#xd2;" horiz-adv-x="1607" 
d="M723 2437h-115q-26 0 -32.5 -14.5t10.5 -36.5l219 -256q20 -23 37 -23q15 0 2 47l-76 248q-8 35 -45 35zM1532 1057v-15q0 -32 -1 -64t-8 -108.5t-19 -144.5t-38 -159.5t-61 -166t-92 -151.5t-127 -129.5t-170 -85.5t-217 -33h-25q-412 0 -600 391q-120 248 -132 599
q-1 31 -1 67q0 169 26.5 311t70.5 242t105.5 178.5t126.5 126.5t139 79t138 42.5t127 11.5h25q63 0 126 -11.5t134.5 -42.5t135.5 -79t124 -126.5t104.5 -178.5t74 -242t34.5 -311zM799 59q53 1 101.5 13.5t101 43.5t96.5 79.5t84 126.5t67 179t42.5 243t13.5 313
q-2 163 -19 297t-44 228.5t-67 166.5t-82.5 116.5t-94 72.5t-99 39t-100.5 12h-25q-53 -1 -100.5 -12t-99 -39t-94 -72.5t-82.5 -116.5t-67 -166.5t-44 -228.5t-19 -297q2 -171 19 -313t44.5 -243t66.5 -179t82 -126.5t94.5 -79.5t99 -43.5t100.5 -13.5h8h17z" />
    <glyph glyph-name="Oacute" unicode="&#xd3;" horiz-adv-x="1607" 
d="M918 2437h-115q-37 0 -45 -35l-76 -248q-13 -47 2 -47q17 0 37 23l219 256q17 22 10.5 36.5t-32.5 14.5zM1532 1057v-15q0 -32 -1 -64t-8 -108.5t-19 -144.5t-38 -159.5t-61 -166t-92 -151.5t-127 -129.5t-170 -85.5t-217 -33h-25q-412 0 -600 391q-120 248 -132 599
q-1 31 -1 67q0 169 26.5 311t70.5 242t105.5 178.5t126.5 126.5t139 79t138 42.5t127 11.5h25q63 0 126 -11.5t134.5 -42.5t135.5 -79t124 -126.5t104.5 -178.5t74 -242t34.5 -311zM799 59q53 1 101.5 13.5t101 43.5t96.5 79.5t84 126.5t67 179t42.5 243t13.5 313
q-2 163 -19 297t-44 228.5t-67 166.5t-82.5 116.5t-94 72.5t-99 39t-100.5 12h-25q-53 -1 -100.5 -12t-99 -39t-94 -72.5t-82.5 -116.5t-67 -166.5t-44 -228.5t-19 -297q2 -171 19 -313t44.5 -243t66.5 -179t82 -126.5t94.5 -79.5t99 -43.5t100.5 -13.5h8h17z" />
    <glyph glyph-name="Ocircumflex" unicode="&#xd4;" horiz-adv-x="1607" 
d="M995 2189l-143 254q-6 13 -21 13h-86q-13 0 -20 -11l-184 -256q-6 -7 -6 -13.5t6 -6.5q12 0 20 8l213 166q13 10 25 -2l176 -164q12 -8 20 -8q13 0 0 20zM1532 1057v-15q0 -32 -1 -64t-8 -108.5t-19 -144.5t-38 -159.5t-61 -166t-92 -151.5t-127 -129.5t-170 -85.5
t-217 -33h-25q-412 0 -600 391q-120 248 -132 599q-1 31 -1 67q0 169 26.5 311t70.5 242t105.5 178.5t126.5 126.5t139 79t138 42.5t127 11.5h25q63 0 126 -11.5t134.5 -42.5t135.5 -79t124 -126.5t104.5 -178.5t74 -242t34.5 -311zM799 59q53 1 101.5 13.5t101 43.5
t96.5 79.5t84 126.5t67 179t42.5 243t13.5 313q-2 163 -19 297t-44 228.5t-67 166.5t-82.5 116.5t-94 72.5t-99 39t-100.5 12h-25q-53 -1 -100.5 -12t-99 -39t-94 -72.5t-82.5 -116.5t-67 -166.5t-44 -228.5t-19 -297q2 -171 19 -313t44.5 -243t66.5 -179t82 -126.5
t94.5 -79.5t99 -43.5t100.5 -13.5h8h17z" />
    <glyph glyph-name="Otilde" unicode="&#xd5;" horiz-adv-x="1607" 
d="M408 2195q15 0 18 19q15 68 31.5 89t54.5 21q15 0 39 -8q24 -10 80 -49q110 -76 184 -76q49 0 88 29q89 60 92 199q0 20 -14 20q-12 0 -18 -18q-13 -68 -33 -88q-25 -25 -53 -25q-41 0 -115 51q-83 55 -121 68q-34 12 -72 12q-73 0 -121 -55.5t-55 -169.5q0 -19 15 -19z
M1532 1057v-15q0 -32 -1 -64t-8 -108.5t-19 -144.5t-38 -159.5t-61 -166t-92 -151.5t-127 -129.5t-170 -85.5t-217 -33h-25q-412 0 -600 391q-120 248 -132 599q-1 31 -1 67q0 169 26.5 311t70.5 242t105.5 178.5t126.5 126.5t139 79t138 42.5t127 11.5h25q63 0 126 -11.5
t134.5 -42.5t135.5 -79t124 -126.5t104.5 -178.5t74 -242t34.5 -311zM799 59q53 1 101.5 13.5t101 43.5t96.5 79.5t84 126.5t67 179t42.5 243t13.5 313q-2 163 -19 297t-44 228.5t-67 166.5t-82.5 116.5t-94 72.5t-99 39t-100.5 12h-25q-53 -1 -100.5 -12t-99 -39t-94 -72.5
t-82.5 -116.5t-67 -166.5t-44 -228.5t-19 -297q2 -171 19 -313t44.5 -243t66.5 -179t82 -126.5t94.5 -79.5t99 -43.5t100.5 -13.5h8h17z" />
    <glyph glyph-name="Odieresis" unicode="&#xd6;" horiz-adv-x="1607" 
d="M573 2394q-50 0 -84 -34t-34 -83q0 -46 34.5 -80t83.5 -34q46 0 79.5 34t33.5 80q0 49 -33.5 83t-79.5 34zM924 2394q-50 0 -83.5 -34t-33.5 -83q0 -46 34 -80t83 -34q46 0 80 34t34 80q0 49 -34 83t-80 34zM1532 1057v-15q0 -32 -1 -64t-8 -108.5t-19 -144.5t-38 -159.5
t-61 -166t-92 -151.5t-127 -129.5t-170 -85.5t-217 -33h-25q-412 0 -600 391q-120 248 -132 599q-1 31 -1 67q0 169 26.5 311t70.5 242t105.5 178.5t126.5 126.5t139 79t138 42.5t127 11.5h25q63 0 126 -11.5t134.5 -42.5t135.5 -79t124 -126.5t104.5 -178.5t74 -242
t34.5 -311zM799 59q53 1 101.5 13.5t101 43.5t96.5 79.5t84 126.5t67 179t42.5 243t13.5 313q-2 163 -19 297t-44 228.5t-67 166.5t-82.5 116.5t-94 72.5t-99 39t-100.5 12h-25q-53 -1 -100.5 -12t-99 -39t-94 -72.5t-82.5 -116.5t-67 -166.5t-44 -228.5t-19 -297
q2 -171 19 -313t44.5 -243t66.5 -179t82 -126.5t94.5 -79.5t99 -43.5t100.5 -13.5h8h17z" />
    <glyph glyph-name="multiply" unicode="&#xd7;" horiz-adv-x="1361" 
d="M645 856l557 -553l88 90l-557 555l555 555l-88 88l-553 -553l-553 553l-90 -90l551 -553l-555 -555l90 -88z" />
    <glyph glyph-name="Oslash" unicode="&#xd8;" horiz-adv-x="1626" 
d="M1264 2124l-90 -195q337 -240 358 -872v-15q0 -32 -1 -64t-8 -108.5t-19 -144.5t-38 -159.5t-61 -166t-92 -151.5t-127 -129.5t-170 -85.5t-217 -33h-25q-243 0 -412 139l-96 -215h-119l134 297q-68 82 -117.5 194.5t-72 204.5t-35 200.5t-14 150t-1.5 86.5
q0 169 26.5 311t70.5 242t105.5 178.5t126.5 126.5t139 79t138 42.5t127 11.5h25q149 0 280 -63l64 139h121zM362 401l682 1506q-104 79 -245 82h-25q-53 -1 -100.5 -12t-99 -39t-94 -72.5t-82.5 -116.5t-67 -166.5t-44 -228.5t-19 -297q3 -407 94 -656zM1126 1823
l-702 -1551q124 -206 350 -213h8h17q53 1 101.5 13.5t101 43.5t96.5 79.5t84 126.5t67 179t42.5 243t13.5 313q-5 539 -179 766z" />
    <glyph glyph-name="Ugrave" unicode="&#xd9;" horiz-adv-x="1331" 
d="M614 2437h-114q-26 0 -33 -14.5t10 -36.5l219 -256q20 -23 37 -23q15 0 2 47l-76 248q-8 35 -45 35zM1303 2048h-455q-9 0 -12.5 -6t0.5 -12.5t12 -6.5q48 -1 80.5 -18t46 -43t18 -46t4.5 -42v-1368q0 -18 -1 -38t-8.5 -68.5t-21 -90t-42 -92t-67.5 -85.5t-102 -59
t-141 -24q-81 0 -143 23t-97.5 61t-59.5 83t-33 94t-12 88t-3.5 71t-1.5 37v1386q2 22 9 41.5t22 41t45.5 34.5t71.5 14q9 0 13.5 6.5t1 12.5t-14.5 6h-459q-9 0 -12.5 -6t0.5 -12.5t12 -6.5q47 -1 79.5 -18t46 -43t18.5 -46.5t5 -41.5v-1299q0 -119 3 -154
q41 -421 526 -421q102 0 184 22.5t136 57t93.5 87.5t60 102.5t32.5 114.5t15 111.5t3 104.5v1274q0 21 4.5 41.5t18 46.5t46 43t79.5 18q9 0 13.5 6.5t1 12.5t-14.5 6z" />
    <glyph glyph-name="Uacute" unicode="&#xda;" horiz-adv-x="1331" 
d="M864 2437h-114q-37 0 -45 -35l-76 -248q-13 -47 2 -47q17 0 37 23l219 256q17 22 10 36.5t-33 14.5zM1303 2048h-455q-9 0 -12.5 -6t0.5 -12.5t12 -6.5q48 -1 80.5 -18t46 -43t18 -46t4.5 -42v-1368q0 -18 -1 -38t-8.5 -68.5t-21 -90t-42 -92t-67.5 -85.5t-102 -59
t-141 -24q-81 0 -143 23t-97.5 61t-59.5 83t-33 94t-12 88t-3.5 71t-1.5 37v1386q2 22 9 41.5t22 41t45.5 34.5t71.5 14q9 0 13.5 6.5t1 12.5t-14.5 6h-459q-9 0 -12.5 -6t0.5 -12.5t12 -6.5q47 -1 79.5 -18t46 -43t18.5 -46.5t5 -41.5v-1299q0 -119 3 -154
q41 -421 526 -421q102 0 184 22.5t136 57t93.5 87.5t60 102.5t32.5 114.5t15 111.5t3 104.5v1274q0 21 4.5 41.5t18 46.5t46 43t79.5 18q9 0 13.5 6.5t1 12.5t-14.5 6z" />
    <glyph glyph-name="Ucircumflex" unicode="&#xdb;" horiz-adv-x="1331" 
d="M905 2189l-143 254q-6 13 -21 13h-86q-13 0 -20 -11l-184 -256q-6 -7 -6 -13.5t6 -6.5q12 0 20 8l213 166q13 10 25 -2l176 -164q12 -8 20 -8q13 0 0 20zM1303 2048h-455q-9 0 -12.5 -6t0.5 -12.5t12 -6.5q48 -1 80.5 -18t46 -43t18 -46t4.5 -42v-1368q0 -18 -1 -38
t-8.5 -68.5t-21 -90t-42 -92t-67.5 -85.5t-102 -59t-141 -24q-81 0 -143 23t-97.5 61t-59.5 83t-33 94t-12 88t-3.5 71t-1.5 37v1386q2 22 9 41.5t22 41t45.5 34.5t71.5 14q9 0 13.5 6.5t1 12.5t-14.5 6h-459q-9 0 -12.5 -6t0.5 -12.5t12 -6.5q47 -1 79.5 -18t46 -43
t18.5 -46.5t5 -41.5v-1299q0 -119 3 -154q41 -421 526 -421q102 0 184 22.5t136 57t93.5 87.5t60 102.5t32.5 114.5t15 111.5t3 104.5v1274q0 21 4.5 41.5t18 46.5t46 43t79.5 18q9 0 13.5 6.5t1 12.5t-14.5 6z" />
    <glyph glyph-name="Udieresis" unicode="&#xdc;" horiz-adv-x="1331" 
d="M508 2394q-50 0 -84.5 -34t-34.5 -83q0 -46 35 -80t84 -34q46 0 79.5 34t33.5 80q0 49 -33.5 83t-79.5 34zM858 2394q-50 0 -83.5 -34t-33.5 -83q0 -46 34 -80t83 -34q46 0 80.5 34t34.5 80q0 49 -34.5 83t-80.5 34zM1303 2048h-455q-9 0 -12.5 -6t0.5 -12.5t12 -6.5
q48 -1 80.5 -18t46 -43t18 -46t4.5 -42v-1368q0 -18 -1 -38t-8.5 -68.5t-21 -90t-42 -92t-67.5 -85.5t-102 -59t-141 -24q-81 0 -143 23t-97.5 61t-59.5 83t-33 94t-12 88t-3.5 71t-1.5 37v1386q2 22 9 41.5t22 41t45.5 34.5t71.5 14q9 0 13.5 6.5t1 12.5t-14.5 6h-459
q-9 0 -12.5 -6t0.5 -12.5t12 -6.5q47 -1 79.5 -18t46 -43t18.5 -46.5t5 -41.5v-1299q0 -119 3 -154q41 -421 526 -421q102 0 184 22.5t136 57t93.5 87.5t60 102.5t32.5 114.5t15 111.5t3 104.5v1274q0 21 4.5 41.5t18 46.5t46 43t79.5 18q9 0 13.5 6.5t1 12.5t-14.5 6z" />
    <glyph glyph-name="Yacute" unicode="&#xdd;" horiz-adv-x="1294" 
d="M926 2437h-115q-37 0 -45 -35l-76 -248q-13 -47 2 -47q17 0 37 23l219 256q17 22 10.5 36.5t-32.5 14.5zM1311 2048h-371q-11 0 -14.5 -7t1 -13.5t13.5 -6.5q41 0 65 -12t30 -29t6 -34t-5 -29l-4 -12l-344 -824l-344 811q-45 129 84 129q8 0 12.5 6.5t1.5 13.5t-14 7
h-434q-14 0 -13 -13.5t13 -13.5q33 -1 56 -6.5t37.5 -19t22 -24t19 -33t18.5 -33.5l428 -949v-774q0 -22 -5 -43.5t-19 -49t-48 -44.5t-83 -18q-9 0 -13.5 -6.5t-1 -13.5t14.5 -7h477q11 0 14.5 7t-1 13.5t-13.5 6.5q-49 1 -83 18t-48.5 44.5t-19.5 49t-5 43.5v774l406 973
q1 4 3.5 10t14.5 22t28 28t47.5 22t70.5 10q8 0 12.5 6.5t1.5 13.5t-14 7z" />
    <glyph glyph-name="Thorn" unicode="&#xde;" horiz-adv-x="1030" 
d="M334 1804v-270q71 27 131 29q88 4 170 -20.5t149 -76t115.5 -122.5t71 -165.5t12.5 -199.5q-21 -229 -153 -365.5t-361 -142.5q-55 -6 -135 18v-313q0 -17 2.5 -33.5t12 -39.5t25 -40t45.5 -29.5t70 -13.5q9 0 13.5 -6.5t1 -13t-14.5 -6.5h-473q-11 0 -14.5 6.5t1 13
t13.5 6.5q40 1 70 13.5t46 29.5t25.5 40t12 39.5t2.5 33.5v1628q0 17 -2.5 33.5t-12 39.5t-25.5 40.5t-46 29.5t-70 13q-9 0 -13.5 7t-1 13.5t14.5 6.5h473q11 0 14.5 -6.5t-1 -13.5t-13.5 -7q-40 -1 -70 -13t-45.5 -29t-25 -40.5t-12 -40t-2.5 -33.5zM334 1464v-925
q69 -25 145 -17l3 1q13 1 26 4t44.5 16t57.5 32.5t59 57.5t57 87t43 126t24 170q7 133 -24 240.5t-108 178.5t-192 78q-77 6 -129 -43z" />
    <glyph glyph-name="divide" unicode="&#xf7;" horiz-adv-x="1380" 
d="M655 1434q-47 0 -81.5 -34t-34.5 -81q0 -49 34 -83t82 -34t81.5 34t33.5 83q0 47 -34 81t-81 34zM0 961v-125h1309v125h-1309zM655 596q-47 0 -81.5 -34t-34.5 -81q0 -49 34 -82.5t82 -33.5t81.5 33.5t33.5 82.5q0 47 -34 81t-81 34z" />
    <glyph glyph-name="IJ" unicode="&#x132;" horiz-adv-x="1509" 
d="M313 1872v-1690q0 -22 5 -43.5t19.5 -48.5t48.5 -44.5t83 -18.5q9 0 13.5 -6.5t1 -13.5t-14.5 -7h-473q-11 0 -14.5 7t1 13.5t13.5 6.5q49 1 83 18.5t48.5 44.5t19.5 48.5t5 43.5v1690q0 17 -2.5 33.5t-12 39.5t-25.5 40.5t-46 29.5t-70 13q-9 0 -13.5 6.5t-1 13
t14.5 6.5h473q11 0 14.5 -6.5t-1 -13t-13.5 -6.5q-40 -1 -70 -13t-46 -29.5t-25.5 -40.5t-12 -39.5t-2.5 -33.5zM842 1995h227q44 -4 73.5 -21.5t42 -44t17 -47.5t4.5 -43v-1337q0 -109 -27 -197t-70 -140t-93.5 -79t-102.5 -27q-37 0 -55 2q-152 9 -227 99q-28 36 -43.5 73
t-17 65t4 50.5t15.5 34.5t20 12q7 0 19 -6q9 -6 22 -6q31 0 58 30.5t24 59.5q-6 42 -33.5 63t-62.5 21q-31 0 -55 -14q-51 -33 -78.5 -98.5t-14.5 -153.5q4 -25 16.5 -55t42.5 -70.5t70.5 -74t108.5 -59t150 -30.5q10 -2 36 -2q62 0 124.5 16.5t122.5 54t106 91t74 133.5
t28 176v1395q0 20 8 43.5t26 49.5t55 43.5t87 18.5q8 0 12.5 6.5t1.5 13.5t-14 7h-940q-11 0 -14.5 -7t1 -13.5t13.5 -6.5q25 0 38.5 -32.5t13.5 -65.5l1 -33q0 -75 -4 -104q-12 -29 18 -36q32 -8 57 14q14 14 15 32q0 31 2.5 57.5t7.5 45t10 33.5t13.5 24.5t14.5 16.5
t15.5 11t13.5 5.5t13 3.5z" />
    <glyph glyph-name="Ldot" unicode="&#x13f;" horiz-adv-x="1232" 
d="M334 1864v-1657q0 -21 4.5 -41.5t16.5 -46.5t41.5 -44t72.5 -22h291q166 0 211 99q24 57 23 175t-25 253q-11 91 -11 110q1 47 35 68t72 9.5t49 -46.5q6 -30 0 -42.5t-19 -26t-14 -19.5q-19 -92 6.5 -301.5t90.5 -296.5q4 -7 8 -9q3 -2 4 -3q17 -23 -12 -23h-1162
q-11 0 -14.5 7t1 13.5t13.5 6.5q40 1 70 13t46 28.5t25.5 39.5t12 40t2.5 34v1682q0 22 -5 43.5t-19.5 49t-48.5 44.5t-83 18q-9 0 -13.5 6.5t-1 13.5t14.5 7h156h162h155q11 0 14 -7t-1.5 -13.5t-12.5 -6.5q-49 -1 -83 -18t-48 -44.5t-19 -49t-5 -43.5zM672 1122
q-61 0 -104.5 -42.5t-43.5 -102.5q0 -61 43 -104.5t105 -43.5q60 0 102.5 43.5t42.5 104.5q0 60 -42 102.5t-103 42.5z" />
    <glyph glyph-name="OE" unicode="&#x152;" horiz-adv-x="2129" 
d="M1329 55h291q166 0 211 99q25 55 24 175t-26 253q-3 17 -7.5 39.5t-7 38t-2.5 32.5q0 42 36 63.5t76 12t50 -44.5q6 -30 0.5 -42.5t-18.5 -26t-14 -19.5q-19 -92 6 -301.5t90 -296.5q4 -7 8 -9q3 -2 4 -3q17 -23 -12 -23h-1264q-412 0 -600 391q-120 248 -132 599
q-1 31 -1 67q0 169 26.5 311t70.5 242t105.5 178.5t126.5 126.5t139 79t138 42.5t127 11.5l25 4h1239q26 0 12 -24q-8 -4 -12 -11q-69 -94 -95 -205.5t-8 -189.5q1 -7 12 -17.5t18 -24.5t3 -34q-8 -29 -44 -37.5t-69.5 8.5t-33.5 50q0 21 9.5 56.5t12.5 57.5
q11 58 10.5 114.5t-22.5 105.5q-44 98 -211 98h-291q-40 -4 -68.5 -20t-41.5 -40.5t-18.5 -44.5t-6.5 -41v-636q6 -46 37 -82t98 -43q68 0 160 2q17 0 28.5 1t34 10.5t37 27t26 54t11.5 87.5q9 12 25 17t27.5 2.5t11.5 -9.5q-15 -95 -15 -227q0 -133 15 -225q0 -7 -11.5 -10
t-27.5 2t-25 18q0 36 -7.5 65.5t-19.5 48t-26.5 32t-29.5 20t-27 10t-20 4.5h-7h-160q-67 -5 -98 -41.5t-37 -81.5v-700q1 -21 6.5 -41t18.5 -44.5t41.5 -40.5t68.5 -20zM782 61h17q124 3 225 70q6 30 6 51v1690q0 26 -8 53q-96 63 -223 66h-25q-53 -1 -100.5 -12t-99 -39
t-94 -72.5t-82.5 -116.5t-67 -166.5t-44 -228.5t-19 -297q2 -171 19 -313t44.5 -243t66.5 -179t82 -126.5t94.5 -79.5t99 -43.5t100.5 -13.5h8z" />
    <glyph glyph-name="Wcircumflex" unicode="&#x174;" horiz-adv-x="2125" 
d="M1247 2189l-143 254q-6 13 -21 13h-86q-13 0 -20 -11l-184 -256q-6 -7 -6 -13.5t6 -6.5q12 0 20 8l213 166q13 10 25 -2l176 -164q12 -8 20 -8q13 0 0 20zM2179 2048h-424q-13 0 -12 -14.5t12 -14.5q63 0 79 -31t11 -102l-368 -1519l-359 1497q-4 40 -5.5 74.5t20 57.5
t69.5 23q12 0 12.5 14.5t-12.5 14.5h-393q-17 0 -15.5 -18.5t15.5 -18.5q32 1 56 -5t37.5 -14.5t25 -27.5t16.5 -33t13 -42t14 -44l106 -491l-315 -987l-412 1497q-5 40 -7 74.5t18.5 57.5t66.5 23q12 0 13 14.5t-13 14.5h-426q-18 0 -17 -18.5t17 -18.5q36 2 68.5 -14.5
t53.5 -41.5t36.5 -50t22.5 -43l7 -17l504 -1845h74l362 1139l281 -1139h76l477 1855l5.5 16.5t20 37.5t38.5 47.5t62 37.5t89 17q14 0 15.5 18.5t-15.5 18.5z" />
    <glyph glyph-name="Ycircumflex" unicode="&#x176;" horiz-adv-x="1294" 
d="M942 2189l-143 254q-7 13 -21 13h-86q-13 0 -20 -11l-185 -256q-6 -7 -6 -13.5t6 -6.5q13 0 21 8l213 166q13 9 24 -2l177 -164q12 -8 20 -8q13 0 0 20zM1311 2048h-371q-11 0 -14.5 -7t1 -13.5t13.5 -6.5q41 0 65 -12t30 -29t6 -34t-5 -29l-4 -12l-344 -824l-344 811
q-45 129 84 129q8 0 12.5 6.5t1.5 13.5t-14 7h-434q-14 0 -13 -13.5t13 -13.5q33 -1 56 -6.5t37.5 -19t22 -24t19 -33t18.5 -33.5l428 -949v-774q0 -22 -5 -43.5t-19 -49t-48 -44.5t-83 -18q-9 0 -13.5 -6.5t-1 -13.5t14.5 -7h477q11 0 14.5 7t-1 13.5t-13.5 6.5
q-49 1 -83 18t-48.5 44.5t-19.5 49t-5 43.5v774l406 973q1 4 3.5 10t14.5 22t28 28t47.5 22t70.5 10q8 0 12.5 6.5t1.5 13.5t-14 7z" />
    <glyph glyph-name="Ydieresis" unicode="&#x178;" horiz-adv-x="1294" 
d="M524 2394q-50 0 -84 -34t-34 -83q0 -46 34.5 -80t83.5 -34q46 0 79.5 34t33.5 80q0 49 -33.5 83t-79.5 34zM874 2394q-49 0 -82.5 -33.5t-33.5 -83.5q0 -46 33.5 -80t82.5 -34q46 0 80.5 34t34.5 80q0 49 -34.5 83t-80.5 34zM1311 2048h-371q-11 0 -14.5 -7t1 -13.5
t13.5 -6.5q41 0 65 -12t30 -29t6 -34t-5 -29l-4 -12l-344 -824l-344 811q-45 129 84 129q8 0 12.5 6.5t1.5 13.5t-14 7h-434q-14 0 -13 -13.5t13 -13.5q33 -1 56 -6.5t37.5 -19t22 -24t19 -33t18.5 -33.5l428 -949v-774q0 -22 -5 -43.5t-19 -49t-48 -44.5t-83 -18
q-9 0 -13.5 -6.5t-1 -13.5t14.5 -7h477q11 0 14.5 7t-1 13.5t-13.5 6.5q-49 1 -83 18t-48.5 44.5t-19.5 49t-5 43.5v774l406 973q1 4 3.5 10t14.5 22t28 28t47.5 22t70.5 10q8 0 12.5 6.5t1.5 13.5t-14 7z" />
    <glyph glyph-name="circumflex" unicode="&#x2c6;" horiz-adv-x="538" 
d="M461 2189l-144 254q-7 13 -20 13h-86q-14 0 -21 -11l-184 -256q-6 -7 -6 -13.5t6 -6.5q13 0 21 8l213 166q13 9 24 -2l176 -164q12 -8 21 -8q13 0 0 20z" />
    <glyph glyph-name="caron" unicode="&#x2c7;" horiz-adv-x="538" 
d="M317 2161l144 254q13 20 0 20q-9 0 -21 -8l-176 -164q-11 -11 -24 -2l-213 166q-8 8 -21 8q-6 0 -6 -6.5t6 -13.5l184 -256q7 -11 21 -11h86q13 0 20 13z" />
    <glyph glyph-name="breve" unicode="&#x2d8;" horiz-adv-x="538" 
d="M10 2353q-18 0 -6 -45q20 -84 83.5 -135t145.5 -51t146 51t84 135q3 15 2.5 25t-3.5 15t-7 5q-10 0 -29 -31q-52 -75 -193 -75q-136 0 -194 80q-17 26 -29 26z" />
    <glyph glyph-name="dotaccent" unicode="&#x2d9;" horiz-adv-x="325" 
d="M129 2423q-54 0 -91.5 -37.5t-37.5 -91.5q0 -51 37.5 -88t91.5 -37q51 0 88 37t37 88q0 54 -37 91.5t-88 37.5z" />
    <glyph glyph-name="ring" unicode="&#x2da;" horiz-adv-x="446" 
d="M186 2529q-78 0 -132 -55t-54 -133t54.5 -133.5t131.5 -55.5q78 0 133.5 55.5t55.5 133.5t-55.5 133t-133.5 55zM186 2462q51 0 85 -35t34 -86q0 -50 -34 -84.5t-85 -34.5t-84.5 34.5t-33.5 84.5q0 51 33.5 86t84.5 35z" />
    <glyph glyph-name="ogonek" unicode="&#x2db;" horiz-adv-x="307" 
d="M49 -94q18 27 56 60.5t73 56.5q4 4 17 4q6 0 6 -5.5t-6 -11.5q-53 -57 -64 -73q-39 -60 -39 -103q-2 -38 18.5 -63t55.5 -25q17 0 49 12q13 6 18 -4q3 -10 -4 -18q-58 -55 -118 -55q-53 0 -82 32q-29 37 -29 80q3 61 49 113z" />
    <glyph glyph-name="tilde" unicode="&#x2dc;" horiz-adv-x="673" 
d="M14 2195q16 0 19 19q15 68 31.5 89t54.5 21q15 0 39 -8q24 -10 80 -49q110 -76 184 -76q49 0 88 29q89 60 92 199q0 20 -14 20q-13 0 -19 -18q-13 -69 -32 -88q-25 -25 -54 -25q-40 0 -114 51q-83 55 -121 68q-34 12 -72 12q-73 0 -121 -55.5t-55 -169.5q0 -19 14 -19z
" />
    <glyph glyph-name="hungarumlaut" unicode="&#x2dd;" horiz-adv-x="696" 
d="M272 2648h-114q-36 0 -45 -35l-111 -372q-6 -21 4.5 -33.5t32.5 -12.5h24q33 0 48 31l192 375q10 20 1 33.5t-32 13.5zM588 2648h-115q-33 0 -45 -35l-131 -372q-7 -21 3.5 -33.5t33.5 -12.5h24q29 0 48 31l212 375q10 20 1.5 33.5t-31.5 13.5z" />
    <glyph glyph-name="Wgrave" unicode="&#x1e80;" horiz-adv-x="2125" 
d="M1040 2437h-114q-26 0 -33 -14.5t10 -36.5l219 -256q20 -23 37 -23q15 0 2 47l-76 248q-8 35 -45 35zM2179 2048h-424q-13 0 -12 -14.5t12 -14.5q63 0 79 -31t11 -102l-368 -1519l-359 1497q-4 40 -5.5 74.5t20 57.5t69.5 23q12 0 12.5 14.5t-12.5 14.5h-393
q-17 0 -15.5 -18.5t15.5 -18.5q32 1 56 -5t37.5 -14.5t25 -27.5t16.5 -33t13 -42t14 -44l106 -491l-315 -987l-412 1497q-5 40 -7 74.5t18.5 57.5t66.5 23q12 0 13 14.5t-13 14.5h-426q-18 0 -17 -18.5t17 -18.5q36 2 68.5 -14.5t53.5 -41.5t36.5 -50t22.5 -43l7 -17
l504 -1845h74l362 1139l281 -1139h76l477 1855l5.5 16.5t20 37.5t38.5 47.5t62 37.5t89 17q14 0 15.5 18.5t-15.5 18.5z" />
    <glyph glyph-name="Wacute" unicode="&#x1e82;" horiz-adv-x="2125" 
d="M1176 2437h-115q-37 0 -45 -35l-76 -248q-13 -47 2 -47q17 0 37 23l219 256q17 22 10.5 36.5t-32.5 14.5zM2179 2048h-424q-13 0 -12 -14.5t12 -14.5q63 0 79 -31t11 -102l-368 -1519l-359 1497q-4 40 -5.5 74.5t20 57.5t69.5 23q12 0 12.5 14.5t-12.5 14.5h-393
q-17 0 -15.5 -18.5t15.5 -18.5q32 1 56 -5t37.5 -14.5t25 -27.5t16.5 -33t13 -42t14 -44l106 -491l-315 -987l-412 1497q-5 40 -7 74.5t18.5 57.5t66.5 23q12 0 13 14.5t-13 14.5h-426q-18 0 -17 -18.5t17 -18.5q36 2 68.5 -14.5t53.5 -41.5t36.5 -50t22.5 -43l7 -17
l504 -1845h74l362 1139l281 -1139h76l477 1855l5.5 16.5t20 37.5t38.5 47.5t62 37.5t89 17q14 0 15.5 18.5t-15.5 18.5z" />
    <glyph glyph-name="Wdieresis" unicode="&#x1e84;" horiz-adv-x="2125" 
d="M879 2394q-50 0 -84.5 -34t-34.5 -83q0 -46 35 -80t84 -34q46 0 79 34t33 80q0 49 -33 83t-79 34zM1229 2394q-49 0 -83 -34t-34 -83q0 -46 34 -80t83 -34q46 0 80 34t34 80q0 49 -34 83t-80 34zM2179 2048h-424q-13 0 -12 -14.5t12 -14.5q63 0 79 -31t11 -102
l-368 -1519l-359 1497q-4 40 -5.5 74.5t20 57.5t69.5 23q12 0 12.5 14.5t-12.5 14.5h-393q-17 0 -15.5 -18.5t15.5 -18.5q32 1 56 -5t37.5 -14.5t25 -27.5t16.5 -33t13 -42t14 -44l106 -491l-315 -987l-412 1497q-5 40 -7 74.5t18.5 57.5t66.5 23q12 0 13 14.5t-13 14.5
h-426q-18 0 -17 -18.5t17 -18.5q36 2 68.5 -14.5t53.5 -41.5t36.5 -50t22.5 -43l7 -17l504 -1845h74l362 1139l281 -1139h76l477 1855l5.5 16.5t20 37.5t38.5 47.5t62 37.5t89 17q14 0 15.5 18.5t-15.5 18.5z" />
    <glyph glyph-name="Ygrave" unicode="&#x1ef2;" horiz-adv-x="1294" 
d="M643 2437h-115q-26 0 -32.5 -14.5t10.5 -36.5l219 -256q20 -23 37 -23q15 0 2 47l-76 248q-8 35 -45 35zM1311 2048h-371q-11 0 -14.5 -7t1 -13.5t13.5 -6.5q41 0 65 -12t30 -29t6 -34t-5 -29l-4 -12l-344 -824l-344 811q-45 129 84 129q8 0 12.5 6.5t1.5 13.5t-14 7
h-434q-14 0 -13 -13.5t13 -13.5q33 -1 56 -6.5t37.5 -19t22 -24t19 -33t18.5 -33.5l428 -949v-774q0 -22 -5 -43.5t-19 -49t-48 -44.5t-83 -18q-9 0 -13.5 -6.5t-1 -13.5t14.5 -7h477q11 0 14.5 7t-1 13.5t-13.5 6.5q-49 1 -83 18t-48.5 44.5t-19.5 49t-5 43.5v774l406 973
q1 4 3.5 10t14.5 22t28 28t47.5 22t70.5 10q8 0 12.5 6.5t1.5 13.5t-14 7z" />
    <glyph glyph-name="endash" unicode="&#x2013;" horiz-adv-x="1101" 
d="M0 659v-49h1030v49h-1030z" />
    <glyph glyph-name="emdash" unicode="&#x2014;" horiz-adv-x="2058" 
d="M0 659v-49h1987v49h-1987z" />
    <glyph glyph-name="quoteleft" unicode="&#x2018;" horiz-adv-x="380" 
d="M223 2056q-26 -12 -63.5 -53.5t-73.5 -97t-61 -123.5t-25 -125q0 -102 52 -161.5t134 -53.5q54 4 88.5 40.5t34.5 84.5q0 45 -24.5 76.5t-69.5 31.5q-39 0 -58 48q-29 70 15 159q35 71 107 129q25 22 10 44.5t-46 11.5q-11 -4 -20 -11z" />
    <glyph glyph-name="quoteright" unicode="&#x2019;" horiz-adv-x="380" 
d="M86 1434q26 12 63.5 53.5t73.5 97t61 123.5t25 125q0 102 -52 161.5t-134 53.5q-54 -4 -88.5 -40.5t-34.5 -84.5q0 -45 24.5 -76.5t69.5 -31.5q39 0 59 -48q28 -70 -14 -158q-34 -71 -108 -130q-25 -23 -10 -45q16 -23 46 -11z" />
    <glyph glyph-name="quotesinglbase" unicode="&#x201a;" horiz-adv-x="462" 
d="M68 -172q39 -26 83.5 -20.5t82.5 28t64 67t28 97.5q3 92 -35.5 145.5t-106.5 47.5q-45 -4 -72.5 -34t-27.5 -69q0 -40 21 -67t59 -27q15 0 31 8q14 7 27.5 7.5t24.5 -10.5t11 -36q0 -39 -33 -69.5t-75 -36.5t-82 12q-15 -6 -12.5 -20.5t12.5 -22.5z" />
    <glyph glyph-name="quotedblleft" unicode="&#x201c;" horiz-adv-x="784" 
d="M279 2028q-47 28 -95.5 21t-88 -34t-66 -76.5t-29.5 -107.5q-5 -95 49.5 -158t136.5 -57q54 4 88.5 40.5t34.5 84.5q0 45 -24.5 76.5t-69.5 31.5q-17 0 -37 -8q-22 -13 -48 -5t-26 46q0 67 55 99.5t120 0.5q18 6 15 22t-15 24zM662 2028q-47 28 -95.5 21t-88 -34
t-66 -76.5t-29.5 -107.5q-5 -95 49.5 -158t136.5 -57q54 4 88.5 40.5t34.5 84.5q0 45 -24.5 76.5t-69.5 31.5q-17 0 -37 -8q-22 -13 -48 -5t-26 46q0 67 55 99.5t120 0.5q18 6 15 22t-15 24z" />
    <glyph glyph-name="quotedblright" unicode="&#x201d;" horiz-adv-x="845" 
d="M113 1636q47 -28 95 -21t87.5 34t66 76.5t29.5 107.5q5 95 -49.5 158t-136.5 57q-54 -4 -88.5 -40.5t-34.5 -84.5q0 -45 24.5 -76.5t69.5 -31.5q17 0 37 8q22 13 48 5t26 -46q0 -67 -54.5 -100t-119.5 -1q-18 -6 -15 -21.5t15 -23.5zM496 1636q47 -28 95 -21t87.5 34
t66 76.5t29.5 107.5q5 95 -49.5 158t-136.5 57q-54 -4 -88.5 -40.5t-34.5 -84.5q0 -45 24.5 -76.5t69.5 -31.5q17 0 37 8q22 13 48 5t26 -46q0 -67 -54.5 -100t-119.5 -1q-18 -6 -15 -21.5t15 -23.5z" />
    <glyph glyph-name="quotedblbase" unicode="&#x201e;" horiz-adv-x="647" 
d="M68 -172q39 -26 83.5 -20.5t82.5 28t64 67t28 97.5q3 92 -35.5 145.5t-106.5 47.5q-45 -4 -72.5 -34t-27.5 -69q0 -40 21 -67t59 -27q15 0 31 8q14 7 27.5 7.5t24.5 -10.5t11 -36q0 -39 -33 -69.5t-75 -36.5t-82 12q-15 -6 -12.5 -20.5t12.5 -22.5zM395 -172
q39 -26 83.5 -20.5t82.5 28t64 67t28 97.5q3 92 -35 145.5t-106 47.5q-45 -4 -72.5 -34t-27.5 -69q0 -40 21 -67t59 -27q14 0 30 8q14 7 28 7.5t25 -10.5t11 -36q0 -39 -33 -69.5t-75.5 -36.5t-82.5 12q-15 -6 -12.5 -20.5t12.5 -22.5z" />
    <glyph glyph-name="dagger" unicode="&#x2020;" horiz-adv-x="1042" 
d="M496 -213q-22 0 -25 41q-23 767 -39 909q-16 186 -70 398q-8 30 17 55q74 74 90 213q3 23 -8 34.5t-33 8.5q-43 -5 -111 -37q-135 -55 -194 -55q-52 0 -87.5 33t-35.5 81t35.5 80.5t91.5 32.5q26 0 53 -6q25 -4 135 -49q55 -22 113 -31q22 -3 33 8t8 33q-11 60 -43 139
q-45 105 -53 150q-11 34 -11 71q0 62 39.5 107t90.5 45q55 0 93 -43t38 -109q0 -80 -62 -231q-38 -87 -43 -129q-3 -22 9 -33t34 -8q54 8 111 31q29 12 62 25.5t46 19t17 6.5q28 8 55 8q51 0 86 -34.5t35 -82.5q0 -50 -33.5 -82t-85.5 -32q-50 0 -182 53q-49 21 -109 35
q-22 5 -34 -6.5t-9 -34.5q7 -74 28 -121t62 -90q25 -25 17 -55q-55 -215 -74 -414q-33 -295 -37 -893q0 -41 -20 -41z" />
    <glyph glyph-name="daggerdbl" unicode="&#x2021;" horiz-adv-x="1044" 
d="M852 1264q51 0 86 -34.5t35 -82.5q0 -50 -33.5 -82.5t-85.5 -32.5q-50 0 -182 53q-52 22 -107 35q4 -14 12.5 -51.5t16.5 -68t16 -48.5q1 -3 7.5 -16.5t8 -19t4 -19.5t-2.5 -18q-50 -107 -74 -355q-35 -306 -37 -696q0 -41 -20 -41q-22 0 -25 41q-15 503 -39 713
q-20 230 -70 338q-10 23 17 77q8 17 16 46.5t17 69.5t12 52q-42 -5 -107 -37q-135 -55 -194 -55q-52 0 -87.5 33.5t-35.5 81.5t35.5 80.5t91.5 32.5q21 0 53 -7q25 -4 135 -49q51 -20 113 -30h6q23 116 35 229q3 23 -8 34.5t-33 8.5q-43 -5 -111 -37q-135 -55 -194 -55
q-52 0 -87.5 33t-35.5 81t35.5 80.5t91.5 32.5q26 0 53 -6q25 -4 135 -49q55 -22 113 -31q22 -3 33 8t8 33q-11 60 -43 139q-45 105 -53 150q-11 34 -11 71q0 62 39.5 107t90.5 45q55 0 93 -43t38 -109q0 -80 -62 -231q-38 -87 -43 -129q-3 -22 9 -33t34 -8q54 8 111 31
q29 12 62 25.5t46 19t17 6.5q28 8 55 8q51 0 86 -34.5t35 -82.5q0 -50 -33.5 -82t-85.5 -32q-50 0 -182 53q-49 21 -109 35q-22 5 -34 -6.5t-9 -34.5q15 -136 33 -227h8q59 9 111 30q29 12 62 25.5t46 19t17 6.5q32 9 55 9z" />
    <glyph glyph-name="bullet" unicode="&#x2022;" horiz-adv-x="638" 
d="M283 1266q-118 0 -200.5 -83t-82.5 -202q0 -118 83 -201.5t200 -83.5q120 0 202 83t82 202t-82 202t-202 83z" />
    <glyph glyph-name="ellipsis" unicode="&#x2026;" horiz-adv-x="2138" 
d="M371 293q-60 0 -103 -44t-43 -104t43 -102.5t103 -42.5t102.5 42.5t42.5 102.5q0 61 -42 104.5t-103 43.5zM1001 293q-60 0 -102.5 -44t-42.5 -104t42.5 -102.5t102.5 -42.5t103 42.5t43 102.5q0 61 -42.5 104.5t-103.5 43.5zM1634 293q-60 0 -102.5 -44t-42.5 -104
t42.5 -102.5t102.5 -42.5t103 42.5t43 102.5q0 61 -42.5 104.5t-103.5 43.5z" />
    <glyph glyph-name="perthousand" unicode="&#x2030;" horiz-adv-x="2093" 
d="M1176 2048l-928 -2048h119l929 2048h-120zM422 1948q131 0 201.5 -102t70.5 -263q0 -158 -75.5 -262t-196.5 -104q-124 0 -201.5 102t-77.5 264q0 155 74 260t205 105zM422 1247q43 0 71.5 24t44 71.5t21.5 105t6 137.5q0 52 -1.5 90t-6.5 79t-15 68.5t-25.5 50.5
t-39 34.5t-55.5 11.5q-47 0 -77.5 -24.5t-45 -73.5t-20 -103t-5.5 -133q0 -163 33 -250.5t115 -87.5zM1128 834q132 0 202.5 -102t70.5 -263q0 -158 -76 -262.5t-197 -104.5q-124 0 -201 102.5t-77 264.5q0 156 73.5 260.5t204.5 104.5zM1749 834q131 0 201.5 -102
t70.5 -263q0 -158 -75.5 -262.5t-196.5 -104.5q-124 0 -201.5 102.5t-77.5 264.5q0 155 74 260t205 105zM1128 133q43 0 72 24t44.5 71.5t21.5 105t6 137.5q0 63 -2.5 107t-11 90t-24 74t-42 45.5t-64.5 17.5t-65 -17.5t-42.5 -45.5t-24.5 -73t-12 -90t-3 -108
q0 -164 32.5 -251t114.5 -87zM1749 133q43 0 71.5 24t44 71.5t21.5 105t6 137.5q0 52 -1.5 90t-6.5 79t-15 68.5t-25.5 50.5t-39 34.5t-55.5 11.5q-38 0 -65 -17.5t-42.5 -45.5t-24.5 -73t-12 -90t-3 -108q0 -164 32.5 -251t114.5 -87z" />
    <glyph glyph-name="guilsinglleft" unicode="&#x2039;" horiz-adv-x="538" 
d="M184 518l262 469q6 11 1 19t-17 8h-2q-12 0 -27 -7.5t-22 -17.5l-371 -473q-19 -27 0 -49l387 -455q21 -24 51 -24h3q12 0 16 8t-2 18l-279 451q-6 11 -6 27t6 26z" />
    <glyph glyph-name="guilsinglright" unicode="&#x203a;" horiz-adv-x="538" 
d="M20 987l263 -469q6 -10 6 -26t-6 -27l-279 -451q-6 -10 -2 -18t16 -8h2q31 0 52 24l387 455q19 22 0 49l-371 473q-7 10 -22 17.5t-27 7.5h-2q-12 0 -17.5 -8t0.5 -19z" />
    <glyph glyph-name="fraction" unicode="&#x2044;" horiz-adv-x="1157" 
d="M1036 2048l-995 -2048h119l997 2048h-121z" />
    <glyph glyph-name="Euro" unicode="&#x20ac;" horiz-adv-x="1468" 
d="M1397 1862l-15 -21q-9 -14 -46.5 -98.5t-47.5 -100.5q-29 -45 -60 -27q-21 11 -18 33l4 9q10 14 19.5 55.5t13.5 75.5l4 35q-4 53 -32.5 89.5t-66 51t-74.5 22t-62 6.5l-25 -1q-5 0 -15 -1t-37 -8.5t-55 -20.5t-65.5 -40.5t-71.5 -64.5t-69.5 -97t-63 -133.5t-49 -178
t-30.5 -226.5h653l-58 -115h-602v-59v-109h562l-58 -115h-500q10 -173 42 -309t77 -222t104.5 -141t122 -75.5t132.5 -16.5q155 9 227 101q28 35 43.5 71.5t16.5 64.5t-4.5 50.5t-15.5 34.5t-20 12q-6 0 -18 -4q-9 -6 -22 -6q-31 0 -58.5 29.5t-23.5 58.5q6 43 33 64.5
t63 21.5q33 0 55 -16q51 -32 77.5 -97.5t12.5 -154.5q-4 -24 -16 -54.5t-41 -71t-70 -74t-108.5 -59t-149.5 -30.5q-26 -7 -69 -1t-94 9.5t-109 29.5t-115 59.5t-112 99t-99.5 147.5t-78 205.5t-46.5 273.5h-241q-39 0 -23 37l29 55q9 23 35 23h194q-2 37 -2 111v57h-231
q-39 0 -23 37l29 55q9 23 35 23h196q14 162 55.5 294t95 216t125.5 146.5t134 93.5t133 49.5t110.5 22t77.5 3.5q46 0 84 -4.5t71 -16t50 -18t47 -22.5t35 -19q68 -47 113 -104z" />
    <glyph glyph-name="trademark" unicode="&#x2122;" horiz-adv-x="1290" 
d="M1157 1993v-379q0 -7 2 -14.5t11.5 -15t25.5 -7.5q3 0 3.5 -10.5t-3.5 -10.5h-147q-4 0 -3.5 10.5t3.5 10.5q36 0 36 37v344l-147 -316l-152 320v-348q0 -37 37 -37q3 0 3.5 -10.5t-3.5 -10.5h-143q-3 0 -3 10.5t3 10.5q23 0 31 12t8 25v385q0 4 -1 9.5t-11 14.5t-27 9
q-15 0 -21.5 10t-0.5 19.5t22 9.5h135l135 -314l137 314h109q17 0 22 -9.5t-2.5 -19.5t-19.5 -10q-39 0 -39 -39zM166 2068h446q21 0 23 -12q0 -16 -4.5 -24t-12.5 -12.5t-10 -8.5q-30 -37 -24 -76q1 -5 6.5 -13.5t5.5 -16.5q0 -24 -22 -31q-24 -8 -32 17q-3 9 -3 22
q0 4 1 12.5t1 11.5q1 9 2.5 19t2 13.5t1 8t0 7t-1 5.5t-2.5 7q-12 24 -51 24h-21q-33 -4 -33 -36v-375q0 -11 9.5 -22t27.5 -11q3 0 3.5 -10.5t-3.5 -10.5h-153q-4 0 -4 10.5t4 10.5q36 0 36 37v371v5v8t-1.5 7t-4 7.5t-8 5t-12.5 3.5h-58q-42 0 -49.5 -14.5t5 -47
t12.5 -46.5q0 -30 -15.5 -38.5t-31 2.5t-15.5 28q0 7 3.5 16t4.5 16q3 20 -2 47t-16 37q-23 8 -26 28q1 17 22 19z" />
    <glyph glyph-name="partialdiff" unicode="&#x2202;" horiz-adv-x="1087" 
d="M170 1184q-13 88 31.5 180t136.5 157t203 72q102 6 192 -32t156.5 -111t100 -188t22.5 -254q-24 -301 -115 -533.5t-237 -359.5t-324 -115q-49 3 -96.5 19t-91 47t-76.5 73t-52.5 102.5t-19.5 131.5q0 118 46 234t122 200q79 85 182 136.5t219 51.5q81 0 150.5 -30.5
t116.5 -79.5q30 -33 45 -66q61 297 -20 494.5t-247 218.5q-60 8 -113.5 -3.5t-92 -37t-69 -58.5t-48 -70t-25.5 -70.5t-4.5 -60.5t17.5 -40q8 -7 16 -10.5t12 -3.5h4q22 9 43.5 -1.5t28.5 -33.5q9 -58 -38 -86q-46 -29 -96 -3q-64 32 -79 130zM856 766q-47 86 -135 121
t-181.5 17.5t-183 -84.5t-139.5 -169q-58 -118 -66.5 -252.5t39 -231t140.5 -104.5q85 -7 174 54.5t159 164t122 231t71 253.5z" />
    <glyph glyph-name="emptyset" unicode="&#x2205;" horiz-adv-x="1323" 
d="M899 1724l-41 -135q174 -70 283.5 -228.5t109.5 -352.5q0 -102 -31.5 -197.5t-89 -173t-134 -135.5t-172 -89.5t-197.5 -31.5q-72 0 -144 16l-28 -92h-103l37 121q-174 71 -281.5 229.5t-107.5 352.5q0 127 49.5 242.5t133 199.5t200 134t244.5 50q68 0 137 -16l33 106
h102zM428 551l297 944q-52 10 -98 10q-136 0 -250.5 -67t-181 -181.5t-66.5 -248.5q0 -152 82.5 -275.5t216.5 -181.5zM819 1466l-297 -946q55 -10 105 -10q135 0 249 67t180 181.5t66 249.5q0 152 -83.5 276t-219.5 182z" />
    <glyph glyph-name="product" unicode="&#x220f;" horiz-adv-x="1480" 
d="M1237 -16v-15q3 -22 10.5 -42t24 -41.5t47.5 -34t74 -13.5q9 0 13.5 -6.5t1 -13t-14.5 -6.5h-492q-11 0 -14.5 6.5t1 13t13.5 6.5q135 2 154 123v2087h-707v-2073q2 -23 9 -43.5t23 -43t48 -36t76 -14.5q9 0 13.5 -6.5t1 -13t-14.5 -6.5h-488q-11 0 -14.5 6.5t1 13
t13.5 6.5q40 1 70 13.5t46 29.5t25.5 40t12 39.5t2.5 33.5v1970q-20 125 -154 127q-9 0 -13.5 6.5t-1 13.5t14.5 7h154h2h1063h4h152q11 0 14.5 -7t-1 -13.5t-13.5 -6.5q-43 -1 -74 -14t-47.5 -34.5t-24 -42t-10.5 -42.5v-12v-1962z" />
    <glyph glyph-name="summation" unicode="&#x2211;" horiz-adv-x="1785" 
d="M1647 -537l65 435q9 46 -18 49q-22 3 -37 -39q-24 -100 -64 -146q-45 -58 -130.5 -88t-180.5 -30h-932q-28 0 -35.5 15t9.5 40l718 1044q21 29 0 66l-655 1079q-15 23 -8 40.5t35 17.5h854q132 0 206.5 -65t100.5 -210q6 -45 33 -45q21 0 18 49l-24 328q-3 45 -48 45
h-1507q-47 0 -47 -23q0 -17 18 -49l795 -1274q21 -35 0 -65l-795 -1145q-18 -27 -18 -49q0 -10 12.5 -16.5t34.5 -6.5h1548q46 0 52 43z" />
    <glyph glyph-name="minus" unicode="&#x2212;" horiz-adv-x="1380" 
d="M0 961v-125h1309v125h-1309z" />
    <glyph glyph-name="radical" unicode="&#x221a;" horiz-adv-x="1427" 
d="M1282 2019l-649 -1687q-7 -20 -19.5 -20.5t-21.5 18.5l-377 743q-19 34 -41 14l-156 -139q-14 -12 -16.5 -20.5t4.5 -20.5l4 -8q19 -34 41 -14l76 63q13 9 23.5 4t17.5 -18l446 -907q5 -17 12.5 -23.5t14.5 -1.5t12 18l699 1989q6 15 -1 25t-22 10h-10q-28 0 -37 -25z
" />
    <glyph glyph-name="infinity" unicode="&#x221e;" horiz-adv-x="2344" 
d="M1130 1026q-166 230 -302.5 328t-280.5 98q-103 0 -196.5 -39t-168 -113t-118.5 -192.5t-44 -265.5q0 -137 43 -250.5t117 -189t174.5 -117t214.5 -41.5q122 0 217 39t200.5 137.5t250.5 286.5q167 -266 303 -355q125 -88 246 -88q90 0 177 42t155.5 115.5t110.5 184
t42 236.5q0 129 -44.5 241t-118.5 188t-171.5 119.5t-201.5 43.5q-97 0 -176.5 -29.5t-186 -120.5t-242.5 -258zM1069 954q-142 -181 -245 -291.5t-183 -162.5q-92 -62 -205 -62q-140 0 -235 105.5t-95 273.5q0 172 124.5 284.5t324.5 112.5q297 0 514 -260zM1298 778
l224 262q155 158 319 158q132 0 236 -103.5t104 -258.5q0 -158 -106 -252.5t-273 -94.5q-92 0 -157 19t-150 82.5t-197 187.5z" />
    <glyph glyph-name="integral" unicode="&#x222b;" horiz-adv-x="1040" 
d="M399 674v672v10q0 82 19.5 146.5t51 104.5t76 65.5t89.5 35.5t96 10q152 0 215 -121q20 -34 23 -79t-13 -88q-16 -37 -48.5 -48t-58.5 5.5t-26 50.5q0 18 5.5 31.5t11 19t18.5 16t19 15.5q7 6 10 24.5t-4 42t-22.5 45.5t-50 35t-81.5 10q-14 0 -28 -2t-44.5 -17
t-51.5 -42t-38.5 -84.5t-17.5 -136.5v-39v-946v-37v-11q0 -103 -25 -176t-70.5 -112.5t-98 -56.5t-117.5 -17q-69 0 -126 30t-89 91q-19 35 -23 79.5t12 88.5q17 37 50 48t59 -5t26 -49q0 -18 -5.5 -31t-11 -19t-19 -16t-19.5 -16q-7 -7 -9 -25.5t5 -42.5t22.5 -45.5
t50 -34.5t81.5 -10q12 0 24.5 2t38.5 17t45 42t34 84t15 136v38v312z" />
    <glyph glyph-name="approxequal" unicode="&#x2248;" horiz-adv-x="1155" 
d="M1065 1194q-23 10 -29 -27q-19 -73 -67.5 -113t-116.5 -40q-43 0 -70 8q-52 13 -159 59q-219 91 -297 113q-46 12 -90 12q-64 0 -115 -32q-106 -63 -121 -220q-3 -27 20 -36q21 -12 31 22q44 152 180 152q73 0 228 -66q231 -93 280 -106q59 -17 101 -17q99 0 166.5 69
t76.5 185q3 25 -18 37zM1065 760q-23 10 -29 -27q-19 -73 -67.5 -113t-116.5 -40q-43 0 -70 8q-52 13 -159 59q-219 91 -297 113q-46 12 -90 12q-62 0 -115 -33q-106 -64 -121 -219q-3 -28 20 -37q21 -12 31 23q44 151 180 151q75 0 228 -65q239 -96 280 -107
q56 -16 101 -16q99 0 166.5 69t76.5 185q3 25 -18 37z" />
    <glyph glyph-name="notequal" unicode="&#x2260;" horiz-adv-x="1316" 
d="M627 877h618v-125h-672l-378 -869h-119l377 869h-453v125h508l117 270h-625v125h678l393 903h121l-393 -903h446v-125h-500z" />
    <glyph glyph-name="lessequal" unicode="&#x2264;" horiz-adv-x="1236" 
d="M0 868l1153 -501v94l-993 430l993 436v98l-1153 -505v-52zM6 0h1151v70h-1151v-70z" />
    <glyph glyph-name="greaterequal" unicode="&#x2265;" horiz-adv-x="1232" 
d="M4 1425v-98l993 -436l-993 -430v-94l1153 501v52zM0 70v-70h1151v70h-1151z" />
    <glyph glyph-name="lozenge" unicode="&#x25ca;" horiz-adv-x="1705" 
d="M0 1018l713 -1018h211l710 1018l-710 1030h-211zM817 84l-653 934l653 938l649 -938z" />
    <glyph glyph-name="A.ss01" horiz-adv-x="1597" 
d="M901 2048l541 -1866q20 -54 85 -104.5t124 -50.5q8 0 12.5 -6.5t1.5 -13.5t-14 -7h-475q-11 0 -14.5 7t1 13.5t13.5 6.5q55 1 84.5 21t30.5 47.5t-7 56.5l-143 501q-1 2 -7.5 20.5t-14 34.5t-22.5 42.5t-36.5 50.5t-51.5 53t-73.5 54.5t-96 51t-124 47t-154.5 37.5
l-260 -897q-26 -118 111 -120q9 0 13.5 -6.5t1 -13.5t-14.5 -7h-404q-11 0 -14.5 7t1 13.5t13.5 6.5q155 0 207 155l250 862l4 15q-361 19 -524 -172q-35 -42 -57 -93t-27.5 -100t1.5 -97.5t28.5 -85.5t53.5 -64t76.5 -33.5t98.5 6.5q28 7 28 31t-22 32q-13 5 -27 13
t-34.5 24.5t-31 38t-16.5 53.5t9 70q16 50 71 70t121 -15q56 -35 71 -117.5t-32 -150.5q-41 -56 -101 -79.5t-121 -13t-116.5 42t-93.5 87.5t-45 121q-13 117 24.5 213t109.5 157.5t169.5 101.5t203.5 53.5t212 4.5l207 711q4 27 5 40t-3 38.5t-15.5 38.5t-37.5 24t-66 12
q-9 0 -13.5 6.5t-1 13.5t14.5 7h313zM795 1851l-205 -704q110 -12 233.5 -46t216.5 -97z" />
    <glyph glyph-name="B.ss01" horiz-adv-x="1589" 
d="M293 2054h323q94 41 228 49q104 8 198 -14t171 -71.5t129 -126.5t71.5 -180t-0.5 -232q-5 -31 -14.5 -64.5t-35 -84t-61.5 -92.5t-99.5 -83t-143.5 -63q105 -27 192 -82.5t150 -136t89.5 -192t6.5 -237.5q-4 -26 -13.5 -57.5t-30.5 -75.5t-50 -85t-75.5 -83t-103.5 -72.5
t-138 -50.5t-175 -20h-462q-132 -27 -227 -13t-155 59t-86.5 105t-21 124.5t40.5 117.5q29 44 76 71.5t100 33.5q73 9 143 -23q77 -39 95 -108q19 -70 -21 -129q-27 -37 -67 -50.5t-74 -6t-53 27.5q-34 35 -39.5 74t7.5 65t27 51t13 33q-1 5 -3 9t-4.5 6t-4 3t-4.5 2l-3 1
h-6q-92 -13 -143 -86q-53 -66 -35 -160q17 -75 74 -115q52 -35 117.5 -46.5t121 -0.5t94 47.5t38.5 91.5v1688q0 23 -5 44t-19 49t-48 45t-84 18q-8 0 -12.5 6.5t-1.5 13t14 6.5zM612 1858v-707q287 -67 454 79q121 105 144 286q21 170 -52 314q-74 145 -210 186
q-26 9 -55 12q-69 8 -135 2q-136 -26 -146 -172zM612 1032v-821q0 -44 31.5 -85t106.5 -52q7 0 21.5 -1t21.5 -1q117 -4 210 32t150 98.5t89 144t34.5 169t-21.5 174t-71 158t-122 122.5t-167 66q-180 31 -283 -4z" />
    <glyph glyph-name="C.ss01" horiz-adv-x="1241" 
d="M1325 1968q20 8 31.5 2t9 -22.5t-19.5 -28.5q-8 -6 -44 -19t-61.5 -36t-34.5 -66q-19 -100 -54 -184.5t-106.5 -172t-172.5 -151.5t-259 -111.5t-358 -62.5q-2 -29 -2 -67q-1 -149 20.5 -281.5t59 -232t89 -182t109.5 -137.5t120.5 -91.5t122 -52t114.5 -11.5
q155 9 227 101q29 35 44.5 71.5t17 64.5t-4 50.5t-15 34.5t-19.5 12t-19 -6q-12 -6 -24 -6q-31 0 -58 30.5t-24 59.5q6 43 33 64.5t63 21.5q31 0 57 -16q50 -34 77 -99t13 -153q-4 -24 -16 -55t-41.5 -71.5t-70.5 -74t-108.5 -59.5t-148.5 -31q-43 -2 -97.5 3t-139 28.5
t-163.5 64.5t-162.5 121.5t-145 188t-100.5 274.5t-39 371q0 16 1 31.5t1 29.5q-183 19 -333.5 82.5t-248 156t-150.5 207t-53 238.5q0 114 45.5 215t135 166.5t202.5 65.5q74 0 132.5 -27.5t92 -70t48 -95.5t7 -103t-38.5 -93.5t-81 -65.5q-39 -17 -79 -15t-68 20t-48 45.5
t-18.5 62t20.5 69.5q3 -61 52 -69q48 -7 94 34q59 52 46 126q0 3 -1 5q-18 85 -101 112q-86 27 -179 -21q-107 -56 -146 -176q-29 -86 -14 -191q16 -114 78 -207t156.5 -155.5t212 -100.5t251.5 -47q17 118 52.5 219.5t80.5 174t103 132t114.5 97.5t121 66.5t116 43t106 23
t84.5 10.5t58 2q65 0 118.5 -11t85 -27t62 -31t53.5 -25t56 -7t73 21zM266 1274h21q156 2 298.5 41t243 100t173.5 134t105 145.5t23 130.5q-6 39 -23.5 68.5t-40.5 46t-49.5 27t-52 13.5t-46.5 4t-34 0l-12 -2q-12 0 -30.5 -1.5t-74.5 -15t-107.5 -37.5t-118 -77t-118 -125
t-95.5 -189.5t-62 -262.5z" />
    <glyph glyph-name="D.ss01" horiz-adv-x="1687" 
d="M475 2050h424q202 0 377 -100q306 -176 377 -599q20 -120 20 -259q0 -158 -19.5 -294.5t-52.5 -237t-80 -184.5t-98 -140.5t-110.5 -100t-113.5 -68t-111.5 -40.5t-99.5 -21t-83 -6h-440q-221 -12 -337.5 33.5t-141.5 167.5q-21 106 41 194q70 93 176 105q73 9 143 -23
q79 -40 94 -108q19 -71 -20 -129q-27 -37 -67 -50.5t-74.5 -6t-53.5 27.5q-34 35 -39.5 74t7.5 65t27 51t13 33q-1 5 -3 9t-4 6t-4 3l-4 2l-3 1h-6q-92 -13 -143 -86q-53 -66 -35 -160q17 -76 73 -115q65 -44 148 -51.5t146.5 25t74.5 94.5q2 6 2 16v1696q0 21 -4 35
q-7 46 -42 79.5t-107 34.5q-9 0 -14 6.5t-1.5 13.5t15.5 7h153zM639 1851v-1652q0 -16 2 -32t10.5 -38.5t23 -38.5t41.5 -27.5t64 -11.5h107q57 0 107.5 9.5t108.5 37.5t105 74.5t92.5 127t76 186.5t49 261t18.5 345q0 193 -29.5 347t-77.5 246.5t-105.5 159.5t-114.5 95
t-105 43.5t-78 15.5h-29h-125q-35 0 -61.5 -11.5t-41 -28t-24 -38t-12 -38t-2.5 -32.5z" />
    <glyph glyph-name="E.ss01" horiz-adv-x="1226" 
d="M328 1024v-823q1 -21 6.5 -41t18.5 -44.5t42 -40.5t70 -20h289q166 0 211 99q25 55 24 175t-26 253q-3 17 -7.5 39.5t-7 38t-2.5 32.5q0 42 36 63.5t76.5 12t51.5 -44.5q7 -24 -0.5 -41t-20.5 -29t-14 -18q-19 -92 6 -301.5t90 -296.5q3 -5 5 -6.5t5 -3l5 -2.5
q12 -23 -15 -23h-108h-735v-2h-162h-156q-11 0 -14.5 7t1 13.5t13.5 6.5q49 1 83 18t48.5 44.5t19.5 49t5 43.5v830q-45 0 -88 -3t-99 -11.5t-102 -26.5t-87 -44t-64 -68.5t-23 -96.5q3 -63 41.5 -93t80 -23t54.5 36q6 13 6 28.5t-3 25.5l-3 9q5 0 13.5 -2t29.5 -11.5
t35.5 -24.5t24.5 -46.5t4 -72.5q-8 -54 -51.5 -85t-106.5 -30t-125 35q-60 33 -90.5 89.5t-36.5 94.5q-12 57 0 112.5t53.5 109.5t109.5 94.5t178 64.5t249 23v776q0 17 -2.5 33.5t-12 39.5t-25.5 40.5t-46 29.5t-70 13q-9 0 -13.5 6.5t-1 13t14.5 6.5h156h897h108
q25 0 15 -24q-10 -3 -15 -11q-68 -93 -94 -204.5t-8 -190.5q1 -7 12 -17.5t18 -24.5t3 -34q-8 -29 -44.5 -37.5t-70 8.5t-33.5 50q0 21 10 56.5t13 57.5q11 58 10.5 114.5t-22.5 105.5q-42 94 -211 98h-289q-41 -4 -70 -20t-42 -40.5t-18.5 -44.5t-6.5 -41v-761h159h138
q109 27 130 130q5 23 5 50q11 12 26 17t26 2.5t11 -9.5q-14 -86 -14 -225t14 -225q0 -7 -11 -10t-26 2t-26 18q0 46 -14 81.5t-34 53t-40.5 29t-34.5 14.5l-14 2h-160h-8h-127z" />
    <glyph glyph-name="F.ss01" horiz-adv-x="1245" 
d="M72 2054h1181q27 0 13 -24q-9 -5 -13 -11q-68 -93 -94 -204.5t-8 -190.5q1 -7 12 -17.5t18 -24.5t3 -34q-8 -29 -44.5 -37.5t-70 8.5t-33.5 50q0 21 10 56.5t13 57.5q11 58 10.5 114.5t-22.5 105.5q-44 98 -213 98h-310q-40 -4 -68.5 -20t-41.5 -40.5t-18.5 -44.5
t-6.5 -41v-759h316q11 2 19 4t32.5 14.5t41 30t30.5 52.5t14 79q9 12 24.5 17t27 2.5t11.5 -9.5q-14 -89 -14 -227q0 -139 14 -225q0 -7 -11.5 -10t-27 2t-24.5 18q0 48 -15.5 84.5t-39 55t-41 27t-33.5 11.5h-324v-840q0 -22 5 -43.5t19.5 -49t48.5 -44.5t83 -18
q9 0 13.5 -6.5t1 -13.5t-14.5 -7h-473q-12 0 -15.5 7t1.5 13.5t14 6.5q49 1 82.5 18t47.5 44.5t18.5 48.5t4.5 44v830q-44 0 -86.5 -3t-99 -11.5t-102 -26.5t-86.5 -44t-64 -68.5t-23 -96.5q3 -63 42 -93t80.5 -23t54.5 36q6 13 6 28.5t-3 25.5l-3 9q5 0 13.5 -2t29 -11.5
t35 -24.5t23.5 -46.5t3 -72.5q-12 -83 -99 -108t-182 28q-33 18 -59 46t-39 57t-19.5 48t-8.5 33q-12 57 0 112.5t53.5 109.5t109 94.5t177 64.5t247.5 23v776q0 23 -4.5 44t-18.5 49t-47.5 45t-82.5 18q-9 0 -14 6.5t-1.5 13t15.5 6.5z" />
    <glyph glyph-name="G.ss01" horiz-adv-x="1435" 
d="M1296 760v-701q0 -41 -11 -53t-34 -12h-30q-23 0 -41.5 18t-26.5 33q-57 102 -149 31q-57 -44 -128 -62t-134.5 -11.5t-106 17t-70.5 23.5q-83 32 -157 81t-151 135.5t-132 197t-90 273.5t-35 357q0 140 25 260.5t65.5 209t98.5 162t118 122.5t130.5 87t129 58.5
t120.5 34.5t98.5 18.5t68.5 6.5q83 4 175 -20t177 -77t148.5 -127t91 -179t2.5 -222q-28 -132 -129 -195t-238 -34q-89 19 -151 85.5t-65.5 152.5t75.5 174q-11 -22 -12.5 -51.5t7.5 -61t27 -59.5t49 -47.5t70 -24.5q30 -3 59 1.5t60 20t57.5 50t42.5 84.5q15 44 15.5 92
t-13 95.5t-39 92.5t-66.5 82.5t-91 65t-116 41.5t-140 10q-97 -5 -169 -29q-237 -79 -353 -330q-100 -217 -99 -549q0 -164 18.5 -304t49.5 -242t73.5 -184.5t89.5 -135.5t100 -89t102 -52t98 -19q66 0 121 19t91 50.5t62.5 69t40.5 79.5t20.5 77t6.5 66l2 418q0 70 -56 77
q-42 6 -77 -22q-27 -23 -13 -43q3 -5 6.5 -12.5t8.5 -29.5t3.5 -41t-15.5 -40t-43 -33q-60 -26 -104.5 14t-29.5 101q14 56 68 87.5t197 74.5q41 13 196 67t168 60q26 10 36 -14q10 -25 -9 -43q-10 -8 -25 -9q-120 -2 -119 -194v-6v-74z" />
    <glyph glyph-name="H.ss01" horiz-adv-x="1775" 
d="M1634 1872v-1694q0 -20 8 -43.5t26 -49.5t55 -43.5t87 -18.5q9 0 13.5 -6.5t1 -13.5t-14.5 -7h-493q-11 0 -14 7t1.5 13.5t12.5 6.5q50 1 84 18t48 44.5t19 48.5t5 44v217q0 77 -36 177.5t-103 203.5t-152.5 191t-195 146.5t-218.5 64.5v-996q0 -23 5 -44t19 -48.5
t48 -44.5t84 -18q9 0 13.5 -6.5t1 -13.5t-14.5 -7h-494q-11 0 -14 7t1.5 13.5t12.5 6.5q50 1 87 18.5t55 43.5t26 49.5t8 43.5v998q-238 8 -408 -142q-129 -114 -170 -271q-40 -153 24 -261q75 -125 259 -125q31 0 31 32.5t-23 41.5q-11 4 -23 10t-30.5 18.5t-31 28t-24 39
t-9.5 51t12 64.5q13 38 50 62.5t82 26.5t88.5 -13t73.5 -61t32 -114q2 -43 -15.5 -95t-48.5 -81q-62 -62 -150 -73.5t-168 21t-144 104t-83 163.5q-22 112 -6 208t63.5 174.5t116.5 138.5t152.5 101t173 62t176.5 21v561q0 20 -8 43.5t-26 50t-55 44t-87 18.5
q-8 0 -12.5 6.5t-1.5 13t14 6.5h494q11 0 14.5 -6.5t-1 -13t-13.5 -6.5q-50 -1 -84 -18t-48 -45t-19 -49t-5 -44v-565q123 -14 238 -64.5t194.5 -114.5t142 -134t94 -122.5t36.5 -80.5v1081q0 21 -6 43.5t-21.5 49.5t-51 44.5t-85.5 18.5q-8 0 -12.5 6.5t-1.5 13t14 6.5h501
q11 0 14.5 -6.5t-1 -13t-13.5 -6.5q-50 -1 -87 -18.5t-55 -44t-26 -50t-8 -43.5z" />
    <glyph glyph-name="I.ss01" horiz-adv-x="827" 
d="M637 1872v-1690q0 -22 5 -43.5t19.5 -49t48.5 -44.5t83 -18q9 0 13.5 -6.5t1 -13.5t-14.5 -7h-156h-162q-191 -29 -327 23.5t-162 175.5q-24 105 41 196q64 89 174 105q78 10 143 -25q78 -40 96 -108q17 -75 -22 -129q-27 -36 -67 -49.5t-74.5 -6.5t-53.5 27
q-34 36 -39.5 74.5t8 65t27.5 51t12 32.5q-1 6 -2.5 10t-4 6.5t-4 3.5t-4.5 2l-3 1q-4 0 -6 -2q-92 -10 -144 -84q-49 -70 -32 -160q13 -77 73 -115q68 -47 156 -53.5t151.5 32.5t63.5 111v1688q0 17 -2.5 33.5t-12 39.5t-25.5 40.5t-46 29.5t-70 13q-9 0 -13.5 6.5t-1 13
t14.5 6.5h156h162h156q11 0 14.5 -6.5t-1 -13t-13.5 -6.5q-40 -1 -70 -13t-46 -29.5t-25.5 -40.5t-12 -39.5t-2.5 -33.5z" />
    <glyph glyph-name="J.ss01" horiz-adv-x="946" 
d="M899 2048h166q11 0 14 -7t-1.5 -13.5t-12.5 -6.5q-50 -1 -87 -18.5t-55 -43.5t-26 -49.5t-8 -43.5v-1395q0 -114 -35.5 -201.5t-87.5 -136.5t-122 -80t-129 -41t-118 -10q-82 5 -149.5 30.5t-108.5 59t-70.5 74t-42 70.5t-16.5 55q-18 115 29.5 190.5t118.5 75.5
q37 0 69 -21.5t33 -62.5q2 -34 -20.5 -62t-67.5 -28q-17 0 -41 12q-10 0 -20 -12t-15.5 -34.5t-4 -50.5t17 -65t43.5 -73q99 -120 282 -101q293 30 293 418v1362q0 33 -6 61t-12.5 44.5t-20.5 34t-20 23t-22 18.5l-17 12q-100 53 -197.5 75.5t-173.5 13.5t-133 -38.5
t-84.5 -80.5t-20.5 -112t68.5 -95.5t131 -24t95.5 64.5q20 48 10.5 88.5t-40.5 54.5q4 1 18.5 3t38 -5.5t45.5 -18t42 -36t28 -59.5q13 -58 -10.5 -106.5t-63 -75t-84.5 -35.5q-124 -25 -221 40.5t-115 196.5q-21 149 66.5 251.5t244.5 102.5q90 0 170 -19t137.5 -46
t108 -54t104.5 -47t105 -22z" />
    <glyph glyph-name="K.ss01" horiz-adv-x="1900" 
d="M1624 1925l-481 -694q105 -197 253.5 -472t244.5 -451l96 -177q25 -44 82 -78.5t114 -34.5q9 0 13.5 -6.5t1 -13t-14.5 -6.5h-463q-11 0 -14.5 6.5t1 13t13.5 6.5q29 0 47 7t25.5 17.5t7 28t-5.5 33.5t-14 39l-502 920l-137 -201v-530q0 -109 -27.5 -200.5t-82 -161
t-143.5 -109t-204 -39.5q-99 0 -182 35t-136 90t-81.5 125t-26.5 138.5t37.5 132t101.5 103.5q60 36 128.5 37.5t118 -30.5t59.5 -86q8 -41 -1 -72.5t-27 -47.5t-37 -26.5t-34 -12.5l-14 -3q12 36 -4 63q-20 30 -52.5 36t-62.5 -9t-54.5 -51t-29.5 -84q-14 -135 72 -206
t225 -60q53 5 97 27t73.5 53.5t52.5 72.5t35.5 80.5t21 81.5t11 71.5t2.5 53.5q0 94 -2 180v1317q0 28 -3.5 52t-11 42t-14 31.5t-18 25t-17.5 17t-18 14t-14 10.5q-100 53 -197.5 75.5t-173.5 14t-133 -38.5t-84.5 -80.5t-20.5 -111.5q8 -61 69.5 -95.5t130.5 -24t95 64.5
q20 48 10.5 88.5t-40.5 54.5q4 1 18.5 2.5t38 -5.5t45.5 -18t42 -36.5t28 -59.5q19 -85 -32.5 -144t-125.5 -75q-124 -24 -221 42.5t-115 197.5q-21 148 66.5 251t244.5 103q90 0 170 -19t137.5 -46t108 -54t104.5 -47t105 -22h166q11 0 14 -7t-1.5 -13.5t-12.5 -6.5
q-50 -1 -87 -18.5t-55 -43.5t-26 -49.5t-8 -43.5v-748h2v-76l592 881q26 34 3 66t-83 32q-9 0 -13.5 6.5t-1 13.5t14.5 7h379q11 0 14.5 -7t-1 -13.5t-13.5 -6.5q-56 0 -89 -18t-69 -70z" />
    <glyph glyph-name="L.ss01" horiz-adv-x="1402" 
d="M334 1866v-1692q4 -72 53.5 -130.5t125 -93t162 -53t173.5 -18.5q35 0 76 4t96 17t106 33t102 55.5t88.5 81t61 112.5t23.5 148q0 76 -30 135t-77.5 89.5t-101 42t-104.5 -3.5t-84 -52q-36 -39 -43 -96.5t24.5 -103.5t97.5 -46q-53 -49 -115 -60.5t-111.5 10.5t-82.5 74
t-33 121q0 109 100 195t230 86q97 0 173.5 -34.5t122.5 -91t72 -129.5t28 -149.5t-14.5 -151t-51.5 -134.5q-87 -148 -230.5 -223.5t-334.5 -63.5q-110 7 -198 36t-148 65t-121.5 70.5t-150.5 57.5t-202 21q-12 0 -15.5 6.5t1.5 13t14 6.5q149 0 156 156v1690q0 22 -5 43.5
t-19.5 49t-48.5 44.5t-83 18q-9 0 -13.5 6.5t-1 13.5t14.5 7h156h162h155q11 0 14 -7t-1.5 -13.5t-12.5 -6.5q-49 -1 -83 -18t-48 -44.5t-19 -49t-5 -43.5z" />
    <glyph glyph-name="M.ss01" horiz-adv-x="2078" 
d="M1892 1872v-1688q0 -23 5 -45t19.5 -49.5t48.5 -44.5t83 -18q9 0 14 -6.5t1.5 -13.5t-15.5 -7h-473q-12 0 -15.5 7t1.5 13.5t14 6.5q49 1 83 18t48.5 44.5t19.5 49.5t5 45v1485l-451 -1368l-455 1387v-1317q-7 -104 -30.5 -186t-69 -152.5t-123.5 -113t-186 -52.5
q-64 -6 -127 5t-121 41t-101.5 75.5t-67 115t-17.5 154.5q5 83 57 152t145 92q75 19 141 -7t95 -91.5t-8 -170.5q3 38 -20.5 67.5t-61.5 40.5t-78.5 9t-74.5 -28t-46 -70q-23 -85 7 -159.5t100 -115.5t157 -34q73 6 130.5 40.5t91 82.5t55.5 110.5t29.5 118t7.5 111.5v180
v1245q0 52 -43 95t-105 52q-81 12 -172 2q-136 -16 -212.5 -84.5t-70.5 -187.5q3 -65 42 -103.5t88 -42.5t97 20t68 71q20 50 10.5 89.5t-40.5 53.5q4 1 18.5 2.5t38 -5.5t45.5 -18t42 -36.5t28 -59.5q13 -58 -10.5 -106.5t-63 -75t-84.5 -35.5q-83 -17 -163 11
t-132.5 101.5t-44.5 174.5q9 134 113 219.5t284 85.5h478h2l397 -1276l414 1276h315q12 0 15.5 -6.5t-1.5 -13t-14 -6.5q-40 -1 -70 -13t-46 -29.5t-25.5 -40.5t-12 -39.5t-2.5 -33.5z" />
    <glyph glyph-name="N.ss01" horiz-adv-x="1441" 
d="M1210 1870v-1530q4 -16 27 -63t57.5 -107t79 -105t82.5 -45q9 0 13.5 -6.5t1 -13t-14.5 -6.5h-156q-31 0 -56.5 5.5t-41 12t-30.5 20t-21 22t-17 25.5t-16 23q-15 20 -227.5 425.5t-417.5 800.5l-205 396v-1548q0 -23 5 -44t19 -49t48 -45t84 -18q8 0 12.5 -6.5t1.5 -13
t-14 -6.5h-426q-12 0 -15.5 6.5t1.5 13t14 6.5q40 1 70 13t46 29.5t25.5 40.5t12 39.5t2.5 33.5v1671v19t-7.5 42t-22 52.5t-48 41.5t-80.5 19q-9 0 -14 6.5t-1.5 13.5t15.5 7h334l764 -1475v1297q0 18 -2.5 34.5t-12 39.5t-25.5 39.5t-46.5 28.5t-71.5 13q-9 0 -13.5 7.5
t-1 14.5t14.5 7h430q12 0 15.5 -7t-1.5 -14.5t-14 -7.5q-49 -1 -83 -18t-48.5 -44.5t-19.5 -49t-5 -43.5z" />
    <glyph glyph-name="O.ss01" horiz-adv-x="1527" 
d="M1491 1057v-15q0 -32 -1 -64t-8 -108.5t-19 -144.5t-38 -159.5t-61 -166t-92 -151.5t-127 -129.5t-170 -85.5t-217 -33h-25q-412 0 -600 391q-120 248 -132 599q-1 31 -1 67q0 169 26.5 311t70.5 242t105.5 178.5t126.5 126.5t139 79t138 42.5t127 11.5h25
q63 0 126 -11.5t134.5 -42.5t135.5 -79t124 -126.5t104.5 -178.5t74 -242t34.5 -311zM758 59q53 1 101.5 13.5t101 43.5t96.5 79.5t84 126.5t67 179t42.5 243t13.5 313q-2 163 -19 297t-44 228.5t-67 166.5t-82.5 116.5t-94 72.5t-99 39t-100.5 12h-25q-162 -4 -272 -103
q-16 -15 -37 -44t-42.5 -78t-32.5 -101.5t-1.5 -119t45.5 -126.5q33 -57 80 -89.5t93.5 -33.5t87 20t66.5 73t28 124q35 -36 53.5 -81.5t20 -91t-15 -90t-48 -78.5t-82 -55t-113.5 -21q-73 0 -147.5 37t-132.5 99.5t-91 155.5t-24 195q-19 -40 -21 -113.5t19.5 -153.5
t64.5 -124q-4 -68 -4 -133q2 -171 19 -313t44.5 -243t66.5 -179t82 -126.5t94.5 -79.5t99 -43.5t100.5 -13.5h8h17z" />
    <glyph glyph-name="P.ss01" horiz-adv-x="1234" 
d="M164 182v1227q-50 -56 -129 -68q-131 -17 -220.5 64.5t-99.5 232.5q-5 54 7 115t48.5 131t94.5 130.5t156 113t223 78.5q100 21 199 24t187 -12.5t170.5 -46.5t150 -76t125.5 -102t97 -125t64 -143.5t27 -158.5t-15 -171q-5 -26 -14.5 -56t-31.5 -77t-50.5 -89.5
t-74.5 -88t-101 -78.5t-133 -53.5t-168 -20.5q-39 0 -79.5 3.5t-70.5 8t-53.5 9.5t-37.5 8.5t-15 3.5l20 51q107 -26 190.5 -14.5t147 43.5t109 87t75 114.5t46 127t22 125t2.5 107.5q-6 93 -28.5 172.5t-63.5 148.5t-101 117.5t-143 80.5t-188.5 36.5t-237.5 -13.5
q-89 -14 -163 -49t-121 -83.5t-78.5 -107.5t-36.5 -120t6 -123q32 -135 148 -149q39 -6 78.5 8t60.5 43v196q0 17 -2.5 33.5t-11.5 39.5t-24.5 40t-45.5 29.5t-70 13.5q-9 0 -14 6.5t-1.5 13.5t15.5 7q14 0 77 13.5t122 31.5q27 9 45.5 20t26 19.5t13.5 15.5t11 8
q10 3 16 -1.5t7 -10.5v-6v-1854q0 -22 5 -43.5t19 -49t48 -44.5t83 -18q9 0 13.5 -6.5t1 -13.5t-14.5 -7h-155h-318q-12 0 -15.5 7t1.5 13.5t14 6.5q40 1 70 13t45.5 29t24.5 40t11.5 39.5t2.5 33.5z" />
    <glyph glyph-name="Q.ss01" horiz-adv-x="1560" 
d="M1530 1141v-15q0 -12 -0.5 -32t-6 -82t-17 -122t-37 -141.5t-61 -152t-94 -142t-131 -122t-177 -82t-228.5 -31.5h-4q12 -6 57 -26q63 -32 107 -50q72 -27 106 -37q55 -17 99 -22q52 -7 90 -4q30 0 76 12q36 9 59 21l12 6q2 1 6 2t5 2q8 4 10 4q4 4 6 4l14 8q0 -2 -2 -4
q0 -2 -4 -10q-2 -2 -5.5 -8t-4.5 -8q-10 -15 -14 -23q-27 -31 -52 -51q-50 -34 -84 -47q-61 -24 -114 -27q-10 -2 -31 -2q-4 -2 -16 -2q-11 0 -15 2h-16h-16q-5 1 -16.5 2t-16.5 2l-66 12q-5 1 -15 4.5t-15 4.5l-17 6q-4 0 -16 4q-52 17 -125 49q-78 40 -115 63q-6 3 -12 9
q-8 4 -10 6l-25 12q-8 5 -25.5 13t-21.5 10q-40 16 -94 26q-41 8 -88 8q-32 0 -78 -8q-42 -11 -58 -20q-14 -10 -18 -15q-9 -6 -12 -12q-2 0 -2 -2l-2 -2l-4 -4l-2 -4v4v12q0 1 2 8.5t4 12.5q0 1 1 3t1 3t1 3t1 3l8 12q17 30 51 54q46 33 88 45q23 9 56 16
q-85 45 -153.5 115t-110 146t-71.5 157t-43 153.5t-20 130t-8 91.5v34v15q5 159 35.5 291t76.5 224t109 163t128.5 113.5t140 69.5t137.5 36.5t127 9.5h24q64 0 126.5 -9.5t137 -36.5t140 -69.5t128.5 -113.5t109 -163t76 -224t35 -291zM248 1141q1 -153 18 -278.5t44 -214
t66.5 -156t82 -108t94.5 -66.5t99.5 -35.5t101.5 -10.5h8h16q53 1 100.5 10.5t99 35.5t94 66.5t82.5 108t67 156t44 214t19 278.5q-2 153 -19 277.5t-44 211.5t-67 153t-82 105t-94.5 63.5t-99 33.5t-100.5 10h-24q-54 -1 -101 -10t-99.5 -33.5t-95 -63.5t-82 -105
t-66.5 -153t-44 -211.5t-18 -277.5z" />
    <glyph glyph-name="R.ss01" horiz-adv-x="1089" 
d="M-4 2054h328q91 41 221 49q129 10 242 -30.5t192.5 -122.5t114.5 -211t10 -285q-5 -31 -27 -76.5t-66 -101.5t-101 -106t-141 -89t-177 -51q80 -64 182 -80q15 -196 53 -383.5t97 -361t142.5 -321.5t184 -260.5t228 -181.5t268.5 -81q169 -15 262 90q68 78 64 179
q-5 95 -72 140q-19 14 -43 21q-48 14 -93 -2t-69.5 -49.5t-20 -83t47.5 -94.5q-47 -5 -101 41t-61 129q-7 76 42.5 134.5t130 81t163.5 3.5q61 -14 108.5 -56.5t71 -99t28.5 -123t-20 -129.5q-41 -113 -144.5 -178.5t-221.5 -71.5q-66 -3 -136.5 6t-152.5 36t-162.5 71
t-165 114.5t-161 161t-149 217t-131 276t-105.5 344t-74 415.5q-7 60 -84 90q-36 0 -67.5 3.5t-47 7t-40 10t-30.5 8.5v-871q0 -22 5 -43.5t19.5 -49t48.5 -44.5t83 -18q9 0 13.5 -6.5t1 -13.5t-14.5 -7h-473q-12 0 -15.5 7t1.5 13.5t14 6.5q40 1 70 13t45.5 29t24.5 40
t11.5 39.5t2.5 33.5v1690q0 23 -5 44.5t-18.5 49t-47.5 44.5t-83 18q-9 0 -14 6.5t-1.5 13t15.5 6.5zM313 1837v-723q285 -68 451 79q122 108 147 296q22 175 -49 325q-71 149 -203 196q-30 11 -63 15q-63 7 -96 5q-46 -1 -81 -16t-54.5 -36t-31.5 -48.5t-16 -49.5t-4 -43z
" />
    <glyph glyph-name="S.ss01" horiz-adv-x="1130" 
d="M354 834l-26 22q-35 31 -35 80q0 34 29.5 43.5t44.5 -14.5q15 -25 -21 -58q0 -19 30 -47t60 -46l29 -19q32 -20 62 -55t42 -76q15 -57 6 -108t-41.5 -87t-72 -55t-86.5 -11.5t-84 43.5q-40 40 -43 89.5t26 80.5q12 15 35.5 24t49.5 7.5t49 -27.5t30 -75q4 -2 25 -4
t41.5 24t15.5 72q-5 52 -44.5 90t-102.5 35q-117 0 -190 -104q-71 -101 -63 -236q10 -154 122 -253q90 -79 231 -101q74 -5 134.5 9t100 40t69 63t44.5 73.5t24 76.5t11.5 66t1.5 48q-2 63 -19 123t-50.5 115.5t-69.5 102t-90.5 99.5t-97.5 92t-106.5 94.5t-102.5 92.5
q-126 117 -208.5 250.5t-93.5 263.5q-7 87 19 158.5t75.5 116.5t111.5 70.5t130 29.5q141 8 244 -67.5t121 -208.5q2 -13 21 -14t39.5 12t25.5 34q4 17 18.5 20.5t26 -6.5t8.5 -26q-4 -28 -25.5 -55.5t-48 -52t-53.5 -51.5t-45.5 -63t-19.5 -77q24 15 44.5 -13t10.5 -63
q-14 -44 -56 -55.5t-78 17t-34 85.5q1 23 15.5 49t32 61t22.5 77q8 65 2 116.5t-24.5 88.5t-44.5 62t-58.5 38t-66.5 16t-69 -4t-64.5 -21t-54 -37t-38.5 -50q-12 -25 -18.5 -49.5t-9 -45.5t3 -46t10.5 -42.5t20.5 -44t25.5 -42.5t33 -45.5t35.5 -44.5t41 -49t42.5 -50
q51 -61 114 -118t118 -99.5t142.5 -125.5t180.5 -188q89 -102 125.5 -216t21.5 -215.5t-72.5 -192t-145 -152t-208 -88t-251.5 -6.5q-87 13 -158.5 48t-116.5 77.5t-76.5 93.5t-45.5 94.5t-17 81.5q-6 95 23.5 175t81 130.5t113.5 79.5t124 31q3 0 6 1t8.5 5t-4.5 13z" />
    <glyph glyph-name="T.ss01" horiz-adv-x="1552" 
d="M-43 2048h1542q27 0 12 -25q-4 -4 -14 -10q-67 -46 -111.5 -85.5t-85.5 -95t-61 -126.5t-20 -160q0 -229 118 -291q40 -16 56 -7t41.5 24t50.5 10q39 -7 57.5 -34.5t16 -58.5t-21.5 -59t-48 -36q-117 -30 -201 57q-31 32 -60 79.5t-57 127t-38 168.5t7.5 209.5
t69.5 244.5h-264q-128 -12 -141 -155v-1643q0 -22 5.5 -44t21 -49t50 -44t83.5 -18q9 0 13.5 -6.5t1 -13.5t-14.5 -7h-473q-11 0 -14.5 7t1 13.5t13.5 6.5q49 1 83.5 18.5t49 43.5t19.5 49t3 44v1643q0 21 -4.5 41.5t-17 47t-42 44.5t-73.5 22h-266q52 -124 70 -244.5
t8 -209.5t-37.5 -168.5t-57.5 -127t-61 -79.5q-81 -86 -201 -57q-28 8 -47 36t-21.5 59t16.5 58.5t58 34.5q25 5 50 -10t41 -24t55 7q119 61 119 291q0 72 -14.5 133t-37 106t-60.5 87.5t-75 73t-90 67.5q-10 6 -14 10q-15 25 12 25z" />
    <glyph glyph-name="U.ss01" horiz-adv-x="1353" 
d="M893 2048h455q11 0 14.5 -6t-1 -12.5t-13.5 -6.5q-47 -1 -79.5 -18t-46 -43t-18 -46.5t-4.5 -41.5v-1274q0 -58 -3 -104.5t-15 -111.5t-32.5 -114.5t-60 -102.5t-93.5 -87.5t-136 -57t-184 -22.5q-87 0 -159.5 13.5t-123.5 37.5t-92 56.5t-65.5 69.5t-43.5 78t-26 81.5
t-13 79.5t-3.5 72.5t0.5 59.5v27v1276q-11 44 -51 79t-93 42q-81 12 -172 2q-136 -16 -212.5 -84.5t-70.5 -187.5q3 -65 42 -103.5t88 -42.5t97 20t68 71q20 50 10.5 89.5t-40.5 53.5q4 1 18.5 2.5t38 -5.5t45.5 -18t42 -36.5t28 -59.5q13 -58 -10.5 -106.5t-63 -75
t-84.5 -35.5q-83 -17 -163.5 11t-133 101.5t-43.5 174.5q9 134 113 219.5t284 85.5h582q12 0 15.5 -7t-1.5 -13.5t-14 -6.5q-40 -1 -70 -13.5t-45.5 -28.5t-25.5 -40.5t-12.5 -39t-4.5 -33.5v-1381q3 -124 20 -190q63 -246 328 -246q78 0 141 24t102 59t67.5 85.5t42 92
t21 90t8.5 68.5t1 38v1368q0 22 -4.5 42t-18 46t-46 43t-80.5 18q-8 0 -11.5 6.5t-0.5 12.5t12 6z" />
    <glyph glyph-name="V.ss01" horiz-adv-x="1646" 
d="M840 444l448 1436q18 49 -6 95t-96 46q-9 0 -14 6.5t-1.5 13.5t15.5 7h432q21 0 19.5 -16.5t-19.5 -16.5q-42 0 -79 -16t-60 -39.5t-39.5 -46.5t-23.5 -39l-7 -16l-586 -1835q-4 -11 -11.5 -18t-16.5 -3.5t-15 21.5l-622 1794q-2 6 -5.5 15.5t-18.5 34.5t-33 45t-49.5 38
t-67.5 22q-94 11 -172 2q-136 -16 -212.5 -84.5t-70.5 -187.5q3 -65 42 -103.5t88 -42.5t97 20t68 71q20 50 10 89.5t-41 53.5q4 1 18.5 2.5t38 -5.5t45.5 -18t42 -36.5t28 -59.5q13 -58 -10.5 -106.5t-63 -75t-84.5 -35.5q-83 -17 -163 11t-132 101.5t-44 174.5
q9 134 113 219.5t284 85.5h581q12 0 15.5 -7t-1.5 -13.5t-14 -6.5h-10h-2h-2q-33 -3 -63 -16q-55 -35 -29 -141z" />
    <glyph glyph-name="W.ss01" horiz-adv-x="1980" 
d="M1714 2062l422 -28q11 -1 14.5 -10.5t-1 -18.5t-13.5 -8q-49 8 -88.5 -2t-62 -29.5t-37.5 -41t-20 -36.5l-5 -16l-518 -1872h-74l-278 1130l-361 -1130h-74l-378 1389l-25 -3q-122 -6 -208 -7t-223 12t-267 45l-156 45q-68 25 -129.5 55.5t-136 84.5t-129.5 117.5
t-97.5 157.5t-52.5 201q-10 114 3 211.5t44.5 168t77 128.5t98.5 95.5t111.5 64.5t113.5 41t107.5 20t91 5.5t64.5 -5.5q47 -8 84.5 -16.5t91.5 -27t97.5 -42t97.5 -63t99 -88t94.5 -119t90.5 -155.5t81 -197.5t71 -243.5q9 -42 33 -138l43 -172l20 -75q11 1 30.5 4.5t78 17
t115.5 31t134 49.5t142 70l-37 172q-6 16 -14 43.5t-13 41t-16 32.5t-24.5 28t-37 14.5t-55.5 4.5q-14 0 -15.5 18.5t15.5 18.5h432q13 0 12.5 -14.5t-12.5 -14.5q-47 0 -68.5 -23t-20.5 -57.5t5 -73.5l15 -61q66 66 110 147q62 126 58 246.5t-55 214.5t-126 125
q-65 27 -134 17t-101 -46q-36 -36 -39 -88t37 -84q-58 -1 -101 38t-51 96.5t23 121.5q54 104 188 125t250 -57q93 -64 144 -186.5t45 -272.5t-74 -282q-52 -104 -156 -191l309 -1278l381 1467q3 30 1.5 54t-9.5 41.5t-28 26.5t-54 9q-7 0 -10.5 7.5t-0.5 14.5t11 6z
M-647 1569l155 -56q254 -76 590 -67q62 0 123 6q-90 327 -106 393q-25 99 -47 177t-53.5 166.5t-63.5 156.5t-75.5 136t-92 116.5t-110.5 86.5t-132 56q-47 12 -104 12.5t-121.5 -14.5t-126 -44t-116 -81t-92.5 -120.5t-54.5 -168t-3.5 -217.5q21 -172 129.5 -310.5
t300.5 -227.5zM999 1343l-55 252q-218 -127 -493 -184l258 -975z" />
    <glyph glyph-name="X.ss01" horiz-adv-x="1265" 
d="M1077 182l8 -14q42 -74 88 -107.5t103 -33.5q9 0 13.5 -6.5t1 -13.5t-14.5 -7h-432q-11 0 -14.5 7t1 13.5t13.5 6.5q50 0 73.5 19t21 48t-12.5 64l-297 686l-305 -703q-27 -44 -1.5 -79t91.5 -35q9 0 13.5 -6.5t1 -13.5t-14.5 -7h-461q-12 0 -15.5 7t1.5 13.5t14 6.5
q80 1 120.5 28t73.5 86l394 883l-111 250q-332 -79 -717 -53l-157 26q-57 13 -111.5 31.5t-120.5 48.5t-123.5 73t-111 98t-93 131t-59.5 165q-25 129 -22.5 232.5t35 185t78 143t106.5 105t120.5 72.5t120 45t104.5 22t75 4q60 -3 110 -10.5t118 -30.5t127 -59.5
t129.5 -102t133 -153t129.5 -217.5t127 -291l143 -371q62 16 150 51l205 471q52 131 -82 131q-9 0 -13.5 6.5t-1 13.5t14.5 7h446q11 0 14.5 -7t-1 -13.5t-13.5 -6.5q-110 0 -190 -141l-8 -14l-156 -344q304 173 393 405q45 133 27 252t-80 206t-141 109q-62 20 -132.5 0.5
t-97.5 -59.5q-31 -36 -28 -92t47 -78q-58 -8 -105.5 26t-62 90t7.5 124q40 110 168.5 155t257.5 -6q106 -41 175.5 -143t86.5 -240q5 -26 3 -68t-5.5 -87.5t-18.5 -100.5t-37 -108t-60 -109t-87 -104q-151 -144 -346 -246l-190 -424zM-465 1335l162 -37q256 -44 594 5
q86 13 119 20l-19 49q-10 26 -58 142t-75 188q-37 95 -69 169t-74 158.5t-82.5 148t-92 126t-105.5 104.5t-119.5 72t-137.5 39q-57 8 -124.5 -3t-140.5 -42.5t-134 -86t-105 -134.5t-53.5 -188.5t21.5 -247.5q40 -169 165.5 -294t327.5 -188zM629 1204l63 150
q-52 -21 -108 -39z" />
    <glyph glyph-name="Y.ss01" horiz-adv-x="1316" 
d="M942 2048h371q11 0 14 -7t-1.5 -13.5t-12.5 -6.5q-39 0 -70 -9.5t-48 -23t-28 -27t-15 -23.5l-3 -9l-406 -973v-774q0 -22 5 -43.5t19.5 -49t48.5 -44.5t83 -18q9 0 13.5 -6.5t1 -13.5t-14.5 -7h-477q-11 0 -14.5 7t1 13.5t13.5 6.5q49 1 83 18t48.5 44.5t19.5 49t5 43.5
v774l-428 949q-16 39 -58.5 66t-104 31t-132.5 -38q-67 -41 -84 -106q-25 -91 18 -162q46 -80 135 -99l6 -2q1 0 4.5 1t6 2.5t6 6t4.5 11.5q2 7 -9.5 33t-22.5 53.5t-2 66t46 70.5q21 18 56 22t73.5 -13.5t61.5 -55.5q34 -58 10 -131q-25 -67 -105 -98q-73 -29 -145 -11
q-51 10 -94 42t-70 77q-61 102 -24 199q19 50 54 86.5t71 53.5t69.5 26.5t54.5 10.5l21 1h434q11 0 14 -7t-1.5 -13.5t-12.5 -6.5q-129 0 -84 -129l344 -811l344 824l5 12.5t4 27.5t-5.5 35.5t-30.5 28t-65 12.5q-9 0 -13.5 6.5t-1 13.5t14.5 7z" />
    <glyph glyph-name="Z.ss01" horiz-adv-x="1515" 
d="M1165 1829l-807 -1600q-2 -3 -4 -9.5t-5 -25t-2 -37t10.5 -44t27.5 -47.5q69 -86 205.5 -139.5t275.5 -53.5q35 0 76 4t96 17t106 33t102 55.5t88.5 81t61 112.5t23.5 148q0 76 -30 135t-77.5 89.5t-101 42t-104.5 -3.5t-84 -52q-26 -28 -36.5 -70.5t-3.5 -81t38.5 -66.5
t81.5 -28q-53 -49 -115 -60.5t-111.5 10.5t-82.5 74t-33 121q0 109 100 195t230 86q97 0 173.5 -31.5t122 -84.5t71.5 -122.5t28 -146t-14.5 -155.5t-51.5 -150q-74 -152 -221 -225.5t-344 -61.5q-104 6 -189.5 31t-149 58t-126 66.5t-149 62.5t-189.5 40q-27 3 -30 25
t18 51l909 1763q22 54 -16.5 93.5t-130.5 39.5h-152h-178q-91 -7 -109 -57q-4 -30 -2.5 -41.5t11.5 -51.5t14 -69q12 -66 12 -109q-1 -48 -35.5 -69.5t-72.5 -9.5t-49 47q-6 31 -0.5 43t19 25.5t15.5 19.5q15 76 -5.5 146.5t-90.5 164.5q-3 5 -4.5 6.5t-4.5 3l-5 2.5
q-12 25 12 25h1251q12 0 15.5 -7t-1.5 -14.5t-14 -7.5q-66 0 -136.5 -46.5t-125.5 -139.5z" />
    <glyph glyph-name="A.ss02" horiz-adv-x="1861" 
d="M1147 2048l541 -1866q20 -54 84.5 -104.5t123.5 -50.5q8 0 12.5 -6.5t1.5 -13.5t-14 -7h-473q-11 0 -14.5 7t1 13.5t13.5 6.5q130 2 113 114l-170 588q-3 7 -9 20t-30 49t-54 67.5t-84 67.5t-118 58q-62 21 -113 32t-79 11.5t-47 -2t-25 -6.5l-6 -4l-254 -875
q-26 -118 110 -120q9 0 13.5 -6.5t1 -13.5t-14.5 -7h-403q-8 0 -12 4q-204 23 -252 174q-31 106 24 199q27 45 70 77t94 42q72 18 146 -11q79 -31 104 -98q24 -73 -10 -131q-23 -38 -61.5 -55.5t-73.5 -13.5t-56 22q-37 32 -46 70.5t2 66t22.5 53.5t9.5 33q-1 7 -4 11.5
t-5.5 6t-6.5 2.5l-4 1l-7 -2q-89 -19 -135 -99q-43 -71 -18 -162q18 -69 84 -106q62 -35 138 -38t132 24q49 42 72 112l489 1686q3 20 4.5 32.5t1 33t-7.5 33.5t-19.5 26.5t-37 20.5t-57.5 7q-9 0 -13.5 6.5t-1 13.5t14.5 7h313zM1040 1851l-206 -716q116 0 235 -39
q79 -25 133.5 -48t69.5 -34l14 -10z" />
    <glyph glyph-name="B.ss02" horiz-adv-x="1263" 
d="M16 2056h322q88 52 227 60q102 6 195.5 -24.5t162.5 -88.5t118 -140t62.5 -179t-5.5 -205q-25 -126 -113 -228t-246 -159q105 -26 195.5 -82t158.5 -136t98.5 -191.5t10.5 -236.5q-5 -27 -14 -58.5t-30 -76.5t-49 -86t-74 -83.5t-102.5 -73t-137 -49.5t-174.5 -19h-605
q-12 0 -15.5 7t1.5 14.5t14 7.5q40 1 70 13t45.5 28.5t24.5 39.5t11.5 39.5t2.5 34.5v1688q0 23 -5 44.5t-18.5 49t-47.5 44.5t-83 18q-9 0 -14 7t-1.5 14t15.5 7zM471 74h41q113 -4 204 29.5t148 91.5t91 135.5t40 161t-12 168t-58 157t-105.5 128.5t-147.5 81
q-94 30 -162 4q-38 -14 -32 -33q0 -3 3 -6q32 -34 5 -60t-62 -13q-24 11 -33.5 33.5t-6.5 39.5l3 17q7 42 54 75t132 33h19q85 17 152 64t107 111t60.5 142t19 156.5t-23 154t-60.5 135.5t-98.5 101t-132.5 50q-119 14 -197.5 -38.5t-84.5 -164.5v-1624q4 -43 35 -80.5
t102 -48.5z" />
    <glyph glyph-name="C.ss02" horiz-adv-x="2037" 
d="M2046 1970q32 13 40.5 -9t-18.5 -42q-7 -5 -21.5 -14.5t-20 -14t-17 -17t-24.5 -30.5q-5 -8 -15 -29.5t-25 -55t-24 -52.5q-40 -98 -63 -138q-153 -258 -467 -186q-40 9 -85.5 24t-76 27t-81.5 32.5t-73 29.5q-24 -78 -35 -154q144 -64 230.5 -192t105.5 -289
q17 -148 -34.5 -295.5t-159.5 -257.5q87 -133 202.5 -193t227.5 -53q157 11 227 101q28 36 43.5 72.5t17 64.5t-4 50.5t-15.5 34t-20 11.5q-11 0 -19 -4q-9 -6 -22 -6q-31 0 -58.5 30t-23.5 60q6 42 33.5 63t62.5 21q33 0 55 -16q51 -32 77.5 -97.5t12.5 -154.5
q-4 -24 -16 -54t-41 -70.5t-70 -74t-108.5 -59.5t-149.5 -31q-20 -4 -56 -1t-76.5 7t-92.5 19.5t-102.5 36.5t-107.5 58t-107 85q-175 -91 -392 -76q-107 9 -207 45t-191.5 100t-163 166t-109.5 232q-28 96 -29 199.5t27 203t80 190.5t134.5 165t185 124.5t237.5 69.5t286 0
q43 82 99.5 149t111.5 109.5t118 74.5t113.5 48.5t104 26.5t84.5 12t59 2q76 0 137 -16t94.5 -34.5t65 -34.5t67.5 -15.5t83 22.5zM1843 1745l10 80q-4 53 -32.5 89.5t-66 51t-74.5 22t-62 6.5l-25 -1q-7 0 -19 -1t-50 -9.5t-74.5 -23.5t-86.5 -46.5t-94 -74t-89 -111.5
t-78 -154q25 -8 68.5 -24t67 -24t63.5 -18t73 -13t79 -2.5t97 7.5q65 9 119.5 38t85 63.5t52 67.5t29.5 55zM825 1397q22 95 49 157q-158 7 -292.5 -35.5t-226.5 -118.5t-154 -178t-84 -213.5t-6.5 -226t68 -214t150.5 -179.5t230 -121q65 -20 142.5 -25.5t155 8t126.5 46.5
q-72 76 -133.5 289.5t-61.5 464.5q0 44 5 110.5t11 110.5l5 45q-228 -3 -354 -150q-91 -108 -96 -246q-4 -123 62 -192q45 -44 107 -49q67 -5 88 48q18 43 -7 82q-30 43 -85 24q44 38 102.5 34t96.5 -55q28 -37 30.5 -95t-20.5 -97q-38 -70 -111 -99t-165 -2
q-149 44 -209 185q-58 137 -8 300q51 171 195 278q162 121 390 114zM1257 770q6 148 -53 279t-176 200q-12 -91 -12 -200q-3 -380 112 -641q58 66 91 161.5t38 200.5z" />
    <glyph glyph-name="D.ss02" horiz-adv-x="1843" 
d="M545 182v768q-171 -19 -282 -175q-105 -147 -113 -349q-10 -218 101 -382q136 -202 406 -235q69 -9 144 -6q314 12 526 278q188 235 250 606q63 370 -23 729q-89 378 -313 602q-266 265 -659 241q-110 -6 -198 -50t-138 -108.5t-70 -142t-4 -152.5q32 -135 147 -149
q56 -8 107 22.5t51 83.5q28 -38 30 -84.5t-18.5 -86.5t-63 -70t-97.5 -37q-130 -19 -219 62.5t-99 232.5q-4 54 9 115.5t51 132t97 129.5t159 106.5t225 65.5q159 23 314 -2.5t292 -93t254.5 -179.5t203.5 -255t137.5 -326.5t57.5 -387.5q5 -172 -22 -336.5t-82.5 -312.5
t-143 -273.5t-199 -218t-255.5 -147.5t-307 -61q-347 -12 -560 144.5t-239 441.5q-13 139 30.5 265.5t122.5 214t180 143.5t206 69h4v841q0 17 -2.5 33.5t-12 39.5t-25.5 40t-46 29.5t-70 13.5q-7 0 -11.5 6.5t-2.5 12.5q0 12 16 12q13 0 76 14.5t123 32.5q33 10 53 24.5
t28 25t13 11.5q10 3 16 -1t6 -9l1 -6v-1116q124 -3 224.5 -47t159.5 -111.5t90 -147.5t26 -161.5t-42 -147.5q-32 -57 -79 -91t-94 -38.5t-90 9.5t-71.5 51t-33.5 88q58 -31 125.5 -1t97.5 107q14 37 15.5 82.5t-8.5 93.5t-35.5 93t-63 80.5t-95 57t-126.5 21.5v-774
q0 -22 5 -43.5t19 -49t48 -44.5t83 -18q8 0 12.5 -6.5t1.5 -13.5t-14 -7h-473q-9 0 -12.5 6.5t-0.5 13t11 7.5h4q27 0 45 6q109 26 109 149z" />
    <glyph glyph-name="E.ss02" horiz-adv-x="1230" 
d="M334 926v-731q1 -21 6.5 -41t18.5 -44.5t41.5 -40.5t68.5 -20h291q167 0 211 98q25 55 24 175t-26 253q-3 17 -7.5 40t-7 38.5t-2.5 32.5q0 42 36 63.5t76 12t50 -44.5q6 -30 0 -42.5t-19 -26t-14 -19.5q-19 -92 6.5 -301.5t90.5 -296.5q4 -6 12 -13q16 -22 -12 -22
l-1162 -2q-12 0 -15.5 6.5t1.5 13t14 6.5q40 1 70 13.5t45.5 29t24.5 40t11.5 40t2.5 33.5v1690q0 17 -2.5 33.5t-11.5 39.5t-24.5 40t-45.5 29t-70 13q-9 0 -14 6.5t-1.5 13.5t15.5 7h1162q27 0 12 -25q-9 -4 -12 -10q-69 -94 -95 -205.5t-8 -189.5q1 -7 12 -17.5t18 -24.5
t3 -34q-8 -29 -44 -37.5t-69.5 8.5t-33.5 50q0 21 9.5 56.5t12.5 57.5q11 58 10.5 114t-22.5 105q-45 99 -211 99h-291q-40 -4 -68.5 -20t-41.5 -40.5t-18.5 -44.5t-6.5 -41v-635q76 67 165.5 96t168.5 21t146 -45t104 -98q31 -50 36 -105t-12.5 -100.5t-51 -83t-75.5 -57
t-90.5 -17.5t-91.5 31q30 -1 61.5 20.5t52 57t29 75.5t-9 82t-61.5 70q-36 24 -85 27.5t-98 -14.5t-92 -50t-69.5 -84.5t-26.5 -113.5z" />
    <glyph glyph-name="F.ss02" horiz-adv-x="1017" 
d="M33 1849q-13 0 -31 3.5t-47 18.5t-53 39t-43.5 70t-22.5 107q-5 84 44.5 158.5t140 118.5t198.5 42q83 -1 183.5 -30.5t173.5 -63.5t171 -82t144 -67q122 -49 245 -53t210 46.5t92 151.5q3 65 -28.5 109t-77.5 58t-97 7t-86 -35q-32 -23 -44.5 -70.5t-2.5 -90.5t39 -56
q-29 2 -56 12t-52 28.5t-41 51.5t-19 76q-6 88 51.5 145.5t153.5 73.5q145 25 240.5 -64t97.5 -243q1 -99 -33 -173.5t-92.5 -115.5t-136 -58t-164.5 -6.5t-175 44.5q-65 25 -221.5 95t-273.5 108.5t-236 48.5q-69 6 -124.5 -9t-88 -44.5t-51 -62.5t-24.5 -69
q-10 -57 30.5 -128.5t106.5 -90.5zM502 1096h162q3 0 9 0.5t22 4.5t31 10.5t33 20t31 31.5t22 47.5t9 65.5q9 12 24.5 16.5t26.5 2t11 -8.5q-13 -99 -13 -227q0 -129 13 -228q0 -6 -11 -8t-26.5 2.5t-24.5 16.5q0 36 -8.5 65.5t-22.5 47.5t-31 31.5t-33.5 20.5t-30.5 10.5
t-23 4.5l-8 2h-162q-119 -10 -133 -125v-717q0 -153 153 -155q9 0 14 -6.5t1.5 -13.5t-15.5 -7h-473q-11 0 -14.5 7t1 13.5t13.5 6.5q49 1 83 18t48.5 44.5t19.5 49t5 43.5v1688q0 17 -2.5 34t-12 40t-25.5 39.5t-46 28.5t-70 13q-9 0 -13.5 6.5t-1 13.5t14.5 7
q14 0 76.5 14t124.5 33q26 8 44.5 19t25.5 19.5t13 15.5t11 8q11 3 17.5 -1.5t6.5 -9.5l1 -6v-925q6 -47 36 -83t97 -40z" />
    <glyph glyph-name="G.ss02" horiz-adv-x="1503" 
d="M1090 926h323q51 4 56 -25q3 -21 -15 -30q-6 -3 -12 -3q-41 0 -70.5 -8.5t-44 -19t-22 -28.5t-8.5 -29t-1 -29v-688q0 -41 -11 -53.5t-34 -12.5h-30q-23 0 -41.5 18t-26.5 33q-57 102 -149 31q-57 -44 -128 -62t-134.5 -11.5t-106 17t-70.5 23.5q-58 22 -111.5 53
t-111 79.5t-106.5 108t-93.5 142t-75.5 178.5t-49 220t-18 264t25 260.5t65.5 209t98.5 162t118 122t130.5 86.5t129 58.5t120.5 34.5t98.5 18.5t68.5 6.5q83 4 175 -20t177 -77t148.5 -127t91 -179t2.5 -222q-28 -132 -129 -195t-238 -34q-89 19 -151 85.5t-65.5 152.5
t75.5 174q-11 -22 -12.5 -51.5t7.5 -61t27 -59.5t49 -47.5t70 -24.5q30 -3 59 1.5t60 20t57.5 50t42.5 84.5q15 44 15.5 92t-13 95.5t-39 92.5t-66.5 82.5t-91 65t-116 41.5t-140 10q-94 -5 -162 -27q-236 -74 -355 -320q-105 -220 -104 -560q0 -164 18.5 -304t49.5 -242
t73.5 -184.5t89.5 -135.5t100 -89t102 -52t98 -19q77 0 139.5 23t102 57.5t68.5 85.5t43.5 95t22.5 98.5t9.5 84.5t1.5 63v185q0 62 -39 79.5t-78 -1.5t-39 -45q0 -5 8 -17q11 -11 11 -20q7 -34 -12.5 -64.5t-59.5 -36.5q-48 -5 -79.5 33t-18.5 105q27 133 250 133z" />
    <glyph glyph-name="H.ss02" horiz-adv-x="1382" 
d="M352 1872v-658q3 1 31 16t55.5 27.5t68.5 26.5t90.5 22t100.5 7q142 -4 228 -78t86 -182q0 -116 -77 -186t-183 -62q-36 2 -73 15t-70.5 37.5t-51 68t-8.5 98.5q5 34 24 59t43 37t48.5 17.5t41.5 5t21 -3.5q-33 -14 -44.5 -55.5t11.5 -86.5q28 -54 88 -65.5t110.5 22
t55.5 95.5q11 118 -105 157q-104 35 -250 -5q-140 -38 -205 -116q-36 -44 -36 -90v-477v-336q0 -23 5 -44t19 -48.5t48 -44.5t84 -18q9 0 13.5 -6.5t1 -13.5t-14.5 -7h-494q-11 0 -14 7t1.5 13.5t12.5 6.5q50 1 87 18.5t55 43.5t26 49.5t8 43.5v1690q0 20 -8 43.5t-26 50
t-55 44t-87 18.5q-8 0 -12.5 6.5t-1.5 13t14 6.5h494q11 0 14.5 -6.5t-1 -13t-13.5 -6.5q-50 -1 -84 -18t-48 -45t-19 -49t-5 -44zM1219 1872v-1690q0 -20 8 -43.5t26 -49.5t55 -43.5t87 -18.5q9 0 13.5 -6.5t1 -13.5t-14.5 -7h-494q-11 0 -14 7t1.5 13.5t12.5 6.5
q50 1 84 18t48 44.5t19 48.5t5 44v1690q0 21 -6 43.5t-21.5 49.5t-51 44.5t-85.5 18.5q-8 0 -12.5 6.5t-1.5 13t14 6.5h502q11 0 14.5 -6.5t-1 -13t-13.5 -6.5q-50 -1 -87 -18.5t-55 -44t-26 -50t-8 -43.5z" />
    <glyph glyph-name="I.ss02" horiz-adv-x="385" 
d="M250 1866v-1819q76 -54 202 -148.5t205.5 -153t200.5 -137.5t221 -131t230.5 -102t263.5 -80q121 -24 207 -0.5t132 73t40 104.5q-8 72 -74 88q-60 15 -117 -21q-63 -39 -56 -103q2 -17 9 -34q-51 45 -67 95t0 89t53.5 67t87.5 32q97 8 169.5 -66.5t49.5 -200.5
q-19 -106 -98 -165.5t-203 -68.5t-294 36.5t-365 142.5q-236 120 -495.5 299t-344.5 252q-62 -149 -232 -227q-55 -25 -128 -34t-162.5 9t-159.5 68q-34 22 -63 64.5t-43.5 97t-11 110t39 108.5t100.5 87q122 58 275 37.5t262 -97.5q4 4 4 8v1721q0 22 -5 43.5t-19.5 49
t-48.5 44.5t-83 18q-9 0 -13.5 6.5t-1 13.5t14.5 7h474q11 0 14.5 -7t-1 -13.5t-13.5 -6.5q-49 -1 -83 -18t-48.5 -44.5t-19.5 -49t-5 -43.5zM-522 -59q0 -119 101 -180q94 -57 217 -34q136 25 215 132q42 57 59 131q-71 53 -172.5 83.5t-194.5 31.5t-159 -41t-66 -123z" />
    <glyph glyph-name="J.ss02" horiz-adv-x="1626" 
d="M848 1868v-1395q0 -29 -2 -43q134 -74 211 -108q89 -39 174.5 -53t154.5 -1.5t112.5 59.5t47.5 124q3 59 -24.5 101.5t-69 60t-89 14.5t-83.5 -29q-49 -37 -53.5 -106.5t41.5 -92.5q-65 9 -112.5 50.5t-51.5 123.5q-3 89 65.5 149t165.5 62q80 2 140 -30t90 -83.5
t42 -108.5t5 -111q-19 -134 -95.5 -221t-209 -109.5t-316.5 53.5q-71 29 -184 92q-62 -149 -232 -227q-57 -26 -129.5 -36t-168 8t-173.5 73q-29 21 -58 58t-47.5 90.5t-17.5 108t41 113t119 103.5q98 51 230 45q127 -5 315 -90v1329q0 33 -6 61t-12.5 44.5t-20.5 34t-20 23
t-23 18.5l-16 12q-83 45 -166 67.5t-150.5 23.5t-125.5 -15.5t-96 -47.5t-57 -75t-13 -95q5 -45 44 -77t87.5 -41t95.5 7t67 56q20 48 10.5 88.5t-40.5 54.5q4 1 18.5 3t38 -5.5t45.5 -18t42 -36t28 -59.5q13 -58 -10.5 -106.5t-63 -75t-84.5 -35.5q-124 -25 -221 40.5
t-115 196.5q-21 149 66.5 251.5t244.5 102.5q90 0 170 -19t137.5 -46t108 -54t104.5 -47t105 -22h166q11 0 14 -7t-1.5 -13.5t-12.5 -6.5q-50 -1 -87 -18.5t-55 -43.5t-26 -49.5t-8 -43.5zM393 61q87 0 165 72.5t110 208.5q-172 90 -295 107q-23 1 -58 3t-76.5 -8t-77 -25
t-59.5 -48t-24 -78q0 -109 88.5 -170.5t226.5 -61.5z" />
    <glyph glyph-name="K.ss02" horiz-adv-x="1798" 
d="M829 870v-585q54 -39 153.5 -111t157.5 -114t152.5 -106.5t161.5 -105.5t160 -92.5t173 -86.5t175 -68.5t190 -55.5q89 -22 174 -17.5t150 26.5t102 66t31 101q-8 82 -83 117q-67 32 -134 5q-71 -29 -78 -106q-3 -38 13 -85q-51 39 -71.5 93.5t-10.5 102.5t42.5 87.5
t79.5 52.5q101 28 180.5 -14t115.5 -126t22 -180q-14 -103 -77.5 -168.5t-164.5 -87.5t-229.5 -8.5t-279.5 67.5t-308 142q-237 134 -507.5 316t-332.5 235q-62 -150 -231 -227q-55 -25 -128 -34t-163 9t-160 68q-34 22 -63 64.5t-43 97t-10.5 109.5t39 108t100.5 87
q123 58 276.5 37.5t262.5 -98.5v1454q0 33 -6 61t-12.5 44.5t-20.5 34t-20.5 23.5t-22.5 17.5t-17 12.5q-83 45 -166 67.5t-150.5 23.5t-125.5 -15.5t-96 -47.5t-57 -75t-13 -95q8 -61 69.5 -95.5t130.5 -24t95 64.5q20 48 10 88.5t-41 54.5q4 1 18.5 3t38 -5.5t45.5 -18
t42 -36t28 -59.5q19 -85 -32 -144t-125 -73q-124 -25 -221 40.5t-115 196.5q-21 149 66.5 251.5t244.5 102.5q91 0 171.5 -19t137.5 -46t108 -54t105 -47t105 -22h166q11 0 14 -7t-1.5 -13.5t-12.5 -6.5q-50 -1 -87.5 -18.5t-55.5 -43.5t-26 -49.5t-8 -43.5v-824l594 881
q26 34 3 66t-83 32q-9 0 -13.5 6.5t-1 13.5t14.5 7h379q11 0 14.5 -7t-1 -13.5t-13.5 -6.5q-56 0 -88 -18t-69 -70l-482 -694q105 -197 253.5 -472t244.5 -451l96 -177q24 -43 81.5 -77.5t115.5 -34.5q9 0 13.5 -6.5t1 -13.5t-14.5 -7h-463q-11 0 -14.5 7t1 13.5t13.5 6.5
q36 0 55 9.5t22 29t-1.5 38.5t-16.5 48l-501 919zM649 240q-56 49 -134.5 81t-156.5 39t-146.5 -6t-111.5 -56t-43 -108q0 -119 101 -180q94 -56 217 -33q136 25 215 132q42 58 59 131z" />
    <glyph glyph-name="L.ss02" horiz-adv-x="1490" 
d="M360 1462v-1282q4 -72 53.5 -130.5t125 -93t162 -53t173.5 -18.5q35 0 76 4t96 17t106 33t102 55.5t88.5 81t61 112.5t23.5 148q0 84 -30 146.5t-77.5 91.5t-101 37t-104 -9.5t-84.5 -54.5q-26 -28 -36.5 -70.5t-3.5 -81t38.5 -66.5t81.5 -28q-53 -49 -115 -60.5
t-111.5 10.5t-82.5 74t-33 121q0 108 99 190.5t231 90.5q97 6 175.5 -22.5t128 -81.5t79.5 -124.5t35.5 -150t-9 -159.5t-49.5 -152q-73 -150 -234.5 -224.5t-361.5 -62.5q-110 7 -198 36t-147.5 65t-121 70.5t-150.5 57.5t-202 21q-12 0 -15.5 7t1.5 13.5t14 6.5
q40 0 70 12t45.5 29t24.5 40.5t11.5 40t2.5 33.5l-2 1276q-23 -2 -50.5 -3t-92.5 2t-121.5 13t-125 36t-117 65t-82.5 105t-36 151q-2 83 28 153t80 112.5t109.5 66t120.5 20.5t110 -31q60 -36 88.5 -100t7 -137.5t-99.5 -122.5q15 37 15.5 75t-17 72.5t-43 60t-63.5 37.5
t-78 5q-81 -14 -128.5 -74.5t-35.5 -144.5q9 -61 49.5 -106t97.5 -68.5t126.5 -34.5t134.5 -9.5t123 13.5q0 272 23.5 412t72.5 249q10 24 26.5 51.5t49.5 67t73 70t100.5 52t127.5 21.5h32q56 -2 72 -8q68 -18 122 -55t85.5 -84t53 -93.5t31 -93.5t12.5 -73t3 -43
q0 -254 -184.5 -426t-534.5 -199zM627 1686l49 24q98 56 164 131q68 73 104 170q20 59 26 123t-7.5 125t-44.5 108t-90.5 72.5t-139.5 18.5q-106 -10 -183 -110.5t-112 -244.5q-11 -41 -22 -166t-11 -323q97 14 113 18q49 11 105 31q16 8 24 10l4 2l2 2l6 2l4 2h3z" />
    <glyph glyph-name="M.ss02" horiz-adv-x="1558" 
d="M1370 1872v-285q78 75 143 180q56 93 64 198t-27 193t-102 144q-54 46 -130.5 52t-127.5 -27q-45 -28 -55.5 -83t28.5 -110q-44 -14 -89.5 5t-74 58t-40.5 89.5t12 99.5q50 106 178 143t256 -20q53 -23 101.5 -67t87 -111t56.5 -146.5t5.5 -181.5t-60.5 -207
q-70 -154 -225 -293v-1319q0 -23 5 -45t19.5 -49.5t48.5 -44.5t83 -18q9 0 14 -6.5t1.5 -13.5t-15.5 -7h-471q-12 0 -15.5 7t1.5 13.5t14 6.5q40 1 70 13t45.5 29t25 40.5t12 40t2.5 34.5v1194q-54 -36 -129 -80l-344 -976l-217 684l-33 92q-107 -18 -184 -23v-891
q0 -23 5 -45t19 -49.5t48 -44.5t84 -18q9 0 13.5 -6.5t1 -13.5t-14.5 -7h-426q-11 0 -14.5 7t1 13.5t13.5 6.5q49 1 83 18t48 44.5t19 49t5 43.5v885q-202 -6 -421 23l-156 34q-68 20 -132 47t-141.5 76.5t-137 110.5t-107.5 152t-64 198q-26 149 -3.5 262.5t68.5 197
t118 140.5t145 92.5t149.5 53.5t131 23t90.5 1q54 -6 98.5 -15t104.5 -27.5t113 -50.5t109 -78t107.5 -116.5t93.5 -158.5q31 -54 110 -266t142 -397l64 -185q133 37 299 121l243 749h314q12 0 15.5 -6.5t-1.5 -13t-14 -6.5q-40 -1 -70 -13t-46 -29.5t-25.5 -40.5t-12 -39.5
t-2.5 -33.5zM-403 1212l159 -47q193 -45 432 -39v809q-88 191 -203.5 309t-273.5 150q-56 11 -123.5 4t-142.5 -34t-139 -78t-113 -128t-65 -185t6 -249q31 -171 148.5 -304t314.5 -208zM1210 1669l-100 -287q77 51 100 68v219zM303 1645v-512q17 0 45 4q58 3 121 12
q-1 3 -2.5 8t-5 16t-5.5 18t-1 7q-76 218 -115 336zM797 778l147 453q-148 -70 -266 -101q43 -131 47 -137h-4z" />
    <glyph glyph-name="N.ss02" horiz-adv-x="1431" 
d="M1196 1864v-1530q4 -16 27 -63t57.5 -107t79 -105t82.5 -45q9 0 13.5 -6.5t1 -13t-14.5 -6.5h-156q-31 0 -56.5 5.5t-41 12t-30.5 20t-21 22t-17 25.5t-16 23q-15 20 -217 415t-397 781l-195 385v-1482q0 -23 5 -44t19 -49t48 -45t84 -18q8 0 12.5 -6.5t1.5 -13.5t-14 -7
h-426q-12 0 -15.5 7t1.5 13.5t14 6.5q40 1 70 13t45.5 29t25 40.5t12 40t2.5 33.5v1605q0 11 -12.5 36t-36.5 56.5t-53.5 60.5t-68 48.5t-75.5 19.5q-9 0 -13.5 6.5t-1 13.5t14.5 7h240q46 0 79 -12.5t46 -25.5t31 -38t26 -33q20 -21 201 -364t352 -675.5t170 -332.5v1297
q0 23 -5 44.5t-19.5 49t-48.5 44t-84 17.5q-9 0 -13.5 7.5t-1 14.5t14.5 7h430q12 0 15.5 -7t-1.5 -14.5t-14 -7.5q-49 -1 -83 -18t-48.5 -44.5t-19.5 -49t-5 -43.5z" />
    <glyph glyph-name="O.ss02" horiz-adv-x="1505" 
d="M1491 1059v-70q-2 -61 -7.5 -125t-25 -167t-49.5 -192t-86 -186t-130 -165.5t-186.5 -113t-248.5 -44.5h-25q-412 0 -600 391q-120 248 -132 599q-1 31 -1 67v6q0 173 29 318.5t75.5 245.5t111.5 177.5t131 123t140 75t132.5 39.5t113.5 10h10q27 -3 29 -18
q1 -14 -18 -18l-21 -1q-47 -3 -91.5 -14.5t-96.5 -41t-96 -74.5t-86 -119.5t-71 -170.5t-47 -233.5t-18 -302.5q0 -170 16 -311.5t43.5 -242t67 -178.5t83 -126t95.5 -79t100 -43.5t101 -13.5h8h17q53 1 101 13.5t100.5 43.5t95.5 79.5t83 126.5t67.5 179t43 243t15.5 313
q-1 167 -23.5 303.5t-62.5 232.5t-96.5 160.5t-123.5 94.5t-145 28q-93 -2 -166.5 -58.5t-107 -137t-25 -175t65.5 -166.5q46 -59 111.5 -80t123 -4t99.5 76t44 148q42 -43 61 -100t10.5 -113.5t-37 -105.5t-86 -79.5t-132.5 -31.5q-108 0 -198 48t-143 129.5t-70.5 189.5
t20.5 229q6 20 19.5 50t50 79t84 88t126.5 68.5t173 29.5q87 0 172 -28t171 -95.5t152 -168t110 -258.5t50 -353z" />
    <glyph glyph-name="P.ss02" horiz-adv-x="1253" 
d="M164 182v1227q-50 -56 -129 -68q-131 -17 -220.5 64.5t-99.5 232.5q-5 55 6.5 117.5t47.5 136t93 137.5t155 118.5t223 80.5q93 23 188.5 24.5t185.5 -16.5t174.5 -55.5t156.5 -90.5t130.5 -125t97.5 -155.5t56 -184.5t8 -210q-8 -86 -36.5 -167.5t-82 -154.5
t-126 -125.5t-175 -80.5t-221.5 -21q-86 5 -166 42t-102 89v-815q0 -22 5 -43.5t19 -49t48 -44.5t83 -18q9 0 13.5 -6.5t1 -13.5t-14.5 -7h-155h-318q-12 0 -15.5 7t1.5 13.5t14 6.5q40 1 70 13t45.5 29t24.5 40t11.5 39.5t2.5 33.5zM328 2036v-662q43 54 108.5 74.5
t134.5 3.5q34 -7 68 -26t64 -51.5t38 -75.5t-8 -99q-12 -32 -35 -53.5t-48.5 -29t-50 -9t-41 2t-19.5 7.5q34 10 52.5 49t2.5 84q-11 35 -39 58t-61.5 28.5t-66.5 -1t-59 -30.5t-34 -61q-15 -67 6 -126.5t66 -99t109.5 -59.5t132 -16.5t136.5 37.5t121 96q78 95 111.5 216.5
t15.5 312.5q-12 139 -75 253.5t-164 187.5t-235 102.5t-288 -1.5q-147 -28 -246 -106t-134.5 -176.5t-12.5 -200.5q32 -135 148 -149q39 -6 78.5 8t60.5 43v196q0 17 -2.5 33.5t-11.5 39.5t-24.5 40t-45.5 29.5t-70 13.5q-9 0 -14 6.5t-1.5 13.5t15.5 7q14 0 77 13.5
t122 31.5q27 9 45.5 20t26 19.5t13.5 15.5t11 8q10 3 16 -1.5t7 -10.5v-6z" />
    <glyph glyph-name="Q.ss02" horiz-adv-x="1529" 
d="M758 1989h-25q-53 -1 -100.5 -12t-99 -39t-94 -72.5t-82.5 -116.5t-67 -166.5t-44 -228.5t-19 -297q8 -685 250 -899q10 117 91 202t210 91q95 3 163.5 -63t62.5 -157q-6 -93 -79.5 -162t-191.5 -69q-39 0 -92.5 7t-73.5 13q9 -134 177 -170.5t446 19.5q96 18 191.5 49.5
t165.5 60t143 55t156.5 40.5t174.5 10q168 -7 257.5 -100t80.5 -240q-1 -11 -4 -28.5t-25.5 -58.5t-58.5 -65q-43 -29 -96.5 -33t-112.5 21q-31 14 -50.5 42.5t-23.5 61t2.5 66.5t29 57t55.5 33t82 -4q-34 -7 -52.5 -44.5t-7.5 -74.5q12 -40 46 -61.5t70 -20t67.5 25.5
t37.5 67q14 86 -35.5 147.5t-135 85t-181.5 8.5q-47 -7 -133 -38t-177.5 -68.5t-207 -78.5t-222 -69t-223.5 -40t-210 8q-138 27 -217 117t-91 243q-79 30 -145.5 82.5t-113 111.5t-84.5 135.5t-61 143t-39.5 147.5t-24.5 135.5t-12 119.5t-4.5 88t-0.5 51q0 169 26.5 311
t70.5 242t105.5 178.5t126.5 126.5t139 79t138 42.5t127 11.5h25q63 0 126 -11.5t134.5 -42.5t135.5 -79t124 -126.5t104.5 -178.5t74 -242t34.5 -311v-15q0 -30 -1.5 -67t-9.5 -114.5t-21.5 -150.5t-41.5 -165t-65 -169.5t-97 -152t-133 -123.5q-10 -6 -21.5 -9.5t-26 0
t-21.5 18.5q-5 15 -0.5 30t12.5 27l8 12q198 213 191 879q-2 163 -19 297t-44 228.5t-67 166.5t-82.5 116.5t-94 72.5t-99 39t-100.5 12zM559 121v-21q60 -35 134 -39t127 20t59 64q4 30 -10.5 62t-41.5 53q-35 27 -82 32t-88.5 -11.5t-70 -58.5t-27.5 -101z" />
    <glyph glyph-name="R.ss02" horiz-adv-x="1845" 
d="M578 2054h327q91 41 221 49q129 10 242.5 -30.5t193 -122.5t114.5 -211t10 -285q-5 -32 -25 -76.5t-61 -101.5t-95 -106.5t-136 -88.5t-175 -51q33 -27 68.5 -37.5t103.5 -21.5q0 -48 20 -135.5t54 -193t84 -214.5t105 -198t122 -146t131 -57q8 0 12.5 -6.5t1.5 -13.5
t-14 -7h-383q-11 0 -14 7t1.5 13.5t12.5 6.5q40 -2 58.5 8.5t17.5 28t-14 42.5q-91 119 -157 227t-112 218.5t-72 187t-64 205.5q-6 21 -9 31q-8 28 -43 49q-90 0 -209 29v-658q0 -114 -32.5 -213.5t-92.5 -174.5t-152 -118t-204 -43q-88 0 -165 25.5t-136 74t-89.5 128
t-21.5 178.5q6 80 59 141.5t148 85.5q53 14 103 -0.5t82.5 -49.5t46.5 -86.5t-5 -111.5q2 48 -35.5 80.5t-86.5 38.5t-96 -19.5t-62 -80.5q-19 -65 -0.5 -125.5t58 -106t100.5 -70.5t126 -20q291 22 291 430v1489q-8 47 -48.5 84.5t-96.5 44.5q-81 12 -172 2
q-136 -16 -212.5 -84.5t-70.5 -187.5q3 -65 42 -103.5t88 -42.5t97 20t68 71q20 50 10 89.5t-41 53.5q4 1 18.5 2.5t38 -5.5t45.5 -18t42 -36.5t28 -59.5q13 -58 -10 -106.5t-62.5 -75t-84.5 -35.5q-83 -17 -163 11t-132.5 101.5t-44.5 174.5q9 134 113 219.5t284 85.5h102
q2 2 9 2zM895 1837v-723q285 -68 451 79q122 108 147 296q22 175 -49 325q-71 149 -203 196q-30 11 -63 15q-63 7 -97 5q-16 0 -24 -2q-3 -3 -8 -3h-9q-43 -9 -74 -31.5t-45 -52t-20 -54.5t-6 -50z" />
    <glyph glyph-name="S.ss02" horiz-adv-x="1134" 
d="M934 831q81 -93 115 -195.5t22.5 -194t-59.5 -173.5q-30 -51 -102 -117t-171 -108q-94 -40 -195 -47t-191.5 19t-165.5 76.5t-124.5 131t-60.5 178.5q-11 92 20 175.5t88.5 138t136.5 80t161 10.5q93 -16 162.5 -86.5t78.5 -181.5q6 -66 -14 -118.5t-55 -83t-81 -45.5
t-92.5 -12.5t-89 21.5t-69.5 53q-48 58 -51 119q-3 48 24 81.5t61 45t62 4.5q48 -11 72.5 -42t27 -61.5t5 -58t10.5 -32.5q43 -28 80 21.5t30 125.5q-7 62 -33 107.5t-61 67t-68.5 31t-64.5 7.5q-118 -4 -182 -115q-62 -107 -43 -249q21 -157 130 -252q89 -77 218 -91
q246 -5 340 156q41 80 41 184q-1 56 -17 112.5t-36 102.5t-59.5 102.5t-69 93.5t-85.5 93.5t-86.5 86t-94.5 88.5t-89 83q-126 119 -208 252t-93 262q-7 87 19 158.5t75.5 116.5t111.5 70.5t130 29.5q141 8 244 -67.5t121 -208.5q2 -13 21 -14t39.5 12t25.5 34
q4 17 18.5 20.5t26 -6.5t8.5 -26q-4 -28 -25.5 -55.5t-48.5 -52t-53.5 -51.5t-45.5 -63t-20 -77q24 15 45 -13t11 -63q-14 -44 -56 -55.5t-78 17t-34 85.5q1 23 15.5 49t31.5 61t22 77q10 81 -3 144.5t-43 99.5t-70 57t-85.5 21t-87 -12t-76 -39t-52.5 -62
q-12 -25 -18.5 -49.5t-9 -45.5t3 -46t10.5 -42.5t20.5 -44t25.5 -42.5t33 -45.5t35.5 -44.5t41 -49t42.5 -50q64 -76 144 -153t187 -183t224 -238z" />
    <glyph glyph-name="T.ss02" horiz-adv-x="636" 
d="M184 182v1780q-65 38 -176.5 70t-171.5 32q-69 6 -124.5 -9t-88.5 -44.5t-51.5 -62t-24.5 -68.5q-10 -59 14 -122.5t83 -96.5q-13 0 -31 3.5t-47 18.5t-53 38.5t-43.5 69.5t-22.5 107q-5 84 44.5 158.5t140 119t198.5 42.5q83 -1 211 -41.5t231 -87t232 -107t170 -77.5
q123 -49 241.5 -54t200.5 45t84 152q1 58 -33.5 101t-84 59.5t-103 12t-88.5 -31.5q-32 -24 -44.5 -65.5t-2.5 -79.5t39 -51q-29 2 -56 12t-52 28.5t-41 51.5t-19 76q-6 90 61.5 154.5t163.5 64.5q81 0 145 -28t102 -75.5t57.5 -105t17.5 -119.5q-3 -139 -81 -229
t-225 -109.5t-360 64.5q-10 4 -122 50.5t-126 53.5v-1700q0 -18 2 -33.5t11 -39t24 -40.5t45.5 -29t71.5 -13q9 0 14 -6.5t1.5 -13.5t-15.5 -7h-473q-11 0 -14.5 7t1 13.5t13.5 6.5q49 1 83 18t48 44.5t19 49t5 43.5z" />
    <glyph glyph-name="U.ss02" horiz-adv-x="1241" 
d="M797 2048h454q11 0 14.5 -6t-1 -12.5t-13.5 -6.5q-47 -1 -79 -18t-45.5 -43t-18 -46t-4.5 -42v-1274q0 -58 -3 -104.5t-15 -111.5t-32.5 -114.5t-60 -102.5t-93.5 -87.5t-136 -57t-184 -22.5q-78 0 -145 11t-116 31t-90 47t-67 59t-47.5 67.5t-31.5 72.5t-18.5 73.5
t-9 70.5t-3 64t0.5 53v26v232q-2 0 -2 -2v924q-2 55 -10 105t-28.5 105t-51 95.5t-82.5 69.5t-119 34q-66 5 -126 -16.5t-100 -63.5t-58.5 -99t0.5 -122q12 -44 46 -70t74 -28t78 9t61.5 40t20.5 67q37 -105 8.5 -170.5t-94.5 -91t-141 -6.5q-93 23 -144.5 92t-58.5 152
q-7 79 15.5 146t66 112.5t102.5 77.5t122 47t128 16q198 1 316.5 -122t136.5 -316v-1286q1 -5 1.5 -37t3.5 -71t12 -88t33 -94t59.5 -83t97.5 -61t143 -23q78 0 141 24t102 59t67.5 85.5t42 92t21 90t8.5 68.5t1 38v1368q0 22 -4.5 42t-18 46t-46 43t-80.5 18
q-8 0 -11.5 6.5t-0.5 12.5t12 6z" />
    <glyph glyph-name="V.ss02" horiz-adv-x="1540" 
d="M1155 2048h432q21 0 19.5 -16.5t-19.5 -16.5q-42 0 -79 -16t-59.5 -39.5t-39.5 -46.5t-24 -39l-7 -16l-585 -1835q-3 -11 -10.5 -18t-17 -3.5t-15.5 21.5q-30 77 -584 1683q-92 -90 -227.5 -138.5t-249.5 -21.5q-88 20 -139 79.5t-59 129t8.5 135t51.5 103.5
q82 96 206 133t220 20q181 -32 281 -164q18 25 55.5 69.5t109.5 118t153 143.5t190.5 142t216.5 117q193 80 386 94.5t342 -29.5t253 -137.5t131 -218.5q14 -81 3.5 -139.5t-42.5 -99t-66 -61.5t-67 -27q-67 -10 -123 24.5t-69 96t36 141.5q-7 -98 48 -123q45 -21 94 16
q60 46 62 132q2 43 -13 88q-25 78 -89.5 135t-155.5 86t-198.5 32.5t-228.5 -25.5t-235 -87q-105 -54 -201.5 -121t-188.5 -151.5t-165 -160.5t-172 -186l41 -145l444 -1262l448 1436q18 49 -6 95t-96 46q-9 0 -14 6.5t-1.5 13.5t15.5 7zM-442 1776q16 -63 66 -92.5
t115.5 -24t137 31.5t138 72t110.5 101q-81 154 -234.5 186.5t-260.5 -52.5t-72 -222z" />
    <glyph glyph-name="W.ss02" horiz-adv-x="2138" 
d="M1731 2050h421q17 0 15.5 -18.5t-15.5 -18.5q-49 0 -88.5 -16t-62 -38.5t-37.5 -44.5t-20 -38l-5 -16l-514 -1858h-122q15 36 19 135.5t-7 241.5t-35 292.5t-73 305.5t-115 264l-383 -1239h-74q-512 1872 -526 1933q-26 115 -71.5 222.5t-117 208t-159 173.5
t-204.5 112.5t-247 31.5q-357 -24 -527 -238q-129 -164 -119 -392q10 -204 124 -369q116 -166 288 -213q74 -21 152 -15q101 7 178.5 36.5t121.5 72.5t70.5 93.5t31 103.5t-3 99t-25.5 83q-37 73 -108.5 95.5t-125.5 -14.5q13 80 66 129.5t118 58.5t134.5 -20t115.5 -92
q46 -64 61.5 -138.5t2 -146.5t-53 -142t-98 -128t-138.5 -101t-170 -64.5t-197 -16t-214 42.5q-174 60 -299.5 236.5t-128.5 402.5q-1 142 49.5 267t144 219t234 152t310.5 66q369 17 625.5 -197t363.5 -611q43 -137 151 -509.5t194 -676.5l87 -303l299 931q-6 11 -16 29.5
t-36.5 76.5t-48 114.5t-42.5 135t-27 146.5q-15 189 58 289.5t229 87.5q69 -6 111.5 -41t55.5 -86.5t13 -112.5t-13.5 -121t-27.5 -109t-26 -79l-13 -31q-16 -43 -43 -127q74 -129 127.5 -259.5t79.5 -236.5t40.5 -203.5t14.5 -169.5t-3.5 -125.5t-8.5 -81.5l-6 -27
l379 1437q3 30 1.5 54t-9.5 41.5t-28 26.5t-54 9q-11 0 -12 14.5t12 14.5zM1137 1651l90 252q51 164 -21 250q-48 56 -122 51q-71 -5 -106 -64q-36 -60 -9 -149q15 -53 38 -107t45 -94t41.5 -72.5t31.5 -49.5z" />
    <glyph glyph-name="X.ss02" horiz-adv-x="1196" 
d="M1008 1872l-381 -846l366 -842l8 -14q42 -74 88 -107.5t103 -33.5q9 0 13.5 -6.5t1 -13.5t-14.5 -7h-432q-11 0 -14.5 7t1 13.5t13.5 6.5q50 0 73.5 19t21 48t-12.5 64l-297 686q-224 -516 -287 -639q-120 -229 -318 -355t-450 -135q-227 -8 -403.5 70.5t-277 222.5
t-118.5 334q-19 221 92 394.5t287 250.5q69 31 150.5 44.5t128.5 10.5l47 -2q124 -3 224.5 -47t159.5 -111.5t90 -148t26.5 -162t-41.5 -147.5q-32 -57 -79 -91t-94.5 -38.5t-90.5 9t-71.5 50.5t-33.5 88q58 -31 125.5 -0.5t97.5 107.5q14 37 14.5 82.5t-12.5 93.5t-45 93
t-78 80.5t-117 57t-157 21.5q-32 0 -71 -5t-105 -29.5t-113 -65.5q-48 -41 -85 -98.5t-61 -123.5t-34 -139t-6.5 -146.5t23.5 -145.5t54.5 -136.5t89 -119t123.5 -92.5t161.5 -58t199.5 -15q198 7 353 120.5t261 307.5l353 793l-332 756q-1 2 -17.5 39.5t-31 69t-44.5 83.5
t-59.5 93.5t-74 87.5t-90 76.5t-105 50t-121.5 18.5q-74 -2 -136 -20t-104.5 -47t-74 -68t-45 -84t-17.5 -94t9 -99q16 -70 76 -109.5t132 -39.5q60 0 109 27.5t49 78.5q28 -38 30 -84.5t-18.5 -86.5t-63 -70t-97.5 -37q-86 -13 -165.5 19t-133 105t-60.5 171q-4 56 5 115
t40.5 127.5t83 123t142 94.5t208.5 48q93 6 180 -15.5t154 -58.5t130 -96t108 -116t89 -130.5t70 -126.5t54 -117l209 -504l297 690q13 35 15 64.5t-22.5 48.5t-74.5 19q-9 0 -13.5 6.5t-1 13t14.5 6.5h446q11 0 14.5 -6.5t-1 -13t-13.5 -6.5q-110 0 -190 -142z" />
    <glyph glyph-name="Y.ss02" horiz-adv-x="1071" 
d="M664 1081l167 402q5 12 17 44q91 232 187 375q306 459 816 416q228 -19 390 -130.5t236 -293t54 -409.5q-12 -133 -81.5 -263t-173.5 -222.5t-216 -122.5q-88 -24 -174.5 -27.5t-161.5 11t-144.5 44t-125 70t-101 91t-76 105.5t-45.5 114.5t-13.5 117.5t23 115t61.5 106
q50 60 121.5 84.5t136.5 11t114 -66t56 -133.5q-51 40 -123.5 22t-114.5 -88q-18 -30 -29 -69.5t-12 -86.5t8 -94t36.5 -93.5t69.5 -84t110 -65.5t155 -39q227 -29 401 127q146 132 204 345q62 225 -4 429q-73 226 -279 334q-133 70 -312 81q-94 6 -181.5 -9.5t-157 -43.5
t-135 -76t-113 -93.5t-94.5 -110.5t-76 -112t-61.5 -114t-47 -100t-35.5 -86q-4 -9 -6 -14l-5 -12.5l-5 -12.5l-207 -498v-774q0 -22 5 -43.5t19 -49t48 -44.5t83 -18q9 0 13.5 -6.5t1 -13.5t-14.5 -7h-477q-11 0 -14.5 7t1 13.5t13.5 6.5q49 1 83 18t48.5 44.5t19.5 49
t5 43.5v774l-369 822q-22 50 -49 106q-25 48 -42 80.5t-44 78.5t-49.5 76.5t-52 64t-57.5 53.5t-61 32.5t-67 11.5q-97 -2 -155.5 -67.5t-55.5 -173.5q2 -67 28 -114.5t65.5 -68.5t87 -24.5t92.5 11t82.5 44.5t56.5 70q21 -67 11 -116.5t-44 -81t-79.5 -46.5t-96.5 -13
t-94 21q-77 31 -135.5 129t-54.5 215q5 111 82.5 198.5t213.5 109.5q72 14 138 1.5t127 -56.5t125 -137.5t133 -242.5z" />
    <glyph glyph-name="Z.ss02" horiz-adv-x="1513" 
d="M113 2050h1251q12 0 15.5 -7t-1.5 -14.5t-14 -7.5q-66 0 -136.5 -46.5t-125.5 -139.5l-795 -1569q-13 -26 -13.5 -51.5t12.5 -47t45.5 -35t80.5 -13.5h658q8 -1 21.5 -1t52.5 3t74 11t76.5 28.5t69.5 49.5t44.5 78.5t9.5 112.5q-5 45 -29.5 74t-58.5 37.5t-70.5 3.5
t-68.5 -27t-48 -55q-19 -48 -6 -89t45 -56q-5 0 -22.5 -1t-45 8t-54.5 22t-50 39.5t-31 60.5q-19 85 32.5 144t125.5 73q124 25 221 -41t115 -197q14 -99 -23 -189t-125.5 -148.5t-211.5 -57.5h-1115q-32 -1 -36.5 28t10.5 48l893 1763q22 54 -17 93.5t-131 39.5h-151h-178
q-91 -7 -109 -57q-4 -30 -2.5 -41.5t11.5 -51.5t14 -69q12 -66 12 -108q-1 -48 -35.5 -69.5t-73 -10t-49.5 46.5q-6 31 -0.5 43t19.5 25.5t16 19.5q15 76 -5.5 146.5t-90.5 164.5q-3 5 -5 6.5t-5 3l-5 2.5q-12 25 13 25z" />
    <glyph glyph-name="A.ss03" horiz-adv-x="2119" 
d="M1403 2048l541 -1866q16 -80 75 -117.5t131 -37.5q9 0 14 -6.5t1.5 -13.5t-15.5 -7h-153h-316q-11 0 -14.5 7t1 13.5t13.5 6.5q70 1 94.5 29t20.5 73l-174 600q-3 7 -9 19.5t-30 48t-54.5 66.5t-84.5 67.5t-117 60.5q-90 34 -158 41.5t-91 -1.5l-23 -9l-172 -590
q-171 -516 -578 -414q-108 27 -183.5 92.5t-108 146t-33.5 170t30 167t93.5 135t146.5 74.5q125 25 216 -37t79 -150q-5 -41 -23 -68t-40 -36.5t-43 -13.5t-35 -2l-15 2q2 3 5.5 9t8 22t0.5 30q-8 28 -30 46t-52 21.5t-61 -5t-61 -35.5t-49 -68q-29 -64 -30.5 -137
t22 -137.5t79 -113t133.5 -62.5q60 -11 114 0.5t94 37t75.5 64t59.5 78t44.5 83t32 75.5t20.5 59q1 3 1.5 5.5t1.5 4.5l403 1376q17 103 -94 170q-100 53 -197.5 75.5t-173 14t-133 -38.5t-84.5 -80.5t-20 -111.5q8 -61 69.5 -95.5t130.5 -24t95 64.5q20 48 10 88.5
t-41 54.5q4 1 18.5 2.5t38 -5.5t45.5 -18t42 -36.5t28 -59.5q19 -85 -32.5 -144t-125.5 -75q-124 -24 -221 42.5t-115 197.5q-21 148 67 251t245 103q79 0 151 -17t125.5 -42.5t100.5 -50.5t95.5 -45t92.5 -23h86zM1284 1812l-203 -692l13 1q13 1 20 1.5t24.5 1t30.5 0
t33.5 -2t38.5 -5t40.5 -8.5t43.5 -12q79 -25 133.5 -47.5t69.5 -32.5l14 -10l-233 802q-4 1 -12.5 2t-12.5 2z" />
    <glyph glyph-name="B.ss03" horiz-adv-x="1779" 
d="M768 2146v-999q123 -25 219 -17t167.5 48t120.5 96.5t78 128t40 143t6 142.5q-8 112 -43.5 209.5t-100 180t-158.5 134.5t-220 73t-283 -4q-146 -23 -245 -101.5t-134.5 -178.5t-13.5 -203q31 -134 149 -151q57 -6 107.5 24.5t50.5 83.5q29 -38 30.5 -84.5t-19 -86
t-63.5 -70.5t-98 -39q-131 -19 -220 63t-99 234q-3 45 5 94.5t29 106.5t62.5 111.5t98 103.5t142.5 89t191 62q113 24 222.5 25t206 -19.5t184 -60.5t156 -97.5t122 -129t82.5 -157t37.5 -181t-14.5 -199.5q-6 -32 -18.5 -70t-43.5 -97t-71.5 -108.5t-110 -94.5t-152.5 -65
q106 -33 204.5 -100t176 -156.5t120.5 -204.5t36 -233q-2 -131 -56 -252.5t-151 -215.5t-231 -160t-296 -87.5t-347 2.5q-129 19 -233.5 62t-176.5 103t-121 135t-70.5 160t-21 175.5t24.5 184.5q25 96 74.5 175t108.5 130.5t130.5 88.5t137 54.5t130.5 22.5v903q0 23 -5 45
t-19 49t-48 44t-83 18q-9 0 -13.5 6.5t-1 13t14.5 6.5q14 0 75.5 14t124.5 33q26 8 44.5 19t25.5 19.5t13 15.5t11 8q11 3 17 -1.5t6 -9.5v-6zM606 182v723q-82 -5 -152.5 -38t-120 -85t-85.5 -121t-53.5 -145.5t-18.5 -158.5t13.5 -161t47.5 -152.5t80 -132.5t114 -101.5
t147 -59.5q120 -25 227 -28.5t191 12.5t156 47.5t125 74.5t95 97t70 111.5t46 120.5t26 121.5t8 117.5q-1 65 -18.5 139.5t-55.5 156.5t-97.5 149t-143.5 117.5t-193 63t-246 -15.5v-73q118 -18 216 -69t158.5 -121.5t92 -149.5t22.5 -159t-57 -145q-32 -43 -74 -67.5
t-82.5 -29t-79.5 6t-68 34.5t-45 60.5t-13 79.5q37 -28 74 -35.5t75 11.5t66 67q16 27 25 65t9.5 84.5t-17.5 93.5t-52 88.5t-98.5 73.5t-151.5 46v-713q0 -22 5 -43.5t19.5 -49t48.5 -44.5t83 -18q9 0 13.5 -6.5t1 -13.5t-14.5 -7h-156h-317q-11 0 -14.5 7t1 13.5t13.5 6.5
q49 1 83 18t48 44.5t19 49t5 43.5z" />
    <glyph glyph-name="C.ss03" horiz-adv-x="1298" 
d="M1325 1970q32 13 41 -8.5t-18 -40.5q-9 -7 -22.5 -16t-20 -14.5t-18 -17.5t-23.5 -30q-10 -15 -47.5 -99t-47.5 -99q-29 -42 -59 -27q-21 10 -18 31q1 6 4 10q10 15 19.5 56.5t13.5 75.5l4 34q-4 53 -33 90t-66.5 51.5t-74 21.5t-61.5 6l-26 -1q-11 0 -33 -2.5
t-80.5 -21.5t-113.5 -52t-120.5 -104t-113.5 -166t-81.5 -250t-34.5 -346q-3 -268 53 -471q37 15 114 51t140 61t125 41q104 27 198 20.5t163.5 -42.5t118 -96.5t60 -142t-9.5 -179.5q-6 -26 -18 -55t-42 -70t-70 -73.5t-107 -59t-148 -33.5q-59 -4 -123.5 0.5t-156.5 30
t-171.5 71t-159 135t-128.5 210.5q-216 -71 -438.5 -42.5t-378.5 132.5q-115 76 -184 175t-85.5 195t-0.5 190t62.5 169t111.5 123q63 46 129 68t121.5 18.5t105.5 -22t84 -54.5t54 -79t18 -96t-27 -104q-24 -48 -76 -76t-103.5 -22t-72.5 49q69 -7 106 39t25 98
q-18 87 -96 107q-78 21 -162 -34q-98 -64 -126 -186q-18 -77 -1 -165q25 -128 99 -223.5t172.5 -146t213.5 -72.5t225 -14.5t204 38.5q-86 247 -86 537q0 154 25 286t66 226.5t100 171.5t118.5 126.5t130.5 86t129 55t120 29.5t96 13.5t65 2.5q77 0 138 -15.5t95 -34.5
t65.5 -34.5t67 -15.5t82.5 22zM852 629q-84 2 -160.5 -17.5t-173 -57t-147.5 -52.5q42 -122 104.5 -212.5t133.5 -140t141.5 -71t140.5 -17.5q162 12 227 101q50 73 50 157t-40 151t-114 112.5t-162 46.5z" />
    <glyph glyph-name="D.ss03" horiz-adv-x="1400" 
d="M18 2050h578q200 0 374 -100q305 -177 375 -602q19 -120 19 -256q0 -158 -19.5 -294.5t-52 -237t-79 -184.5t-97 -140.5t-109.5 -100t-112.5 -68t-111 -40.5t-99 -21t-82.5 -6h-586v2q-11 0 -14.5 7t1 13.5t13.5 6.5q40 1 70 13t45.5 29t24.5 40t11 39.5t1 33.5v1626
q0 83 -44 123.5t-159 40.5q-143 0 -231 -75t-82 -197q3 -65 42 -103.5t88 -42.5t97 20t68 71q20 50 10 89.5t-41 53.5q4 1 18.5 2.5t38 -5.5t45.5 -18t42 -36.5t28 -59.5q13 -58 -10.5 -106.5t-63 -75t-84.5 -35.5q-83 -17 -163 11t-132.5 101.5t-44.5 174.5
q9 135 120.5 220.5t307.5 86.5zM336 1851v-1652q0 -16 2 -32t10.5 -38.5t23 -38.5t41.5 -27.5t64 -11.5h107q57 0 107.5 9.5t108.5 37.5t105 74.5t92.5 127t76 186.5t49 261t18.5 345q0 152 -18.5 279.5t-49.5 216t-71.5 159t-85 112.5t-89.5 72.5t-85.5 42.5t-71.5 19
t-50 7l-18 -1h-125q-35 0 -61.5 -11.5t-41 -28t-24 -38t-12 -38t-2.5 -32.5z" />
    <glyph glyph-name="E.ss03" horiz-adv-x="1542" 
d="M334 895v-721q4 -72 53.5 -130.5t125 -93t162 -53t173.5 -18.5q35 0 76 4t96 17t106 33t102 55.5t88.5 81t61 112.5t23.5 148q0 76 -30 135t-77.5 89.5t-101 42t-104.5 -3.5t-84 -52q-36 -39 -43 -96.5t24.5 -103.5t97.5 -46q-53 -49 -115 -60.5t-111.5 10.5t-82.5 74
t-33 121q0 109 100 195t230 86q116 0 201.5 -44t129 -117t59 -163t-1 -185t-58.5 -181q-74 -152 -221 -225.5t-344 -61.5q-110 7 -198 36t-148 65t-121.5 70.5t-150.5 57.5t-202 21q-12 0 -15.5 6.5t1.5 13t14 6.5q40 0 70 12.5t45.5 29.5t24.5 40t11.5 40t2.5 34v1690
q0 17 -2.5 33.5t-11.5 39.5t-24.5 40t-45.5 29t-70 13q-9 0 -14 6.5t-1.5 13.5t15.5 7h1162q27 0 12 -25q-9 -4 -12 -10q-69 -94 -95 -205.5t-8 -189.5q1 -7 12 -17.5t18 -24.5t3 -34q-8 -29 -44 -37.5t-69.5 8.5t-33.5 50q0 21 9.5 56.5t12.5 57.5q11 58 10.5 114
t-22.5 105q-45 99 -211 99h-291q-40 -4 -68.5 -20t-41.5 -40.5t-18.5 -44.5t-6.5 -41v-637q6 -46 37 -82t98 -43q22 0 160 3q17 0 28.5 1t34 10.5t37 27t26 54t11.5 87.5q9 12 24.5 17t27 2.5t11.5 -9.5q-14 -89 -14 -227q0 -140 14 -226q0 -7 -11.5 -9.5t-27 2.5t-24.5 18
q0 36 -7.5 65.5t-19.5 48t-26.5 32t-29.5 20t-27 10t-20 4.5h-7h-160q-67 -5 -98 -41.5t-37 -81.5z" />
    <glyph glyph-name="F.ss03" 
d="M121 2054h1184q26 0 12 -24q-1 -1 -5 -3.5t-9 -7.5q-68 -93 -93.5 -204t-9.5 -191q1 -7 12.5 -17.5t18.5 -24.5t2 -34q-7 -29 -43 -38t-69.5 8t-33.5 51q0 21 10 56.5t13 57.5q10 57 9.5 111.5t-23.5 103.5q-43 95 -211 99h-310q-129 -13 -135 -148v-772
q94 -49 184.5 -74t160.5 -23.5t122.5 22t78 60.5t18.5 93q-8 61 -54.5 88t-98.5 15.5t-77 -52.5q-25 -46 -13.5 -87t42.5 -54q-3 -3 -18.5 -3.5t-38 5t-45 17.5t-41.5 37t-27 59q-18 84 42.5 139.5t135.5 60.5q96 6 163 -56.5t75 -164.5q6 -112 -49.5 -192t-161.5 -101
q-145 -27 -371 66l-27 14v-764q0 -18 2 -33.5t11 -39t24 -40.5t45.5 -29t71.5 -13q9 0 14 -6.5t1.5 -13.5t-15.5 -7h-473q-11 0 -14.5 7t1 13.5t13.5 6.5q49 1 83 18t48 44.5t19 49t5 43.5v862q-104 62 -181 91.5t-130 9.5q-44 -17 -66.5 -53.5t-16 -77.5t41.5 -72
q24 -21 68.5 -23.5t82 20.5t38.5 69q37 -78 1 -128t-106 -53q-23 -2 -51.5 5t-62 26t-56 62t-22.5 104q0 94 75.5 153.5t186.5 49.5q63 -5 198 -66v711q0 17 -2.5 33.5t-12 40t-25 40.5t-45.5 29t-70 13q-9 0 -13.5 6.5t-1 13t14.5 6.5z" />
    <glyph glyph-name="G.ss03" horiz-adv-x="1523" 
d="M1090 922h344q51 4 55 -25q4 -21 -15 -30q-6 -3 -12 -3q-41 0 -70.5 -8.5t-43.5 -19t-21.5 -28.5t-8.5 -29t-1 -29v-314q0 -13 7.5 -22t15.5 -12l8 -3q-20 -100 -103.5 -189t-177.5 -138q-76 -41 -160.5 -57t-153.5 -9.5t-115 17t-73 22.5q-58 22 -111.5 53t-111 79.5
t-106.5 108t-93.5 142t-75.5 178.5t-49 220t-18 264t25 260.5t65.5 209t98.5 162t118 122t130.5 86.5t129 58.5t120.5 34.5t98.5 18.5t68.5 6.5q83 4 175 -20t177 -77t148.5 -127t91 -179t2.5 -222q-28 -132 -129 -195t-238 -34q-89 19 -151 85.5t-65.5 152.5t75.5 174
q-11 -22 -12.5 -51.5t7.5 -61t27 -59.5t49 -47.5t70 -24.5q30 -3 59 1.5t60 20t57.5 50t42.5 84.5q15 44 15.5 92t-13 95.5t-39 92.5t-66.5 82.5t-91 65t-116 41.5t-140 10q-94 -5 -162 -27q-236 -74 -355 -320q-105 -220 -104 -560q0 -164 18.5 -304t49.5 -242.5
t73.5 -184.5t89.5 -135t100 -89.5t102 -52.5t98 -19q77 0 139.5 23t102 57.5t68.5 85.5t43.5 95.5t22.5 99t9.5 84.5t1.5 63v185q0 62 -39 79.5t-78 -2t-39 -45.5q0 -4 8 -16q11 -11 11 -20q7 -34 -12.5 -64.5t-59.5 -36.5q-48 -5 -79.5 32.5t-18.5 104.5q27 134 250 134z
" />
    <glyph glyph-name="H.ss03" horiz-adv-x="1882" 
d="M1692 1866v-1690q0 -20 8 -43.5t26 -50t55 -44t87 -18.5q9 0 13.5 -6.5t1 -13t-14.5 -6.5h-494q-11 0 -14 6.5t1.5 13t12.5 6.5q50 1 84 18t48 45t19 49t5 44v723q0 38 -7.5 62.5t-21.5 34.5t-25.5 14t-27 4.5t-18.5 1.5h-517h-21q-22 -1 -38.5 -10t-26.5 -31v-678
q-7 -100 -38 -185t-85.5 -151.5t-140 -104.5t-192.5 -38q-57 0 -112 12t-109.5 39.5t-96 68.5t-67 104.5t-25.5 141.5q0 17 4 39.5t15.5 58t40.5 69.5t71 55q54 27 117.5 22t109.5 -39t64.5 -92t-16.5 -137q3 38 -19.5 67t-59 40t-75 9t-70.5 -28t-43 -70
q-30 -128 52.5 -213t218.5 -74q53 4 97 26t73.5 53.5t52.5 72.5t35.5 81t21 82t11 72t2.5 54v1130v365q0 45 -25.5 78t-83.5 32h-276q-90 0 -161.5 -23t-117.5 -77.5t-41 -134.5q3 -65 41.5 -101.5t87.5 -38.5t96.5 21t67.5 64q20 48 10 88.5t-41 54.5q4 1 18.5 2.5t38 -5.5
t45.5 -18t42 -36.5t28 -59.5q19 -85 -32 -144t-125 -73q-82 -17 -159 11t-128 101t-51 175q0 139 114.5 222t360.5 83h110h4h494q11 0 14.5 -7t-1 -13.5t-13.5 -6.5q-135 -2 -154 -123v-761q5 -10 11.5 -18t13.5 -13t15 -8.5t14.5 -5t13.5 -2.5t11.5 -1t9.5 1h4h503h11
q10 0 20.5 1t24.5 7.5t25 18t18.5 35.5t7.5 56v658q0 16 -3 33.5t-13.5 40t-27.5 39.5t-48 29t-72 13q-8 0 -12.5 6.5t-1.5 13.5t14 7h502q11 0 14.5 -7t-1 -13.5t-13.5 -6.5q-50 -1 -87 -18.5t-55 -43.5t-26 -49.5t-8 -43.5z" />
    <glyph glyph-name="I.ss03" horiz-adv-x="565" 
d="M369 1849v-471q8 1 22 3t56 11.5t82.5 23t95 40.5t101 60t92.5 84t77 112q60 127 56.5 247.5t-53 214.5t-124.5 126q-65 26 -135 15t-102 -46q-36 -36 -39 -88t37 -82q-58 -2 -101 36.5t-50.5 96t22.5 121.5q35 69 108 105t160.5 29t161.5 -58q85 -60 137.5 -181.5
t53 -265t-61.5 -286.5q-29 -64 -75.5 -121.5t-115.5 -112t-168.5 -96t-220.5 -63.5l-16 -3v-1118q0 -17 2.5 -33.5t12 -39t25 -39.5t45.5 -29.5t70 -13.5q9 0 13.5 -6.5t1 -13.5t-14.5 -7h-473q-11 0 -14.5 7t1 13.5t13.5 6.5q49 1 83 18.5t48.5 44.5t19.5 48.5t5 43.5v1104
l-14 -2q-123 -7 -207 -7.5t-222.5 12t-269.5 44.5l-153 45q-67 25 -129 56t-136 85t-130 118.5t-98 158.5t-52 201q-10 102 2.5 192t42.5 158.5t73 127t96 99.5t110.5 73.5t117 52t115 33t105 18t86 4.5t59.5 -5q2 0 12 -1q297 -25 492 -216q239 -236 262 -684zM203 1350
v393q-4 145 -24 268.5t-50.5 211t-71 158.5t-83 116t-88.5 78t-86 49.5t-78 25.5t-61.5 11t-37.5 3h-8q-33 5 -74 5.5t-89 -5.5t-98 -19t-101 -33.5t-98.5 -49.5t-90.5 -67.5t-76.5 -88t-56.5 -109.5t-30.5 -132.5t1.5 -157.5q19 -172 128 -311.5t302 -227.5l156 -57
q257 -77 590 -68q53 0 125 7z" />
    <glyph glyph-name="J.ss03" horiz-adv-x="958" 
d="M649 -135v1829q-47 0 -119.5 27.5t-149 64.5t-157.5 72t-167.5 53t-157.5 4q-160 -33 -258.5 -144.5t-98.5 -297.5q0 -76 34.5 -135t88 -89.5t113 -42t115 3.5t88.5 52q26 28 36.5 70t3.5 81t-38.5 66.5t-81.5 27.5q53 49 115 60.5t111.5 -10.5t82.5 -74t33 -121
q0 -109 -100 -195t-230 -86q-253 0 -378 157q-100 126 -85 308q14 178 130 318q135 163 347 193q79 11 164 1q108 -12 202 -43.5t162 -66t139 -67.5t165.5 -54t208.5 -19q12 0 15.5 -6.5t-1.5 -13t-14 -6.5q-40 0 -70 -12.5t-45.5 -29.5t-24.5 -40t-11.5 -40t-2.5 -34
l2 -1753q23 2 51 3t92.5 -2.5t121.5 -14t125 -37t116.5 -65.5t82.5 -105.5t36 -151.5q2 -83 -28.5 -151t-80 -107.5t-109.5 -59.5t-121 -15t-110 34q-57 33 -80 103.5t-1 139.5t85 95q-39 -86 18.5 -153.5t145.5 -65.5q69 2 128 55t59 133q0 77 -51.5 118.5t-155.5 72.5
q-67 14 -136 18t-96 2.5t-90 -6.5q0 -271 -24.5 -411t-73.5 -250q-10 -24 -26.5 -51.5t-49.5 -66.5t-73 -69t-100.5 -51.5t-127.5 -21.5h-33q-55 2 -71 6q-81 21 -142 71.5t-91 104t-48.5 116t-22.5 96t-4 54.5q0 254 184.5 426t534.5 199zM389 -354l-6 -2q-29 -14 -49 -27
q-96 -55 -164 -129q-74 -83 -102 -170q-21 -60 -27 -126t7 -130t44 -113.5t90.5 -77t139.5 -20.5q54 4 102.5 38t85 88t63.5 116.5t45 132.5q33 153 33 489q-82 -11 -114 -18q-53 -12 -105 -33q-8 -2 -24 -10h-2l-5 -2l-6 -4h-4z" />
    <glyph glyph-name="K.ss03" horiz-adv-x="1880" 
d="M1606 1933l-482 -694q105 -197 253.5 -472t244.5 -451l96 -177q24 -43 81.5 -77.5t115.5 -34.5q9 0 13.5 -6.5t1 -13.5t-14.5 -7h-463q-11 0 -14.5 7t1 13.5t13.5 6.5q36 0 55 9.5t22 29t-1.5 38.5t-16.5 48l-501 919l-140 -201v-516q0 -138 -51 -249t-155.5 -179
t-247.5 -67q-65 1 -128 16t-122 47t-102.5 77.5t-66 112.5t-15.5 146q7 84 58.5 152.5t143.5 91.5q75 19 141 -7t95 -91.5t-8 -170.5q3 38 -20.5 67.5t-61.5 40.5t-78.5 9t-74.5 -28t-46 -70q-23 -84 12.5 -157t110 -112t162.5 -32q67 5 119 34t82.5 69.5t51 95.5t28.5 105
t10 105v1489q-8 47 -49 84.5t-97 44.5q-81 12 -172 2q-136 -16 -212.5 -84.5t-70.5 -187.5q3 -65 42 -103.5t88 -42.5t97 20t68 71q20 50 10.5 89.5t-40.5 53.5q4 1 18.5 2.5t38 -5.5t45.5 -18t42 -36.5t28 -59.5q13 -58 -10.5 -106.5t-63 -75t-84.5 -35.5q-83 -17 -163 11
t-132.5 101.5t-44.5 174.5q9 134 113 219.5t284 85.5h109h473q12 0 15.5 -6.5t-1.5 -13t-14 -6.5q-40 -1 -70 -13.5t-45.5 -29t-24.5 -40t-11.5 -40t-2.5 -33.5v-830l594 881q26 34 3 66t-83 32q-9 0 -13.5 6.5t-1 13.5t14.5 7h379q11 0 14.5 -7t-1 -13.5t-13.5 -6.5
q-56 0 -88 -18t-69 -70z" />
    <glyph glyph-name="L.ss03" horiz-adv-x="1540" 
d="M377 1214v-1034q4 -72 53.5 -130.5t125 -93t162 -53t173.5 -18.5q35 0 76 4t96 17t106 33t102 55.5t88.5 81t61 112.5t23.5 148q0 76 -30 135t-77.5 89.5t-101 42t-104.5 -3.5t-84 -52q-36 -39 -43 -96.5t24.5 -103.5t97.5 -46q-53 -49 -115 -60.5t-111.5 10.5t-82.5 74
t-33 121q0 109 100 195t230 86q97 0 173.5 -34.5t122.5 -91t72 -129.5t28 -149.5t-14.5 -151t-51.5 -134.5q-87 -148 -230.5 -223.5t-334.5 -63.5q-110 7 -198 36t-148 65t-121.5 70.5t-150.5 57.5t-202 21q-12 0 -15.5 7t1.5 13.5t14 6.5q149 0 156 155v1018h-2
q-124 -7 -208.5 -7.5t-222 12t-267.5 44.5l-154 45q-68 25 -130 56t-136 85t-129.5 118t-97.5 158t-52 202q-11 113 5.5 211.5t53 170.5t89 131.5t114 99t127.5 69t129 45t120 23t99.5 7.5t67.5 -6q2 0 11 -1q40 -4 74.5 -9t116.5 -30t148 -62.5t147.5 -113t136.5 -174
t94 -253.5t40 -344v-383q8 1 21.5 3t55.5 11.5t82.5 23t95 40.5t101 60t93 84t77.5 112q60 127 56.5 247.5t-53.5 214t-125 124.5q-65 27 -134.5 17t-101.5 -46q-36 -36 -39 -88t37 -84q-58 -1 -101 38t-51 96.5t23 121.5q35 69 108 105t160.5 28.5t161.5 -59.5
q84 -59 136 -180.5t53 -264.5t-60 -286q-29 -64 -76 -122t-116 -112t-169 -96t-221 -65zM-647 1382l153 -55q254 -76 590 -67q60 0 119 6v407q-6 182 -37.5 329t-75 238.5t-102.5 159.5t-110 100.5t-108 51.5t-86 22t-53 4h-8q-33 6 -74 6t-89 -5.5t-98 -18t-101.5 -33
t-99 -50t-90.5 -68t-76.5 -88t-56.5 -109.5t-30.5 -132.5t1.5 -158.5q21 -172 130 -311t302 -228z" />
    <glyph glyph-name="M.ss03" horiz-adv-x="1490" 
d="M1350 1872v-1688q0 -18 2.5 -34.5t12 -40t25 -40.5t45.5 -29t70 -13q9 0 14 -6.5t1.5 -13.5t-15.5 -7h-471q-12 0 -15.5 7t1.5 13.5t14 6.5q49 1 83 18t48.5 44.5t19.5 49.5t5 45v1485l-473 -1347l-434 1368v-1506q0 -18 2 -34.5t11.5 -40t25 -40.5t45.5 -29t71 -13
q9 0 13.5 -6.5t1 -13.5t-14.5 -7h-428q-11 0 -14.5 7t1 13.5t13.5 6.5q49 1 83 18t48.5 44.5t19.5 49t5 43.5l2 1639q0 124 -42 236t-115 197.5t-174.5 147.5t-216 90.5t-245 21t-256.5 -55.5q-137 -52 -235 -141.5t-146.5 -192.5t-66.5 -216t-5.5 -215t48.5 -188
q60 -146 184 -251t284.5 -140.5t338.5 25.5q113 41 189 105t106 131.5t34 137t-15 125t-52 91.5q-37 39 -101.5 55t-124 4.5t-87.5 -43.5q-8 65 13.5 118.5t64 85t95 45t111.5 0t109 -51.5q63 -48 101 -114.5t48.5 -139.5t-5 -151.5t-53.5 -151.5t-103.5 -138.5t-148 -113.5
t-194 -75.5t-235.5 -25.5q-198 3 -372 120t-259 304q-74 162 -76 332t59 314.5t178.5 263t274.5 184.5q166 69 329 83t313.5 -29t280 -137.5t233 -249t167.5 -357.5q26 -82 120 -352.5t175 -499.5l80 -230l416 1276h313q12 0 15.5 -6.5t-1.5 -13t-14 -6.5q-40 -1 -70 -13
t-45.5 -29t-25 -40.5t-12 -40t-2.5 -33.5z" />
    <glyph glyph-name="N.ss03" horiz-adv-x="1806" 
d="M1409 2044h430q11 0 14.5 -7t-1 -14.5t-13.5 -7.5q-151 -2 -158 -155v-1866h-82v2l-860 1687v-1355q0 -84 -13.5 -158t-44 -141t-76 -116t-114.5 -80t-155 -36q-204 -12 -322.5 107t-91.5 327q12 85 74 160t162 94q86 17 157.5 -20t93 -110t-25.5 -173q6 61 -34 101.5
t-95.5 48.5t-111 -14.5t-76.5 -73.5q-20 -48 -21 -101t18 -101.5t53 -88.5t88 -63.5t120 -22.5q139 1 221 133.5t80 333.5v1503q2 6 0 16q-11 44 -51 78t-93 41q-81 12 -172 2q-136 -16 -212 -84.5t-70 -187.5q3 -65 42 -103.5t88 -42.5t97 20t68 71q20 50 10 89.5t-41 53.5
q4 1 18.5 2.5t38 -5.5t45.5 -18t42 -36.5t28 -59.5q13 -58 -10.5 -106.5t-63 -75t-84.5 -35.5q-83 -17 -163 11t-132.5 101.5t-44.5 174.5q9 134 113 219.5t284 85.5h531q12 0 15.5 -7t-1.5 -13.5t-14 -6.5q-43 0 -74 -14l746 -1495v1348q1 22 -4 44.5t-19 49t-48.5 43.5
t-84.5 18q-9 0 -13.5 7.5t-1 14.5t14.5 7z" />
    <glyph glyph-name="O.ss03" horiz-adv-x="1570" 
d="M1491 1057v-15q0 -32 -1 -64t-8 -108.5t-19 -144.5t-38 -159.5t-61 -166t-92 -151.5t-127 -129.5t-170 -85.5t-217 -33h-25q-412 0 -600 391q-120 248 -132 599q-1 31 -1 67q0 169 26.5 311t70.5 242t105.5 178.5t126.5 126.5t139 79t138 42.5t127 11.5h25
q63 0 126 -11.5t134.5 -42.5t135.5 -79t124 -126.5t104.5 -178.5t74 -242t34.5 -311zM758 59q53 1 101.5 13.5t101 43.5t96.5 79.5t84 126.5t67 179t42.5 243t13.5 313q-2 163 -19 297t-44 228.5t-67 166.5t-82.5 116.5t-94 72.5t-99 39t-100.5 12h-25q-53 -1 -100.5 -12
t-99 -39t-94 -72.5t-82.5 -116.5t-67 -166.5t-44 -228.5t-19 -297q2 -171 19 -313t44.5 -243t66.5 -179t82 -126.5t94.5 -79.5t99 -43.5t100.5 -13.5h8h17zM741 512q14 61 36 155.5t77 276.5t92 236q-37 53 -88.5 139.5t-83.5 146.5l-33 60q-122 -227 -206 -346
q37 -54 88.5 -221t84.5 -307z" />
    <glyph glyph-name="P.ss03" horiz-adv-x="1757" 
d="M705 463v1108q-49 -56 -130 -68q-131 -17 -220 64.5t-99 232.5q-5 54 7 114.5t48 131t94 131t156 112.5t223 78q112 24 222.5 24.5t207.5 -22t185.5 -63t157.5 -98.5t124 -129.5t84.5 -155.5t38.5 -176t-14 -191q-5 -26 -14.5 -56t-31.5 -77t-50.5 -89.5t-74.5 -87.5
t-101 -78t-133 -53.5t-168 -20.5q-39 0 -79.5 3.5t-70.5 8t-53.5 9t-37.5 8t-15 3.5l20 52q107 -26 190.5 -14.5t147 43.5t109 86.5t75 114t46 127t22 125t2.5 107.5q-8 113 -38.5 204.5t-89 167.5t-146 120t-209.5 61t-279 -10q-89 -14 -163 -49t-121 -83.5t-78.5 -107.5
t-36.5 -120t6 -123q32 -136 147 -150q39 -6 78.5 8.5t61.5 43.5v196q0 17 -2.5 33.5t-11.5 39.5t-24.5 40t-45.5 29.5t-70 13.5q-9 0 -14 6.5t-1.5 13t15.5 6.5q14 0 77 13.5t122 31.5q27 9 45.5 20t26 20t13.5 16t11 8q10 3 15.5 -1.5t6.5 -10.5v-6q2 -1749 0 -1749
q0 -206 -125 -338t-327 -131q-65 1 -128 16t-122 47t-102.5 77.5t-66 112.5t-15.5 146q7 84 58.5 152.5t143.5 91.5q75 19 141 -7t95 -91.5t-8 -170.5q3 38 -20.5 67.5t-61.5 40.5t-78.5 9t-74.5 -28t-46 -70q-23 -84 12.5 -157t110 -112t162.5 -32q65 5 115.5 32t81.5 65.5
t51.5 90.5t29 100.5t11.5 102.5z" />
    <glyph glyph-name="Q.ss03" horiz-adv-x="1525" 
d="M741 1982h-8q-53 -1 -101 -13.5t-100 -43.5t-95.5 -79t-83 -125.5t-67 -178t-43.5 -242t-16 -311.5q0 -165 18 -302.5t47 -233t71 -170t86 -119t96 -74t96 -41.5t92 -16q92 -8 180 5t159 39t138 59.5t129 68t121 63.5t124 47t128 17q64 -1 119 -16.5t93.5 -42.5t68.5 -62
t45.5 -75t22 -81.5t-0.5 -82t-22 -75.5t-43 -63t-64 -43q-43 -18 -89.5 -18.5t-83.5 14t-57.5 48.5t-12.5 81q24 -31 75 -31t86 33q85 81 25 201q-44 70 -110 98t-138 14q-51 -10 -125.5 -42t-148 -67.5t-162 -73t-182.5 -60.5t-192 -29t-208 21t-215 90q-80 47 -147 121.5
t-124 184t-89.5 266t-32.5 343.5v6q0 340 104 600q156 390 506 447q59 10 123 10h25q136 0 248.5 -44.5t186.5 -113t130 -165.5t86 -186t49.5 -192t25 -167t7.5 -125v-70q-6 -195 -50 -353t-110 -258.5t-152 -168t-171 -95.5t-172 -28q-94 0 -173 29.5t-126.5 68.5t-84 88
t-50 79t-19.5 50q-38 121 -20.5 229t70.5 189.5t143 129.5t198 48q75 -1 132.5 -31.5t86 -79.5t37 -105.5t-10.5 -113.5t-61 -100q-2 89 -44 148t-99.5 75.5t-123 -4.5t-111.5 -80q-57 -72 -65.5 -166.5t25 -174.5t107 -136.5t166.5 -58.5q78 -2 145 28t123.5 94.5
t96.5 160.5t62.5 232.5t23.5 303.5q0 171 -15.5 313t-43 243t-67.5 179t-83 126t-95.5 79t-100.5 43.5t-101 13.5h-17z" />
    <glyph glyph-name="R.ss03" horiz-adv-x="1079" 
d="M299 2118v-1000q123 -25 219 -17t167.5 48t120.5 96.5t78 128t40 143t6 142.5q-8 112 -43.5 209.5t-100 180t-158.5 135t-220 73.5t-283 -4q-110 -18 -195.5 -68t-132.5 -117.5t-64 -145t-1 -153.5q31 -134 149 -151q57 -6 107.5 24.5t50.5 83.5q29 -38 30.5 -84.5
t-19 -86t-63.5 -70.5t-98 -39q-131 -19 -220 63t-99 234q-3 45 5 94.5t29 106.5t62.5 111.5t98 103.5t142.5 89t191 62q113 24 222.5 25t206 -19.5t184 -60.5t156 -97.5t122 -129t82.5 -157t37.5 -181t-14.5 -199.5q-4 -20 -13 -46.5t-28.5 -66t-46 -78t-68 -81.5t-91 -78.5
t-119 -65t-148.5 -45.5q80 -64 182 -80q15 -196 53 -381t97 -355.5t142 -314.5t184 -253.5t228 -176.5t269 -79q172 -15 264 85q67 72 62 166q-6 88 -74 131q-19 12 -41 19q-48 14 -93 -2t-70 -49.5t-20.5 -83t47.5 -94.5q-47 -5 -100.5 40.5t-60.5 129.5q-5 57 23.5 108
t77 80.5t111 41t124.5 -10.5q66 -21 113.5 -65t68.5 -99.5t24.5 -119.5t-18.5 -124q-25 -76 -85.5 -133t-132.5 -85t-149 -32q-66 -3 -136.5 6t-152.5 36t-162.5 71t-165 114.5t-161 161t-149 217t-131 276t-105.5 344t-74 415.5q-7 60 -84 90q-36 0 -67 3.5t-46.5 7
t-39.5 10t-31 8.5v-871q0 -22 5 -43.5t19.5 -49t48.5 -44.5t83 -18q9 0 13.5 -6.5t1 -13.5t-14.5 -7h-473q-12 0 -15.5 7t1.5 13.5t14 6.5q49 1 82.5 18t47.5 44.5t18.5 48.5t4.5 44v1661q0 23 -5 45t-19 49t-48 44t-83 18q-9 0 -13.5 6.5t-1 13t14.5 6.5q40 0 200 48
q33 10 53 24.5t28 25t13 11.5q11 3 17 -1t6 -9v-6z" />
    <glyph glyph-name="S.ss03" horiz-adv-x="1105" 
d="M934 827q81 -93 115 -195.5t22.5 -194t-59.5 -173.5q-30 -51 -102 -117t-171 -108q-94 -40 -195 -47t-191.5 19t-165.5 76.5t-124.5 131t-60.5 178.5q-11 92 20 175.5t88.5 138t136.5 80t161 10.5q93 -16 162.5 -87t78.5 -182q6 -66 -14 -118.5t-55 -82.5t-81 -45.5
t-92.5 -12.5t-89 22t-69.5 53q-48 58 -51 119q-3 48 24 81.5t61 45t62 4.5q48 -11 72.5 -42t27 -62t5 -58.5t10.5 -32.5q43 -28 80 22t30 126q-7 62 -33 107.5t-61 67t-68.5 31t-64.5 7.5q-118 -4 -182 -115q-62 -107 -43 -249q21 -157 130 -252q89 -77 218 -91
q246 -5 340 156q41 80 41 184q-1 56 -17 112.5t-36 102.5t-59.5 102.5t-69 93.5t-85.5 93.5t-86.5 86t-94.5 88.5t-89 83q-126 119 -208 252t-93 262q-7 87 19 158.5t75.5 116.5t111.5 70.5t130 29.5q143 8 242.5 -56.5t120.5 -193.5q2 -9 2 -24t-4.5 -42.5t-15 -54.5
t-34.5 -58.5t-59 -55.5q-71 -47 -152 -40.5t-135 60.5q-53 52 -64 113t12 109t70.5 80.5t104.5 33.5q11 0 27 -3.5t38 -13.5t39 -32.5t21 -54.5q6 -31 -7.5 -60.5t-33.5 -40.5q-52 -25 -80 -12t-55 36.5t-37 20.5q-25 -5 -35 -33.5t2 -64t43 -57.5q68 -49 125.5 -41.5t97 46
t58 93.5t8.5 100q-14 63 -58 104t-100.5 52.5t-114.5 5.5t-106 -34.5t-69 -69.5q-12 -25 -18.5 -49.5t-9 -45.5t3 -46t10.5 -42.5t20.5 -44t25.5 -42.5t33 -45.5t35.5 -44.5t41 -49t42.5 -50q64 -76 144 -153t187 -183t224 -238z" />
    <glyph glyph-name="T.ss03" horiz-adv-x="532" 
d="M174 182v1622q0 33 -6 61t-12.5 44.5t-20.5 34t-20 23t-23 17.5l-16 13q-102 57 -200 83t-173.5 20.5t-132 -32.5t-83 -76t-19.5 -110q6 -46 45 -77.5t87 -40.5t95 6.5t67 56.5q20 48 10.5 88.5t-40.5 54.5q4 1 18.5 2.5t38 -5.5t45.5 -18t42 -36.5t28 -59.5
q19 -85 -32.5 -144t-125.5 -73q-124 -25 -221 41t-115 197q-21 149 66.5 251.5t244.5 102.5q74 0 147 -14t145 -43t119 -51.5t116 -59.5q214 -113 385 -159.5t270.5 -21.5t114.5 116q11 65 -13.5 112t-67.5 66t-93.5 18.5t-89.5 -22.5q-35 -19 -54 -62t-14.5 -85.5
t31.5 -59.5q-63 14 -105 61.5t-34 130.5q7 89 96 144.5t184 36.5q69 -14 121 -52t77.5 -88.5t32 -110.5t-13.5 -120q-26 -86 -80.5 -137t-120 -65.5t-140.5 -10t-142.5 24.5t-125.5 42.5t-90.5 39t-37.5 20.5v-1696q0 -18 2 -33.5t11 -39t24 -40.5t45.5 -29t71.5 -13
q9 0 14 -6.5t1.5 -13.5t-15.5 -7h-474q-11 0 -14.5 7t1 13.5t13.5 6.5q49 1 83 18t48.5 44.5t19.5 49t5 43.5z" />
    <glyph glyph-name="U.ss03" horiz-adv-x="1224" 
d="M12 575v1127q-112 -73 -263 -88t-269 45q-64 36 -98 90t-36 109.5t13.5 109.5t45.5 95.5t65 62.5q72 48 161.5 64t162 5t126.5 -38q167 -80 225 -234q269 200 451.5 314t404.5 214q291 125 506.5 94.5t340 -153.5t124.5 -281q0 -63 -17 -114t-44 -82t-59.5 -50.5
t-62.5 -26t-56 -3.5q-50 6 -87 34.5t-52 67.5t2 88.5t69 92.5q-31 -88 30 -134q50 -38 120 -24q75 15 100 78q21 51 -2 121q-26 80 -78 136.5t-116 85t-140.5 40.5t-152 7t-150.5 -19t-134.5 -33.5t-105.5 -40.5q-58 -27 -119 -59t-107 -58t-114.5 -70.5t-102 -66
t-110.5 -76t-99 -70.5t-109.5 -80t-102.5 -75v-1274q1 -5 1.5 -37t3.5 -71t12 -88t33 -94t59.5 -83t97.5 -61t143 -23q78 0 141 24t102 59t67.5 85.5t42 92t21 90t8.5 68.5t1 38v1368q0 22 -4.5 42t-18 46t-46 43t-80.5 18q-8 0 -12 6.5t-0.5 12.5t12.5 6h454q11 0 14.5 -6
t-1 -12.5t-13.5 -6.5q-47 -1 -79 -18t-45.5 -43t-18 -46t-4.5 -42v-1274q0 -58 -3 -104.5t-15 -111.5t-32.5 -114.5t-60 -102.5t-93.5 -87.5t-136 -57t-184 -22.5q-78 0 -145 11t-116 31t-90 47t-67 59t-47.5 67.5t-31.5 72.5t-18.5 73.5t-9 70.5t-3 64t0.5 53v26z
M-584 1917q-2 -65 40 -107t109.5 -54t146.5 -6t157.5 33t136.5 68q-32 155 -162 231q-110 63 -232 43q-116 -19 -167 -104q-27 -46 -29 -104z" />
    <glyph glyph-name="V.ss03" horiz-adv-x="1462" 
d="M1042 2048h433q21 0 19.5 -16.5t-19.5 -16.5q-42 0 -79 -16t-59.5 -39.5t-39.5 -46.5t-24 -39l-7 -16l-588 -1835q-6 -19 -18 -22.5t-25 22.5q-33 83 -481 1392l-2 8q-85 328 -239 578q-252 407 -600 421q-32 1 -65 -1q-357 -25 -527 -239q-129 -163 -119 -391
q10 -204 124 -369q116 -167 288 -214q74 -20 152 -14q87 6 157 29t114 56.5t74.5 75t43 85.5t14.5 88.5t-6 83t-24 69.5q-37 73 -107.5 96t-125.5 -14q13 80 66 129.5t118 58.5t134.5 -20t115.5 -92q46 -64 61.5 -138.5t2 -146.5t-53 -142t-98 -128t-138.5 -101t-170 -64.5
t-197 -16t-214 42.5q-174 60 -299.5 236.5t-128.5 402.5q-1 142 49 266t144 217t233.5 151.5t310.5 69.5q331 21 573 -147t380 -492l499 -1405l451 1436q18 49 -6.5 95t-96.5 46q-9 0 -14 6.5t-1.5 13.5t15.5 7z" />
    <glyph glyph-name="W.ss03" horiz-adv-x="2105" 
d="M717 451l299 931q-6 11 -16 29.5t-36.5 76.5t-48 114.5t-42.5 135t-27 146.5q-15 189 58 289.5t229 87.5q69 -6 111.5 -41t55.5 -86.5t13 -112.5t-13.5 -121t-27.5 -109t-26 -79l-13 -31q-16 -43 -43 -127q74 -129 127.5 -259.5t79.5 -236.5t40.5 -203.5t14.5 -169.5
t-3.5 -125.5t-8.5 -81.5l-6 -27q247 972 372 1415q51 178 113 319t147 261t189 199.5t239.5 123.5t296.5 43q236 -1 407.5 -101.5t255 -278t71.5 -407.5q-12 -228 -134 -402.5t-294 -233.5q-107 -37 -214 -42.5t-197 16t-170 64.5t-138.5 101t-98 128t-53 142t2 146.5
t61.5 138.5q46 63 115.5 92t134.5 20t118 -58.5t66 -129.5q-55 37 -126 14t-108 -96q-18 -37 -25.5 -85.5t-3 -103.5t31 -107.5t70.5 -95.5t121.5 -69t178.5 -26q201 0 350 167q133 148 175 367q45 234 -37 427q-90 211 -306 291q-115 42 -260 42q-148 0 -277 -57
t-220 -145.5t-165 -208.5t-118.5 -233t-73.5 -233l-514 -1855h-123q15 36 19 135.5t-7 241.5t-35 292.5t-73 305.5t-115 264l-383 -1239h-73q-400 1461 -502 1843q-21 63 -35 101.5t-37.5 96.5t-46 94.5t-51.5 74.5t-63 59t-72 27q-98 14 -166.5 -42.5t-81.5 -164.5
q-8 -67 10.5 -118t53.5 -78t82 -38t93 -4t88 30.5t66 60.5q14 -81 -17.5 -136.5t-86 -74.5t-118.5 -12.5t-114 38.5q-72 44 -114.5 150.5t-18.5 220.5q22 109 112 182.5t230 73.5q63 0 112.5 -11.5t101 -44t93 -88t82.5 -146.5t76 -216q52 -169 155.5 -526t181.5 -629z
M1128 1649l91 252q51 164 -21 250q-48 56 -122 51q-71 -5 -106 -64q-36 -60 -9 -149q24 -84 66 -169t71 -128z" />
    <glyph glyph-name="X.ss03" horiz-adv-x="1290" 
d="M766 1024l737 -1604q106 -193 261.5 -307t353.5 -121q107 -5 199.5 15t161.5 58t123.5 92.5t89 119t54.5 136.5t23.5 145.5t-6.5 146.5t-34 139t-61 123.5t-85 98.5q-47 41 -113 65.5t-105 29.5t-71 5q-86 0 -157 -21.5t-117 -57t-78.5 -80.5t-45.5 -93t-12.5 -93.5
t14.5 -82.5q30 -77 98 -107.5t126 0.5q-5 -51 -33.5 -88t-71.5 -50.5t-90.5 -9t-94.5 38.5t-79 91q-37 66 -41.5 147.5t26.5 162t90 148t159.5 111.5t224.5 47q7 1 19.5 1.5t50 -0.5t74.5 -5t87 -16.5t94 -32.5q176 -77 287 -250.5t92 -394.5q-13 -142 -75 -260t-163 -201.5
t-245 -127.5t-315 -38q-252 9 -450 135t-318 355q-28 55 -196 417.5t-322 697.5l-154 335l-297 -686q-10 -35 -12.5 -64t21 -48t73.5 -19q9 0 13.5 -6.5t1 -13.5t-14.5 -7h-432q-11 0 -14.5 7t1 13.5t13.5 6.5q57 0 102 33t88 108l8 14l367 842l-381 842l-8 14
q-80 141 -191 141q-9 0 -13.5 6.5t-1 13.5t14.5 7h447q11 0 14.5 -7t-1 -13.5t-13.5 -6.5q-134 0 -82 -131l297 -686l301 686q52 131 -82 131q-9 0 -13.5 6.5t-1 13.5t14.5 7h446q11 0 14.5 -7t-1 -13.5t-13.5 -6.5q-111 0 -190 -141l-8 -14z" />
    </font>
</defs>
</svg>
